<svg preserveAspectRatio="xMidYMid meet" version="1.1" xmlns="http://www.w3.org/2000/svg" style="display: block;" viewBox="0 0 2048 2048" width="1024" height="1024">
<path transform="translate(0,0)" fill="rgb(254,254,254)" d="M 0 0 L 2048 0 L 2048 2048 L 0 2048 L 0 0 z"/>
<path transform="translate(0,0)" fill="rgb(22,31,66)" d="M 584.024 88.483 C 665.43 85.657 748.618 101.86 825.794 126.913 C 869.977 141.256 959.325 178.186 989.509 211.68 C 1001.48 224.969 1009.4 242.673 1015.95 259.115 C 1022.81 276.359 1028.22 294.125 1033.9 311.78 C 1037.22 322.08 1040.12 333.352 1045.15 342.943 C 1045.33 343.285 1045.52 343.62 1045.71 343.959 C 1045.07 330.824 1041.88 317.321 1039.66 304.354 C 1035.26 278.733 1030.62 253.239 1027.7 227.394 C 1031.16 229.402 1034.53 231.551 1037.81 233.835 C 1094.26 273.43 1150.27 315.351 1200.64 362.533 C 1214.84 375.835 1229.27 389.135 1241.12 404.645 C 1250.06 416.369 1257.05 429.459 1261.83 443.41 C 1277.02 489.151 1276.36 537.651 1284.59 584.599 C 1285.89 541.176 1286.7 497.739 1287.05 454.297 C 1295.99 463.708 1303.65 474.862 1311.5 485.21 C 1331.02 510.922 1349.25 536.649 1365.95 564.274 C 1384.15 594.36 1403.41 625.093 1414.34 658.744 C 1427.86 700.38 1426.03 762.618 1425.56 806.6 C 1425.31 830.054 1423.83 854.317 1425.71 877.678 C 1432.45 838.101 1437.66 798.278 1441.31 758.298 C 1442.93 740.713 1444.96 722.987 1445.27 705.324 C 1489.77 793.31 1508.93 864.231 1509 963.58 C 1529.68 942.418 1558.18 915.722 1587.84 909.338 C 1580.36 922.814 1568.88 933.944 1561.11 947.494 C 1535.56 992.051 1512.97 1070.05 1512.95 1121.75 C 1531.96 1133.66 1552.07 1143.83 1571.78 1154.5 C 1599.16 1169.65 1626.66 1184.6 1654.25 1199.35 L 1850.47 1306.59 C 1876.29 1320.3 1901.94 1334.31 1927.43 1348.62 C 1939.62 1355.46 1954.15 1362.09 1964.61 1371.38 C 1953.07 1379.34 1939.13 1385.43 1926.73 1392.06 C 1899.07 1406.97 1871.28 1421.61 1843.35 1436.01 L 1641.75 1543.45 C 1639.81 1541.33 1636.98 1537.44 1633.98 1537.03 C 1631.32 1536.66 1630.48 1537.02 1628.45 1538.47 C 1626.34 1547.79 1650.3 1570.44 1655.51 1580.12 C 1658.36 1585.4 1660.16 1591.51 1661.46 1597.35 C 1664.1 1609.21 1665.01 1621.64 1667.12 1633.64 C 1671.18 1656.64 1676.32 1679.75 1679.1 1702.92 C 1663.94 1683.31 1616.93 1617.51 1611.5 1596.31 C 1608.23 1583.55 1609.17 1569.77 1608.18 1556.69 C 1573.19 1580.38 1533.84 1599.52 1496.74 1619.76 C 1464.87 1637.15 1433.57 1656.26 1401 1672.22 C 1400.83 1692.18 1403.29 1735.79 1399.27 1752.92 C 1398.07 1758.03 1395.37 1762.67 1392.27 1766.87 C 1374.65 1790.7 1337.34 1799.01 1309.81 1802.83 C 1268.28 1808.6 1216.84 1806.69 1179.12 1787.18 C 1172.56 1783.79 1166.72 1779.27 1160.83 1774.85 C 1122.31 1793.24 1084.87 1813.9 1047.18 1833.9 L 949.18 1884.76 C 915.286 1902.11 881.359 1919.17 847.687 1936.95 C 835.892 1943.18 821.866 1948.65 811.293 1956.71 C 798.793 1951.42 786.743 1944.88 774.65 1938.71 C 761.431 1931.78 748.744 1923.91 735.61 1916.82 C 666.453 1879.65 597.572 1841.97 528.973 1803.79 L 209.336 1632.1 C 193.006 1623.31 87.9702 1568.95 84.8042 1563.47 C 89.4116 1557.85 135.351 1539.12 145.488 1534.24 C 281.737 1468.59 378.465 1403.99 456.8 1271.25 C 476.412 1238.01 493.304 1197.26 499.942 1159.19 C 506.031 1124.28 504.159 1086.95 521.054 1054.72 C 530.504 1036.7 545.793 1020.78 565.806 1015.02 C 575.341 1012.26 585.473 1012.34 594.964 1015.25 C 614.544 1021.18 650.861 1041.96 670.763 1051.99 C 727.931 1080.81 785.793 1109.22 841.62 1140.55 C 859.327 1131.67 876.142 1120.45 893.512 1110.84 C 943.651 1083.07 993.827 1055.06 1044.58 1028.44 C 1054.41 1023.36 1064.2 1018.19 1073.94 1012.93 C 1081.94 1008.51 1089.99 1003.22 1098.54 999.989 C 1100.94 999.081 1103.18 998.531 1105.71 999.241 C 1116.93 1002.39 1127.73 1011.11 1137.83 1017.01 C 1145.74 1021.61 1153.92 1025.74 1162.33 1029.35 C 1193.89 1018.28 1227.77 1023.48 1258.64 1034.93 C 1269.34 1038.9 1280.1 1044.45 1291.18 1047.09 C 1286.12 1042.17 1267.63 1034.64 1260 1030.35 C 1241.45 1019.92 1222.91 1008.88 1204.95 997.444 C 1161.58 969.825 1127.16 932.432 1097.96 890.437 C 1089.41 878.153 1081.76 865.269 1073.34 852.903 C 1056.85 828.699 1039.72 805.838 1029.4 778.134 C 1073.68 802.57 1125.29 823.611 1171.82 843.419 C 1195.59 853.535 1220.26 866.145 1245.11 872.921 C 1226.27 861.867 1206.23 852.463 1186.98 842.083 C 1162.13 828.679 1137.96 814 1113.68 799.61 C 1075.71 777.109 1021.12 747.939 993.028 714.123 C 980.71 699.298 971.222 682.105 961.391 665.577 C 945.603 639.177 930.275 612.504 915.415 585.571 L 866.316 496.237 C 858.145 481.326 848.249 466.507 841.81 450.819 C 905.473 486.363 968.872 523.528 1034.86 554.681 C 1017.26 542.308 998.021 531.487 979.954 519.683 C 949.062 499.311 918.511 478.426 888.315 457.036 C 868.664 443.285 843.739 426.721 827.351 409.515 C 815.917 397.509 809.128 379.851 801.454 365.306 C 794.709 352.735 787.85 340.227 780.876 327.782 C 764.173 297.135 745.91 267.365 726.158 238.589 C 698.342 198.045 666.322 159.083 629.302 126.577 C 621.049 119.327 612.549 112.362 603.816 105.696 C 597.17 100.7 589.594 96.0387 583.779 90.099 L 584.024 88.483 z"/>
<path transform="translate(0,0)" fill="rgb(254,254,254)" d="M 578.369 1033.26 C 584.687 1033.33 589.739 1034.76 595.482 1037.21 C 624.818 1049.71 653.482 1065.87 681.991 1080.26 L 860.854 1172 L 1033.69 1261.11 C 1067.72 1278.94 1101.79 1296.4 1134.69 1316.29 C 1114.86 1329.84 1099.49 1343.12 1087.07 1364.05 C 1069.18 1394.18 1063.54 1430.96 1053.02 1464.03 C 1038.75 1508.93 1021.1 1553.68 999.282 1595.44 C 950.152 1689.5 885.633 1754.45 790.823 1802.32 C 761.32 1817.21 732.08 1829.53 700.542 1839.44 L 690.584 1835 C 644.433 1814.08 599.001 1791.37 553.449 1769.18 L 387.481 1689.42 C 326.341 1661.1 265.49 1632.16 204.935 1602.61 C 178.96 1589.94 152.263 1577.95 126.993 1563.95 C 139.993 1556.77 154.38 1551.4 167.797 1544.9 C 193.438 1532.27 218.704 1518.9 243.564 1504.79 C 280.466 1483.38 315.619 1460.32 348.295 1432.76 C 406.694 1383.52 465.011 1310.68 495.797 1240.47 C 504.205 1221.29 510.473 1200.97 515.275 1180.61 C 523.734 1144.74 524.064 1081.48 545.134 1053.68 C 553.525 1042.6 564.519 1035.3 578.369 1033.26 z"/>
<path transform="translate(0,0)" fill="rgb(22,31,66)" d="M 260.852 1556.49 C 276.338 1560.89 291.58 1569.39 306.26 1575.99 L 379.635 1608.65 C 444.705 1637.83 510.164 1666.13 575.995 1693.54 L 693.446 1742.8 C 705.312 1747.8 729.335 1755.5 738.945 1762.93 C 741.645 1765.01 742.254 1766.6 742.725 1769.91 C 741.579 1773.19 740.138 1774.4 737.439 1776.52 C 727.726 1774.61 717.853 1770.18 708.581 1766.73 C 681.692 1756.73 655.527 1745.23 629.039 1734.26 C 522.199 1690.31 416.307 1644.08 311.436 1595.62 C 298.645 1589.68 271.222 1579.11 260.872 1571.34 C 257.727 1568.98 256.487 1567.05 256.001 1563.16 C 257.044 1560.17 258.661 1558.64 260.852 1556.49 z"/>
<path transform="translate(0,0)" fill="rgb(22,31,66)" d="M 337.837 1521.64 C 350.562 1524.84 363.212 1531.65 375.363 1536.75 C 404.648 1549.01 433.861 1561.44 462.997 1574.04 C 547.314 1609.36 631.437 1645.14 715.361 1681.38 L 783.992 1710.93 C 792.217 1714.54 802.708 1717.46 809.935 1722.72 C 812.655 1724.7 813.315 1726.14 813.92 1729.4 C 813.023 1732.35 811.759 1733.53 809.547 1735.5 C 788.084 1731.43 746.025 1711.86 723.482 1702.75 C 631.143 1664.87 539.466 1625.4 448.492 1584.35 C 422.564 1572.96 396.701 1561.43 370.903 1549.75 C 360.506 1545.11 348.431 1541.45 338.921 1535.28 C 335.64 1533.16 334.061 1531.43 333.265 1527.59 C 334.057 1524.5 335.46 1523.51 337.837 1521.64 z"/>
<path transform="translate(0,0)" fill="rgb(22,31,66)" d="M 401.088 1478.56 C 414.578 1480.12 478.592 1508.77 495.4 1515.64 C 557.485 1540.93 619.364 1566.73 681.029 1593.03 C 733.185 1614.66 785.015 1637.06 836.503 1660.24 C 843.073 1663.25 860.453 1669.47 862.816 1675.84 C 862.568 1679.04 861.378 1680.95 859.781 1683.62 C 857.829 1683.69 855.958 1683.76 854.043 1683.28 C 840.728 1679.97 826.468 1672.35 813.725 1667.1 L 710.996 1623.84 C 637.976 1593.67 565.31 1562.65 493.013 1530.79 C 464.051 1517.96 433.899 1505.92 405.766 1491.46 C 402.963 1490.02 400.866 1488.88 399.309 1486.03 C 399.006 1482.64 399.567 1481.45 401.088 1478.56 z"/>
<path transform="translate(0,0)" fill="rgb(22,31,66)" d="M 456.746 1428.61 C 469.197 1430.39 483.156 1437.89 494.743 1442.8 C 516.692 1452.05 538.548 1461.52 560.308 1471.21 C 662.151 1515.85 764.2 1560.18 863.773 1609.75 C 870.897 1613.3 893.611 1622.37 895.975 1629.42 C 895.662 1632.41 894.364 1633.83 892.549 1636.07 C 890.079 1636.57 887.727 1637.04 885.261 1636.18 C 868.948 1630.45 849.466 1619.41 833.156 1611.8 L 727.543 1563.24 C 639.03 1522.36 549.13 1484.09 461.302 1441.74 C 458.427 1440.36 455.251 1439.11 453.806 1436.1 C 453.812 1432.87 455.054 1431.2 456.746 1428.61 z"/>
<path transform="translate(0,0)" fill="rgb(22,31,66)" d="M 560.119 1290.87 C 571.967 1293.87 590.247 1304.03 602.107 1309.22 C 661.645 1335.27 720.144 1363.98 778.856 1391.83 C 825.077 1413.75 871.64 1434.72 917.497 1457.45 C 932.706 1464.99 950.821 1471.9 964.832 1481.31 C 966.439 1482.39 967.804 1483.84 967.921 1485.85 C 968.149 1489.8 965.216 1492.47 962.663 1495.05 C 916.746 1475.83 872.302 1452.65 827.393 1431.18 L 614.755 1331.44 C 605.718 1327.27 558.517 1307.07 555.214 1302.68 C 553.341 1300.19 553.544 1299.55 553.87 1296.62 C 555.559 1293.79 557.428 1292.6 560.119 1290.87 z"/>
<path transform="translate(0,0)" fill="rgb(22,31,66)" d="M 512.295 1361.87 C 514.902 1361.81 516.926 1361.9 519.363 1362.86 C 547.147 1373.79 574.363 1387.85 601.554 1400.27 C 671.969 1432.63 741.949 1465.93 811.475 1500.15 L 882.4 1534.86 C 894.986 1541.01 908.893 1546.64 920.574 1554.3 C 923.152 1555.99 925.118 1557.15 925.411 1560.5 C 925.691 1563.69 924.21 1565.73 922.447 1568.18 C 915.462 1567.23 908.781 1563.51 902.438 1560.56 C 871.618 1546.27 841.36 1530.77 810.737 1516.05 L 647.868 1438.89 C 611.576 1421.73 574.964 1405.13 539.093 1387.11 C 530.833 1382.95 521.451 1380.14 513.619 1375.36 C 510.658 1373.56 508.968 1372.06 508.048 1368.58 C 508.938 1365.13 509.898 1364.4 512.295 1361.87 z"/>
<path transform="translate(0,0)" fill="rgb(22,31,66)" d="M 583.774 1202.69 C 585.596 1202.83 587.138 1203.09 588.873 1203.7 C 607.794 1210.36 626.614 1220.18 645.031 1228.23 C 697.311 1251.41 749.307 1275.23 801.005 1299.68 C 844.95 1320.12 888.691 1340.99 932.223 1362.29 C 952.72 1372.44 975.014 1382.17 994.185 1394.56 C 997.173 1396.49 998.278 1397.17 999.756 1400.38 C 999.689 1403.67 998.502 1405.51 996.885 1408.23 C 983.16 1405.56 954.108 1388.57 940.486 1381.75 C 860.725 1341.81 778.9 1304.98 697.656 1268.12 C 669.293 1255.48 641.087 1242.49 613.044 1229.16 C 604.481 1225.15 594.738 1222.23 586.729 1217.33 C 583.466 1215.33 581.17 1213.44 580.176 1209.58 C 580.571 1206.42 581.811 1205.02 583.774 1202.69 z"/>
<path transform="translate(0,0)" fill="rgb(254,254,254)" d="M 1102.11 1020.78 C 1109.81 1020.91 1148.23 1045.21 1157.16 1050.41 C 1209.42 1080.82 1261.84 1110.25 1313.08 1142.43 C 1359.58 1171.63 1405.85 1204.77 1454.48 1230.05 C 1463.01 1251.42 1470.98 1273.11 1479.39 1294.55 C 1451.66 1281.8 1424.97 1266.31 1397.7 1252.58 L 1201.09 1154.63 C 1182.08 1145.33 1163.31 1135.45 1144.31 1126.08 C 1136.03 1121.99 1127.61 1117.29 1119.02 1113.99 C 1114.85 1112.4 1111.29 1111.47 1106.9 1112.52 C 1105.14 1114.43 1105.12 1114.56 1104.84 1117.15 C 1106.22 1120.97 1108.37 1122.92 1111.7 1125.04 C 1121.19 1131.07 1132.32 1135.75 1142.39 1140.79 L 1201.93 1170.7 L 1414.22 1277.32 C 1437.43 1289.19 1462.17 1299.58 1484.74 1312.49 L 1485.9 1313.17 C 1495.89 1328.92 1510.65 1368.28 1517.99 1387.13 C 1512.01 1380.64 1504.98 1375.22 1497.18 1371.1 C 1482.75 1363.63 1465.95 1362.2 1450.47 1367.11 C 1421.9 1354.36 1394.15 1339.03 1366.26 1324.82 L 1225.94 1253.92 C 1182.32 1232.17 1138.88 1210.07 1095.62 1187.63 C 1074.07 1176.58 1051.54 1163.86 1029.52 1154.03 C 1027.1 1152.95 1023.33 1151.21 1020.6 1151.52 C 1017.91 1151.82 1017.65 1152.34 1016.17 1154.36 C 1016.02 1155.87 1015.58 1158.32 1016.19 1159.8 C 1016.92 1161.54 1019.03 1162.98 1020.59 1163.95 C 1029.46 1169.46 1039.46 1173.9 1048.77 1178.67 C 1069.28 1189.18 1089.95 1199.4 1110.33 1210.15 C 1212.62 1264.08 1317.15 1313.88 1419.49 1367.69 C 1423.59 1369.85 1430.98 1372.77 1434.13 1375.9 C 1434.56 1376.34 1435.16 1379.21 1435.39 1379.96 C 1447.32 1386.49 1466.53 1389.82 1480.17 1396.09 C 1472.63 1399.18 1465.01 1402.13 1457.56 1405.43 C 1443 1411.88 1435.79 1419.42 1430.12 1434.16 C 1409.11 1427.07 1388.31 1419.67 1367.84 1411.13 C 1356.3 1406.31 1345.27 1400.34 1333.7 1395.64 C 1311.24 1386.51 1287.57 1384.95 1263.62 1385.05 C 1254.97 1370.04 1242.34 1354.81 1228.42 1344.39 C 1215.63 1334.82 1200.65 1327.56 1186.63 1319.91 L 1114.68 1281.22 L 959.045 1199.75 C 927.763 1183.14 896.353 1166.77 864.819 1150.64 C 893.564 1137.21 921.138 1119.08 948.965 1103.69 L 1102.11 1020.78 z"/>
<path transform="translate(0,0)" fill="rgb(254,254,254)" d="M 1210.91 1481.93 C 1212.21 1482.42 1211.6 1482.08 1212.88 1483.16 C 1224.68 1493.11 1237.62 1500.37 1252.64 1504.15 C 1287.42 1512.92 1312.77 1500.7 1342.07 1483.35 C 1348.34 1487.65 1354.67 1491.92 1360.7 1496.55 C 1369.08 1502.99 1384.44 1514.9 1385.7 1526.09 C 1387.72 1543.97 1388.64 1744.39 1385.48 1752.48 C 1380.27 1765.85 1360.48 1774.3 1348.25 1779.44 C 1309.68 1793.86 1248.25 1795.23 1208.88 1782.99 C 1193.51 1778.21 1171.3 1768.09 1163.9 1752.97 C 1162.16 1749.42 1161.73 1745.9 1161.51 1741.97 C 1159.42 1704.99 1161.51 1667.04 1161.78 1629.99 C 1162.02 1597.27 1160.48 1563.92 1161.88 1531.27 C 1162.02 1527.87 1162.4 1524.4 1163.63 1521.2 C 1171.07 1501.72 1193.23 1490.15 1210.91 1481.93 z"/>
<path transform="translate(0,0)" fill="rgb(22,31,66)" d="M 1372.84 1591.99 C 1374.53 1604.79 1373.15 1619.67 1373.13 1632.63 L 1372.97 1717.68 C 1359.39 1727.22 1341.58 1733.35 1325.6 1737.31 C 1286.24 1747.06 1244.39 1743.25 1205.67 1732.6 C 1195.71 1729.86 1185.13 1727 1176.21 1721.61 C 1176.77 1679.34 1176.89 1637.07 1176.57 1594.8 C 1192.22 1604.08 1209.31 1610.66 1227.15 1614.27 C 1274.95 1624.14 1331.36 1619.27 1372.84 1591.99 z"/>
<path transform="translate(0,0)" fill="rgb(22,31,66)" d="M 1370.53 1534.88 L 1371.35 1535.06 C 1374.56 1539.09 1373 1565.28 1372.98 1571.72 C 1362.29 1580.45 1348.52 1586.36 1335.35 1590.19 C 1290.52 1603.22 1221.64 1600.65 1180.61 1577.95 C 1179.75 1577.3 1178.84 1576.69 1178.14 1575.85 C 1175.09 1572.17 1176.75 1544.55 1176.79 1538.22 C 1185.47 1542.62 1194.45 1546.35 1203.69 1549.39 C 1259.02 1566.91 1319.05 1561.69 1370.53 1534.88 z"/>
<path transform="translate(0,0)" fill="rgb(22,31,66)" d="M 1175.32 1731.88 C 1180.18 1734.47 1185.18 1736.79 1190.29 1738.85 C 1250.5 1762.48 1316.41 1756.6 1374.77 1731.2 C 1375.02 1739.24 1376.77 1750.83 1373.6 1758.33 C 1345.88 1778.65 1299.1 1782.88 1265.81 1781.81 C 1243.86 1781.11 1193.14 1777.64 1178.44 1760.68 C 1172.8 1754.18 1174.99 1739.91 1175.32 1731.88 z"/>
<path transform="translate(0,0)" fill="rgb(254,254,254)" d="M 1152.52 1325.91 C 1158.07 1326.57 1164.77 1330.82 1169.87 1333.37 C 1202.58 1349.75 1219.29 1363.88 1244.27 1389.97 C 1225.04 1393.36 1200.79 1400.67 1187.35 1415.75 C 1181.31 1422.54 1177.87 1430.83 1178.56 1439.99 C 1179.58 1453.63 1188.62 1462.83 1198.17 1471.45 C 1186.44 1478.14 1175.46 1485.96 1165.76 1495.39 C 1158.59 1502.36 1151.67 1510.62 1148.91 1520.41 C 1144.45 1536.23 1146.99 1557.32 1147.08 1573.75 C 1147.4 1601.79 1147.49 1629.82 1147.37 1657.85 C 1131.94 1674.98 1104.49 1693.46 1085.2 1706.89 C 1004.02 1763.44 936.618 1800.83 840.602 1826.98 C 806.516 1834.99 775.143 1840.68 740.183 1843.25 C 759.851 1834.27 780.529 1828.41 799.966 1818.6 C 950.567 1742.59 1019.46 1625.54 1071.72 1470.58 C 1079.91 1446.29 1084.62 1421.04 1092.7 1396.77 C 1103.69 1363.77 1121.24 1341.48 1152.52 1325.91 z"/>
<path transform="translate(0,0)" fill="rgb(254,254,254)" d="M 1511.13 1143.7 C 1523.06 1149.67 1534.61 1157.12 1546.3 1163.61 L 1624.01 1206.57 C 1681.33 1238.39 1739.62 1268.43 1797.14 1299.88 L 1868.6 1339.16 C 1886.07 1348.94 1903.14 1359.16 1921 1368.22 C 1886.56 1392.7 1845.09 1410.48 1808.01 1430.91 L 1710.27 1484.25 C 1684.01 1498.87 1653.84 1519 1625.61 1527.99 C 1623.66 1526.69 1623.78 1526.51 1623.1 1524.24 C 1624.46 1518.49 1628.74 1514.19 1631.57 1509.11 C 1632.85 1506.81 1633.81 1504.61 1633.76 1501.93 C 1633.53 1487.45 1620.52 1465.23 1616.11 1450.12 C 1618.48 1444.89 1620.85 1438.75 1626.59 1436.42 C 1634.48 1433.22 1644.32 1439.28 1651.33 1442.53 L 1666.69 1450.92 C 1669.76 1452.59 1672.83 1454.33 1676.33 1453.28 C 1676.61 1452.37 1676.85 1451.78 1676.81 1450.76 C 1676.58 1445.35 1671.37 1439.75 1667.81 1436.01 C 1660.54 1428.35 1644.29 1413.45 1633.17 1413.62 C 1623.48 1413.77 1616.51 1421.63 1610.14 1427.95 L 1609.19 1427.72 C 1609.09 1426.3 1608.89 1424.54 1609.18 1423.14 C 1610.58 1416.43 1620.74 1407.92 1626.32 1404.37 C 1645.97 1391.86 1670.74 1402.7 1691.04 1407.61 L 1692.45 1405.35 C 1692.35 1403.9 1692.41 1403.72 1691.89 1402.16 C 1687.88 1390.12 1656.05 1371.22 1644.53 1366.21 C 1644.79 1366.03 1645.05 1365.84 1645.31 1365.66 C 1653.04 1360.45 1663.72 1354.32 1673.25 1354.47 C 1692.44 1354.76 1757.83 1394.71 1785.21 1399.26 C 1788.48 1399.8 1790.85 1399.89 1793.58 1397.95 L 1793.77 1395.59 C 1787.35 1385.94 1657.72 1325.53 1639.97 1319.79 C 1641.97 1316.51 1644.77 1312.77 1644.07 1308.78 C 1634.84 1303.48 1613.04 1329.21 1606.75 1329.04 C 1606.12 1327.95 1605.51 1326.91 1605.15 1325.69 C 1599.61 1307.17 1619.41 1280.01 1627.26 1264.61 C 1611.83 1268.25 1600.77 1278.54 1589.15 1288.66 C 1573.06 1281.04 1557.15 1273 1541.17 1265.14 C 1537.09 1257.57 1534.12 1249.25 1530.88 1241.29 C 1526.47 1230.49 1521.47 1219.64 1518.53 1208.34 C 1513.82 1190.17 1512.62 1162.67 1511.13 1143.7 z"/>
<path transform="translate(0,0)" fill="rgb(254,254,254)" d="M 894.069 504.288 C 906.899 509.307 921.103 519.496 933.438 526.299 C 956.649 539.099 980.466 550.855 1004.07 562.927 C 1056.54 589.766 1111.46 612.498 1165.39 636.266 C 1199.83 691.213 1232.24 747.406 1262.56 804.731 C 1274.95 827.688 1289.15 851.134 1299.29 875.143 C 1275.78 867.163 1248.91 850.544 1226.59 838.583 C 1178.08 812.591 1047.1 744.001 1014.46 707.444 C 983.94 673.27 961.885 626.182 939.559 586.129 C 924.398 558.932 908.086 532.075 894.069 504.288 z"/>
<path transform="translate(0,0)" fill="rgb(254,254,254)" d="M 656.476 125.055 C 671.147 129.795 699.567 147.293 714.548 155.682 C 829.939 220.302 919.812 310.047 1002.61 411.723 C 1031.14 446.759 1058.68 482.138 1084.83 518.998 C 1101.4 542.346 1119.25 565.048 1134.51 589.282 C 1124.99 586.069 1111.77 575.839 1102.61 570.489 C 1053.15 541.576 1004.04 512.297 956.571 480.134 C 933.463 464.478 911.007 447.699 888.503 431.193 C 872.916 419.759 852.731 407.725 840.036 393.125 C 828.952 380.378 820.047 356.447 811.951 341.052 C 798.548 315.047 783.932 289.685 768.151 265.05 C 749.163 235.758 729.907 205.451 706.945 179.094 C 696.559 167.313 685.943 155.736 675.103 144.371 C 668.942 138.021 661.942 131.987 656.476 125.055 z"/>
<path transform="translate(0,0)" fill="rgb(22,31,66)" d="M 786.377 247.894 C 787.808 248.403 787.819 248.357 789.384 249.208 C 805.022 257.713 829.623 297.074 835.175 313.52 C 834.332 313.383 833.971 313.385 833.14 312.903 C 826.57 309.09 788.495 255.847 786.377 247.894 z"/>
<path transform="translate(0,0)" fill="rgb(254,254,254)" d="M 979.425 366.855 C 988.274 372.09 996.062 381.452 1003.38 388.73 C 1034.63 419.825 1063.28 452.587 1091.79 486.164 C 1176.44 586.394 1251.57 694.284 1316.22 808.44 C 1356.68 880.218 1391.74 954.791 1425.73 1029.77 C 1446.96 1075.44 1467.33 1121.5 1486.82 1167.94 L 1562.7 1352.88 C 1574.82 1382.61 1585.31 1413.58 1599.24 1442.51 L 1587.5 1448.95 C 1579.05 1453.41 1570.62 1457.37 1561.83 1461.11 C 1551.86 1438.97 1544.46 1415.38 1535.16 1392.89 L 1452.89 1192.73 C 1444.51 1172.08 1435.43 1151.71 1426.93 1131.11 C 1393.99 1049.16 1358.47 968.279 1320.42 888.578 C 1270.98 787.7 1215.45 689.929 1154.12 595.808 C 1113.73 534.45 1068.69 475.413 1022.78 418.116 C 1009.02 400.945 993.406 385.013 980.045 367.672 L 979.425 366.855 z"/>
<path transform="translate(0,0)" fill="rgb(254,254,254)" d="M 1055.44 272.256 C 1068.18 279.345 1080.44 290.361 1092.11 299.259 C 1130.54 328.568 1168.32 358.651 1202.58 392.863 C 1215.8 406.071 1230.52 421.001 1238.05 438.359 C 1255.21 477.936 1259.96 565.616 1264.13 611.88 C 1266.99 643.599 1271.01 676.304 1271 708.137 C 1259.69 694.914 1251.12 677.349 1241.4 662.757 C 1224.26 637.031 1205.78 612.153 1187.68 587.096 C 1168.44 560.071 1148.16 533.808 1126.88 508.366 C 1113.96 492.779 1099.93 477.888 1087.61 461.848 C 1085.16 432.281 1078.37 401.957 1072.76 372.804 C 1066.41 339.39 1060.64 305.869 1055.44 272.256 z"/>
<path transform="translate(0,0)" fill="rgb(254,254,254)" d="M 1305.25 509.808 C 1311.16 515.658 1316.41 524.599 1321.22 531.496 C 1345.36 566.121 1366.17 602.73 1385.88 640.008 C 1394.74 656.78 1399.61 672.515 1402.1 691.362 C 1405.71 718.598 1405.29 746.392 1405.41 773.815 C 1405.57 819.693 1404.89 865.571 1403.37 911.425 C 1403.13 920.941 1404.91 939.698 1402.45 947.684 L 1401.45 946.739 C 1378.85 898.319 1354.57 850.706 1328.63 803.989 C 1318.96 786.833 1308 770.446 1298.43 753.218 C 1301.34 722.995 1302.01 692.426 1303.32 662.098 C 1305.51 611.577 1307.62 560.332 1305.25 509.808 z"/>
<path transform="translate(0,0)" fill="rgb(22,31,66)" d="M 1376.69 691.521 C 1378.36 693.132 1377.97 692.475 1378.99 694.645 C 1386.56 710.748 1384.87 763.294 1378.69 779.61 C 1377.38 778.961 1376.1 778.138 1375.19 776.958 C 1373.67 774.984 1373.4 772.038 1373.38 769.642 C 1373.28 759.573 1374.58 749.335 1374.92 739.25 C 1375.38 725.709 1373.59 703.694 1376.69 691.521 z"/>
<path transform="translate(0,0)" fill="rgb(254,254,254)" d="M 655.16 114.318 C 749.492 119.231 864.88 154.128 945.996 203.052 C 957.029 209.706 969.012 217.179 976.914 227.601 C 996.545 253.493 1033.02 373.127 1042.08 409.491 C 1037.73 407.347 980.443 348.154 971.445 339.735 C 881.2 255.301 770.273 161.386 655.16 114.318 z"/>
<path transform="translate(0,0)" fill="rgb(22,31,66)" d="M 921 208.452 C 923.232 209.5 924.655 210.704 926.377 212.491 C 935.415 221.871 951.172 242.173 950.934 255.61 C 949.892 254.916 948.905 254.225 948.042 253.306 C 942.553 247.467 924.156 221.065 921.393 213.526 C 920.771 211.831 920.885 210.218 921 208.452 z"/>
<path transform="translate(0,0)" fill="rgb(254,254,254)" d="M 1369.14 1426.51 C 1380.92 1430.06 1392.57 1435.14 1404.01 1439.65 C 1426.2 1448.38 1447.62 1456.94 1468.81 1467.92 C 1466.86 1472.76 1465.3 1478.09 1464.4 1483.23 C 1462.16 1496.08 1463.55 1520.51 1471.28 1531.33 L 1472.08 1531.2 C 1474.66 1525.93 1474.95 1519.81 1476.7 1514.22 C 1480.35 1502.6 1487.49 1492 1494.44 1482.13 C 1502.22 1483.85 1509.87 1486.59 1517.47 1488.98 C 1519.58 1504.36 1525.2 1521.22 1536.25 1532.52 C 1537.17 1513.95 1542.45 1496.43 1554.83 1482.22 C 1561.06 1493.43 1568.44 1522.64 1578.24 1528.81 C 1584.7 1532.88 1592.9 1532.53 1599.13 1536.59 L 1599.25 1538.18 C 1594.97 1542.69 1589.38 1545.65 1584.12 1548.89 C 1548.44 1569.62 1511.39 1588.61 1475.11 1608.29 C 1450.22 1621.79 1425.87 1636.35 1400.82 1649.51 C 1400.34 1620.89 1400.7 1592.25 1400.32 1563.62 C 1400.15 1551.08 1401.03 1537.2 1398.63 1524.87 C 1393.95 1500.88 1366.63 1484.73 1347.95 1472.04 C 1354.59 1466.75 1361.65 1461.17 1366.33 1453.98 C 1372.44 1444.59 1371.48 1436.78 1369.14 1426.51 z"/>
<path transform="translate(0,0)" fill="rgb(254,254,254)" d="M 1077.21 822.826 C 1092.04 828.732 1106.6 836.432 1121.12 843.124 C 1153.36 858.108 1185.78 872.686 1218.39 886.856 C 1238.58 895.325 1258.94 903.378 1279.47 911.009 C 1294.12 916.376 1309.34 920.898 1323.42 927.637 C 1346.48 979.317 1371.92 1030.26 1393.55 1082.54 C 1368.23 1071.77 1345.79 1052.72 1321.44 1039.65 C 1296.24 1026.13 1271.59 1012.36 1246.99 997.752 C 1207.56 974.324 1172.68 951.391 1142.95 915.651 C 1118.82 886.652 1098.66 853.852 1077.21 822.826 z"/>
<path transform="translate(0,0)" fill="rgb(254,254,254)" d="M 1146.75 1686 C 1149.65 1690.93 1146.51 1745.29 1147.73 1757.82 L 984.663 1842.72 C 952.749 1859.35 921.029 1877.7 888.107 1892.21 C 857.656 1886.59 827.724 1878.46 798.618 1867.89 C 788.913 1864.8 779.256 1862.35 769.285 1860.26 C 924.17 1840.94 1024.78 1777.1 1146.75 1686 z"/>
<path transform="translate(0,0)" fill="rgb(254,254,254)" d="M 1458.38 783.829 C 1463.48 790.221 1466.89 807.925 1469.34 816.593 C 1483.81 868.682 1490 922.721 1487.7 976.733 C 1486.63 999.13 1482.76 1021.26 1483.16 1043.73 C 1491.58 1018.89 1505.51 996.279 1523.9 977.578 C 1509.28 1009.62 1500.6 1047.29 1496.96 1082.24 C 1493.09 1103.95 1493.88 1127.79 1492.92 1149.85 C 1472.95 1102.07 1450.25 1055.38 1430.88 1007.36 C 1436.08 986.049 1437.25 954.182 1440.05 931.548 C 1446.15 882.264 1453.7 833.285 1458.38 783.829 z"/>
<path transform="translate(0,0)" fill="rgb(254,254,254)" d="M 1263.5 1400.4 C 1288.02 1397.09 1323.31 1401.44 1344.2 1415.67 C 1349.86 1419.52 1354.85 1425.1 1355.98 1432.06 C 1356.84 1437.32 1355.17 1442.24 1351.95 1446.4 C 1338.98 1463.17 1309.5 1466.27 1289.95 1468.88 C 1263.05 1470.07 1228.54 1468.93 1205.49 1453 C 1199.96 1449.18 1194.59 1443.68 1193.55 1436.75 C 1192.88 1432.31 1194.41 1428.26 1197.15 1424.81 C 1209.18 1409.67 1245.15 1402.16 1263.5 1400.4 z"/>
<path transform="translate(0,0)" fill="rgb(22,31,66)" d="M 1266.63 1405.41 C 1286.91 1403.85 1314.66 1407.61 1332.42 1418.13 C 1336.72 1420.68 1341.32 1424.49 1342.3 1429.69 C 1342.92 1432.98 1341.79 1436.09 1339.81 1438.69 C 1329.43 1452.34 1301.42 1456.16 1285.71 1457.93 C 1263.78 1458.66 1235.3 1458.09 1216.24 1445.56 C 1212.17 1442.88 1207.88 1438.82 1207.45 1433.65 C 1207.21 1430.79 1208.36 1427.98 1210.1 1425.77 C 1220.45 1412.59 1250.73 1406.77 1266.63 1405.41 z"/>
<path transform="translate(0,0)" fill="rgb(254,254,254)" d="M 1198.37 1042.1 C 1254.35 1045.92 1320.95 1081.05 1369.46 1107.88 C 1382.46 1115.07 1399.23 1128.6 1413.15 1132.42 C 1421.62 1151.54 1430.39 1171.21 1437.33 1190.93 C 1428.31 1187.07 1419.62 1180 1411.26 1174.78 L 1351.92 1137.78 L 1240.17 1067.91 C 1226.35 1059.16 1211.78 1051.45 1198.37 1042.1 z"/>
<path transform="translate(0,0)" fill="rgb(254,254,254)" d="M 538.878 1783.91 C 539.51 1783.99 540.66 1784.1 541.34 1784.27 C 548.618 1786.1 556.994 1791.47 563.888 1794.67 L 644.128 1832.73 C 667.377 1843.5 690.734 1854.04 714.196 1864.34 C 730.468 1871.37 752.275 1878.37 766.683 1888.41 C 779.624 1897.42 791.963 1912.68 799.601 1926.37 C 783.124 1921.99 748.331 1900.46 731.657 1891.42 C 689.339 1868.31 647.167 1844.93 605.144 1821.29 C 583.044 1808.88 560.663 1796.87 538.878 1783.91 z"/>
<path transform="translate(0,0)" fill="rgb(254,254,254)" d="M 1603.28 1456.87 C 1607.54 1459.66 1619.44 1496.43 1621.54 1503.19 C 1612.81 1511.02 1598.69 1519.87 1586.68 1519.98 C 1577.15 1508.45 1571.13 1489.29 1565.2 1475.52 C 1577.79 1469.04 1590.39 1462.73 1603.28 1456.87 z"/>
<path transform="translate(0,0)" fill="rgb(254,254,254)" d="M 789.762 1887.72 C 799.723 1888.73 811.286 1893.72 821.054 1896.52 C 834.954 1900.49 848.81 1903.52 863.072 1905.88 C 857.53 1908.82 851.895 1911.62 846.309 1914.48 C 837.047 1919.32 827.729 1924.05 818.357 1928.67 C 810.942 1912.66 802.342 1900.19 789.762 1887.72 z"/>
<path transform="translate(0,0)" fill="rgb(254,254,254)" d="M 1620.91 1555.7 C 1624.65 1559.21 1627.89 1564.32 1631.06 1568.45 C 1650.73 1594.06 1651.31 1610.42 1657.04 1641.16 C 1653.11 1635.75 1651.16 1628.9 1647.05 1623.62 C 1642.28 1617.49 1636.08 1612.33 1630.98 1606.44 C 1620.13 1593.91 1622.18 1571.76 1620.91 1555.7 z"/>
<path transform="translate(0,0)" fill="rgb(254,254,254)" d="M 1467.64 1422.37 C 1479.17 1421.78 1486.28 1425.94 1495.82 1431.65 C 1486.89 1437.44 1481.07 1443.57 1474.49 1451.86 C 1471.48 1451.88 1469.01 1450.51 1466.25 1449.39 C 1458.72 1445.98 1450.61 1443.94 1443.19 1440.36 C 1440.37 1438.99 1438.7 1437.79 1437.7 1434.8 C 1438.15 1433.68 1438.14 1433.48 1439.04 1432.42 C 1444.76 1425.68 1459.24 1423.43 1467.64 1422.37 z"/>
<path transform="translate(0,0)" fill="rgb(254,254,254)" d="M 1631.73 1330.88 L 1633.56 1332.69 C 1631.85 1335.6 1618.72 1341.65 1612.29 1351.35 C 1601.61 1367.47 1603.96 1385.94 1607.26 1403.85 L 1601.89 1412.02 L 1600.69 1412.24 C 1595.51 1398.25 1590.21 1384.78 1594.17 1369.64 C 1599.04 1350.99 1615.87 1339.79 1631.73 1330.88 z"/>
<path transform="translate(0,0)" fill="rgb(254,254,254)" d="M 1499.44 1398.15 C 1507.81 1397.17 1515.63 1398.2 1523.93 1399.28 C 1526.3 1404.9 1528.3 1410.67 1530.38 1416.41 C 1518.8 1406.47 1506.65 1407.19 1492.27 1407.74 C 1504.82 1416.1 1520.13 1424.54 1530.64 1435.37 L 1530.05 1436.07 L 1521.19 1435.41 C 1511.45 1437.81 1503.62 1442.81 1494.39 1446.24 C 1495.68 1442.54 1513.04 1434.15 1517.52 1431.63 C 1506.39 1421.84 1493.82 1412.84 1480.31 1406.72 C 1486.61 1403.52 1492.79 1400.56 1499.44 1398.15 z"/>
<path transform="translate(0,0)" fill="rgb(254,254,254)" d="M 1330.81 1473.3 L 1331.56 1474.56 L 1330.72 1476.71 C 1328.91 1477.88 1327.28 1478.72 1325.26 1479.51 C 1299.14 1489.66 1253.44 1489.79 1227.7 1478.11 C 1226.42 1476.78 1225.97 1476.88 1225.93 1474.95 C 1233.4 1473.64 1245.99 1479.21 1254.03 1480.12 C 1279.83 1483.07 1305.8 1479.73 1330.81 1473.3 z"/>
<path transform="translate(0,0)" fill="rgb(254,254,254)" d="M 1548.25 1285.31 C 1558.54 1289.97 1568.73 1294.85 1578.81 1299.94 C 1576.09 1303.67 1573.55 1307.55 1570.93 1311.34 C 1570.24 1313.37 1570.04 1315.28 1569.76 1317.38 C 1559.49 1312.81 1552.77 1294.9 1548.25 1285.31 z"/>
<path transform="translate(0,0)" fill="rgb(254,254,254)" d="M 1595.23 1302.92 C 1595.54 1304.48 1581.31 1343.03 1580.19 1353.28 C 1579.94 1355.49 1579.87 1356.68 1578.99 1358.75 L 1577.97 1357.27 L 1573.6 1344.14 C 1579.62 1329.68 1584.65 1314.76 1595.23 1302.92 z"/>
<path transform="translate(0,0)" fill="rgb(254,254,254)" d="M 1525.66 1459.09 C 1528.63 1458.89 1531.48 1459.05 1534.44 1459.25 L 1534.8 1460.39 C 1530.09 1464.52 1525.35 1468.47 1521.49 1473.44 C 1520.49 1474.73 1519.95 1474.65 1518.44 1475.16 C 1514.18 1473.47 1509.89 1471.88 1505.57 1470.36 C 1512.14 1466.24 1518.54 1462.19 1525.66 1459.09 z"/>
<path transform="translate(0,0)" fill="rgb(254,254,254)" d="M 1635.31 1377.89 C 1644.75 1377.06 1649.66 1380.84 1656.75 1386.41 C 1652.09 1386.04 1647.43 1386.13 1642.77 1386.15 C 1635.36 1387.25 1628.51 1388.9 1621.32 1391.01 C 1625.55 1385.78 1629.83 1381.75 1635.31 1377.89 z"/>
<path transform="translate(0,0)" fill="rgb(254,254,254)" d="M 1646.13 1344.18 C 1648.24 1343.96 1650.64 1344.24 1652.77 1344.29 L 1654.12 1346.26 C 1647.73 1350.52 1639.57 1352.46 1632.78 1356.42 C 1632.39 1356.65 1631.99 1356.88 1631.6 1357.12 C 1629.11 1359.41 1626.5 1361.46 1623.83 1363.53 C 1627.02 1357.56 1630.16 1352.3 1634.72 1347.26 L 1646.13 1344.18 z"/>
</svg>