<svg preserveAspectRatio="xMidYMid meet" version="1.1" xmlns="http://www.w3.org/2000/svg" style="display: block;" viewBox="0 0 2048 2048" width="1024" height="1024">
<path transform="translate(0,0)" fill="rgb(254,254,254)" d="M 0 0 L 2048 0 L 2048 2048 L 0 2048 L 0 0 z"/>
<path transform="translate(0,0)" fill="rgb(16,27,66)" d="M 860.644 66.4216 C 888.182 64.4394 917.195 73.7289 941.322 86.3736 C 957.441 94.8218 969.095 104.995 976.37 122.008 C 981.228 133.369 984.084 145.667 987.442 157.543 L 1004.21 216.652 L 1071.34 446.516 L 1315.02 1261.55 C 1377.84 1238.27 1440.84 1215.45 1504 1193.09 C 1523.18 1186.17 1572.24 1165.01 1589.03 1163.79 C 1589.21 1164.03 1589.42 1164.25 1589.58 1164.51 C 1595.4 1173.41 1598.21 1192.19 1601.27 1202.97 C 1608.72 1228.39 1615.99 1253.87 1623.06 1279.4 C 1632.29 1311.63 1643.44 1343.92 1650.98 1376.57 C 1651.99 1380.97 1652.54 1385 1651.82 1389.5 C 1638.68 1398.08 1621.36 1402.39 1606.58 1407.79 L 1541.55 1431.57 L 1386.64 1488.78 C 1393.57 1511.74 1399.96 1534.85 1405.81 1558.11 C 1409.22 1571.23 1413.68 1584.77 1414.84 1598.32 C 1415.78 1609.85 1414.54 1621.44 1411.18 1632.51 C 1404.34 1654.57 1389.7 1673.94 1369.04 1684.69 C 1351.76 1693.69 1324.09 1702.21 1305.01 1709.19 C 1259.22 1725.62 1213.55 1742.36 1167.99 1759.41 L 825.406 1887.03 C 773.051 1906.22 721.115 1927.87 668.001 1944.81 C 658.849 1947.73 648.841 1948.53 639.274 1948.24 C 606.92 1947.25 575.681 1923.77 544.948 1913.72 C 472.282 1889.97 398.615 1869.3 325.604 1846.61 C 309.121 1842.17 277.441 1835.51 263.838 1827.32 C 262.437 1825.15 262.501 1825.13 262.825 1822.55 L 264.896 1821.07 C 267.99 1820.65 270.477 1820.89 273.53 1821.55 C 284.393 1823.91 295.484 1828.16 306.169 1831.33 C 331.443 1838.72 356.656 1846.31 381.805 1854.12 C 438.541 1871.5 495.613 1887.73 551.988 1906.29 C 543.269 1895.88 539.34 1886.47 535.472 1873.56 C 495.097 1862.7 455.468 1848.86 415.542 1836.47 C 391.788 1829.1 366.764 1823.63 343.619 1814.59 C 341.743 1813.86 340.727 1813.05 339.47 1811.44 C 339.191 1808.6 339.228 1808.61 340.836 1806.25 C 352.255 1805.06 508.901 1856.24 531.588 1862.74 C 528.652 1853.3 526.287 1843.65 523.755 1834.1 C 492.954 1823.39 461.6 1814.63 430.653 1804.39 C 425.779 1802.78 416.603 1801.04 412.44 1798.39 C 411.768 1797.96 411.525 1797.08 411.067 1796.43 C 411.374 1793.79 411.369 1793.64 413.186 1791.71 C 415.736 1790.97 417.692 1790.99 420.257 1791.52 C 429.977 1793.51 439.991 1797.8 449.538 1800.72 L 521.627 1822.72 C 518.86 1813.16 516.031 1803.7 512.66 1794.33 C 503.269 1790.45 484.357 1787.27 477.283 1781.45 C 476.899 1779.23 476.774 1778.82 477.592 1776.76 C 484.12 1773.31 502.478 1780.27 510.017 1782.24 C 503.248 1760.1 497.743 1737.51 491.169 1715.29 L 399.936 1402.14 L 248.912 893.255 C 213.679 778.728 179.599 663.849 146.677 548.637 L 120.677 460.069 C 115.718 443.086 108.11 424.384 106.932 406.671 C 105.275 381.75 111.328 356.166 128.226 337.211 C 137.171 327.178 147.275 320.63 159.517 315.313 C 190.986 301.645 228.727 289.628 261.457 277.738 L 460.419 205.57 L 667.289 129.655 C 700.684 117.062 734.174 104.722 767.756 92.6357 C 798.466 81.5859 827.582 68.4356 860.644 66.4216 z"/>
<path transform="translate(0,0)" fill="rgb(254,254,254)" d="M 892.459 148.215 C 899.442 147.631 906.158 148.595 912.526 151.608 C 922.583 156.367 927.854 164.074 931.775 174.163 C 936.981 187.558 940.691 202.036 944.821 215.825 L 970.469 304.275 L 1036.58 529.44 C 1046.87 564.923 1058.17 600.109 1068.8 635.491 L 1167.15 960.844 L 1208 1095.89 C 1226.04 1157.35 1243.31 1219.2 1263.62 1279.96 L 820.43 1444 L 707.126 1485.02 C 690.768 1491.01 670.168 1496.2 655.538 1505.47 C 654.813 1513.55 710.378 1700.8 717.858 1721.87 C 719.122 1725.43 720.664 1728.24 723.043 1731.16 C 726.32 1732.47 728.613 1731.46 731.922 1730.39 C 775.852 1716.07 818.942 1697.8 862.325 1681.83 L 1191.48 1560.82 C 1238.86 1543.6 1285.66 1524.69 1333.57 1508.95 C 1338.26 1521.39 1354.84 1581.35 1355.44 1593.59 C 1355.83 1601.01 1354.36 1608.41 1351.16 1615.12 C 1341.68 1635.18 1321.72 1640.44 1302.59 1647.18 L 1272.24 1658.02 L 712.414 1867.1 C 698.67 1872.21 686.352 1874.79 672.443 1868.05 C 660.926 1862.47 653.298 1853.07 649.107 1841.17 C 642.983 1823.77 638.954 1805.33 633.81 1787.61 L 598.334 1667.43 L 444.408 1144.45 L 307.945 689.129 L 257.083 526.295 C 248.167 498.169 237.738 470.328 230.168 441.821 C 226.341 427.407 224.003 415.641 231.099 401.577 C 234.992 393.861 240.867 387.198 248.326 382.794 C 266.134 372.276 289.064 367.06 308.588 359.996 C 349.217 345.294 389.59 330.014 430.405 315.825 C 433.182 319.034 436.03 322.181 438.948 325.262 C 453.807 340.69 471.339 349.801 493.018 350.049 C 499.924 350.128 506.782 349.398 513.438 347.529 C 534.751 341.542 555.78 332.224 576.652 324.73 C 605.528 314.362 635.661 305.101 663.731 292.813 C 668.58 290.69 674.882 287.89 678.483 283.987 C 694.623 266.496 695.991 240.26 695.398 217.835 C 711.652 212.966 727.712 206.46 743.707 200.735 C 773.126 190.29 802.491 179.694 831.802 168.95 C 850.44 162.043 873.161 151.04 892.459 148.215 z"/>
<path transform="translate(0,0)" fill="rgb(16,27,66)" d="M 524.496 363.164 C 535.138 362.094 544.251 362.769 552.883 369.777 C 560.787 376.195 566.003 386.528 566.677 396.669 C 567.485 408.834 561.643 418.314 553.863 427 C 559.581 441.851 564.841 456.875 569.637 472.049 C 584.014 465.221 598.489 458.602 613.057 452.191 C 669.108 427.703 725.339 413.15 786.642 412.6 C 814.678 412.349 842.535 414.818 868.81 425.315 C 879.829 429.717 889.579 435.587 899.068 442.677 C 924.838 461.933 928.816 477.288 941.085 505.945 C 945.245 506.653 949.349 507.664 953.363 508.97 C 973.166 515.348 990.393 530.681 999.761 549.151 C 1008.85 567.07 1010.91 589.204 1004.53 608.349 C 999.123 624.535 988.459 637.638 973.127 645.26 C 973.123 658.843 971.723 671.732 967.677 684.753 C 948.248 747.272 893.916 788.493 838.441 817.727 C 839.659 823.378 841.005 829.008 842.299 834.642 C 845.714 834.677 849.127 834.792 852.537 834.987 C 873.9 836.42 890.422 845.632 910.308 851.447 C 923.157 855.204 935.711 856.357 947.656 862.978 C 957.613 868.496 965.224 876.048 972.725 884.483 C 988.127 885.807 1001.73 890.499 1013.95 900.13 C 1025.1 908.918 1033.48 921.014 1038.57 934.223 C 1044.41 949.376 1042.6 964.911 1045.67 980.523 C 1051.1 1008.09 1061.01 1035.26 1064.21 1063.2 C 1051.11 1070.18 1035.94 1074.97 1022.03 1080.15 C 990.519 1091.9 958.637 1102.56 927.13 1114.24 L 587.225 1239.06 C 597.927 1277.67 609.26 1316.1 621.219 1354.34 C 629.27 1381.02 636.348 1408 645.813 1434.22 C 661.051 1429.51 676.111 1422.6 690.988 1416.77 C 717.476 1406.42 744.047 1396.29 770.698 1386.37 L 993.82 1303.29 C 1048.6 1282.33 1103.58 1261.89 1158.75 1241.97 C 1154.15 1220.72 1147.07 1199.7 1141.07 1178.8 C 1135.27 1158.63 1130.33 1138.09 1123.7 1118.18 C 1098.73 1123.97 1069.43 1137.2 1044.98 1146.48 L 916.243 1194.48 C 902.726 1200.02 888.588 1204.44 874.919 1209.66 C 838.711 1223.68 802.369 1237.36 765.896 1250.68 L 709.384 1271.18 C 700.959 1274.29 692.979 1278 684.365 1280.75 C 680.619 1281.94 676.732 1283.29 672.789 1282.43 L 672.551 1280.85 C 674.071 1278.57 675.525 1277.41 677.963 1276.26 C 690.82 1270.19 705.665 1265.87 719.072 1260.86 L 820.827 1223.23 L 1019.46 1149.08 C 1051.17 1137.3 1082.66 1124.69 1114.62 1113.6 C 1118.43 1112.28 1127.31 1108.74 1130.98 1110.12 C 1133.34 1113.36 1134.78 1116.82 1136.03 1120.61 C 1144.68 1146.94 1151.18 1174.1 1158.8 1200.75 C 1162.53 1213.84 1170.32 1232.06 1170.67 1245.07 C 1170.72 1246.9 1170.85 1247.52 1169.42 1248.69 C 1164.15 1252.98 1081.39 1281.77 1067.32 1287.02 L 734.155 1412.1 L 670.208 1436.55 C 662.832 1439.38 655.57 1443.25 648.134 1445.71 C 645.16 1446.69 642.803 1447.09 639.679 1446.95 C 633.652 1441.32 576.521 1250.48 575.258 1232.22 C 589.283 1224.64 623.859 1214.25 641.028 1207.91 L 626.703 1132.63 C 624.516 1121.28 623.33 1106.73 618.88 1096.11 C 615.573 1088.21 609.417 1081.55 605.74 1073.8 C 598.083 1057.67 598.287 1036.81 604.236 1020.2 C 611.577 999.712 624.774 985.041 644.289 975.652 C 641.722 959.472 646.188 940.584 653.651 926.165 C 665.106 904.035 686.519 890.846 709.706 883.378 C 713.348 876.222 717.447 870.466 724.019 865.724 C 725.888 864.375 727.272 863.404 728.628 861.493 C 728.524 860.539 728.469 858.624 728.064 857.675 C 727.973 857.46 727.069 855.851 726.663 855.645 C 725.978 855.296 686.003 861.917 681.087 862.361 C 637.061 866.334 588.784 863.834 546.362 851.078 C 507.843 839.495 471.776 816.222 452.534 780.117 C 438.305 753.419 430.321 720.055 433.793 689.789 C 434.966 679.565 438.544 669.141 438.147 658.801 C 437.881 651.895 436.266 644.84 435.503 637.953 C 433.617 620.927 433.108 601.5 438.201 584.954 C 450.783 544.079 507.27 506.997 543.845 487.492 C 538.694 470.016 533.26 452.624 527.545 435.324 C 523.92 434.256 520.192 433.105 516.773 431.488 C 508.07 427.371 501.198 419.101 498.164 410.038 C 495.084 400.841 495.613 390.275 500.158 381.642 C 505.356 371.769 514.244 366.5 524.496 363.164 z"/>
<path transform="translate(0,0)" fill="rgb(254,254,254)" d="M 882.62 462.592 C 889.137 461.98 901.245 459.959 907.018 463.159 C 916.463 468.394 929.899 509.183 933.911 520.202 C 954.267 576.11 977.628 642.427 950.468 699.875 C 922.15 759.771 854.919 803.672 793.892 824.943 C 767.1 834.281 741.362 840.808 714.76 828.078 C 701.506 819.356 692.661 808.693 684.987 794.84 C 667.277 762.869 657.266 727.274 647.477 692.321 C 643.336 677.536 638.474 662.782 635.001 647.828 C 629.039 622.166 622.703 577.677 629.751 552.757 C 640.161 541.783 655.967 534.319 669.339 527.415 C 734.748 493.647 809.2 469.687 882.62 462.592 z"/>
<path transform="translate(0,0)" fill="rgb(16,27,66)" d="M 710.187 563.122 C 715.199 562.728 720.085 562.742 724.931 564.258 C 740.849 569.239 751.723 582.645 758.863 597.069 C 768.749 617.042 775.42 645.824 767.612 667.531 C 764.113 677.26 758.551 682.656 749.281 686.853 C 744.355 687.962 740.007 688.037 735.107 686.616 C 720.803 682.47 709.818 669.257 702.663 656.755 C 691.309 636.915 684.715 609.099 691.312 586.672 C 694.538 575.704 700.116 568.408 710.187 563.122 z"/>
<path transform="translate(0,0)" fill="rgb(136,176,237)" d="M 713.803 570.298 C 722.199 570.256 730.977 573.375 737.751 578.434 C 739.452 579.704 739.883 579.883 740.227 582.032 C 737.237 580.569 734.018 579.218 730.613 580.051 C 727.46 580.822 724.612 583.25 722.85 585.904 C 716.869 594.918 717.956 609.729 720.295 619.907 C 722.991 631.641 729.602 647.388 740.381 653.586 C 744.14 655.747 747.88 656.046 752.018 654.859 C 758.274 653.064 760.344 648.302 763.257 643.064 C 763.338 649.104 763.12 655.144 762.965 661.182 C 762.63 662.634 762.307 664.065 761.821 665.476 C 759.94 670.935 755.884 677.021 750.411 679.384 C 745.44 681.531 739.983 680.408 735.214 678.276 C 719.63 671.31 709.383 654.647 703.437 639.294 C 697.293 623.43 692.211 598.529 699.961 582.487 C 702.98 576.237 707.234 572.394 713.803 570.298 z"/>
<path transform="translate(0,0)" fill="rgb(254,254,254)" d="M 732.656 584.648 C 737.552 585.847 740.835 587.125 744.409 590.769 C 753.52 600.057 759.032 617.084 758.975 629.984 C 758.941 637.933 757.041 642.615 751.496 648.206 C 747.505 648.63 744.622 647.806 741.589 645.205 C 732.172 637.133 727.26 621.025 726.259 608.93 C 725.493 599.673 726.631 591.893 732.656 584.648 z"/>
<path transform="translate(0,0)" fill="rgb(16,27,66)" d="M 872.172 517.016 C 874.54 516.902 876.804 516.983 879.132 517.44 C 892.675 520.094 903.682 531.309 910.811 542.603 C 923.593 562.848 929.021 591.865 923.126 615.232 C 920.401 626.038 915.623 634.003 905.967 639.741 C 901.295 640.468 897.374 640.767 892.887 638.988 C 878.558 633.309 867.878 616.788 861.86 603.178 C 853.257 583.725 847.979 553.679 856.267 533.356 C 859.614 525.149 864.137 520.557 872.172 517.016 z"/>
<path transform="translate(0,0)" fill="rgb(136,176,237)" d="M 872.028 523.811 C 881.894 523.624 888.462 528.014 896.398 533.23 C 891.986 534.574 888.534 535.664 885.421 539.202 C 879.116 546.369 878.292 556.631 879.174 565.709 C 880.359 577.917 884.588 594.534 894.74 602.265 C 897.927 604.692 901.722 605.95 905.73 605.246 C 911.565 604.22 914.593 598.838 917.642 594.33 C 917.906 601.646 917.368 608.545 916.013 615.725 C 914.421 620.667 912.975 626.046 908.88 629.564 C 906.253 631.829 902.811 632.915 899.36 632.569 C 891.618 631.795 885.09 625.056 880.511 619.274 C 865.34 600.112 856.828 570.112 860.287 545.83 C 861.636 536.358 864.374 529.659 872.028 523.811 z"/>
<path transform="translate(0,0)" fill="rgb(254,254,254)" d="M 891.713 540.622 C 895.171 540.647 897.887 540.687 900.837 542.807 C 909.347 548.923 913.678 561.456 915.102 571.535 C 916.477 581.266 915.459 590.488 909.336 598.375 C 908.152 598.587 906.968 598.794 905.768 598.897 C 902.644 599.166 900.376 597.624 898.189 595.581 C 889.911 587.846 886.612 572.664 886.031 561.627 C 885.601 553.471 886.12 546.882 891.713 540.622 z"/>
<path transform="translate(0,0)" fill="rgb(16,27,66)" d="M 883.066 677.06 L 885.364 677.432 C 887.353 679.094 888.291 680.22 888.858 682.828 C 891.783 696.286 883.19 718.941 876.211 730.515 C 868.307 743.622 856.237 753.811 841.06 757.315 C 822.98 761.491 806.907 754.917 791.989 745.419 C 785.385 740.558 778.175 733.557 773.74 726.644 C 771.313 722.859 770.075 719.688 771.098 715.205 C 778.593 709.889 867.534 682.091 883.066 677.06 z"/>
<path transform="translate(0,0)" fill="rgb(242,110,111)" d="M 876.491 690.92 C 877.601 690.933 876.791 690.87 878.801 691.695 C 880.56 699.87 872.963 717.371 868.573 724.309 C 861.785 735.035 852.29 743.8 839.599 746.65 C 823.953 750.163 810.435 744.504 797.468 736.413 C 791.506 731.828 786.3 727.291 782.073 720.953 C 814.002 712.913 845.203 701.185 876.491 690.92 z"/>
<path transform="translate(0,0)" fill="rgb(254,254,254)" d="M 773.644 423.435 C 812.191 421.536 860.371 425.539 891.181 450.892 C 808.424 459.525 725.248 482.173 652.868 524.105 C 643.818 529.348 629.238 536.07 622.904 544.233 C 608.896 562.288 619.471 615.279 622.943 636.471 C 607.483 613.14 586.355 595.027 559.959 585.598 C 545.261 582.016 530.909 581.475 516.218 585.588 C 498.317 590.599 472.965 608.638 460.489 622.225 C 454.289 628.978 449.716 636.179 445.276 644.173 C 444.246 610.58 444.592 581.954 468.194 555.722 C 513.2 505.701 624.03 454.056 688.805 436.546 C 716.899 428.951 744.601 424.897 773.644 423.435 z"/>
<path transform="translate(0,0)" fill="rgb(254,254,254)" d="M 921.69 867.918 C 930.488 866.534 940.078 870.473 947.312 875.163 C 956.242 880.953 963.405 889.286 968.455 898.595 C 989.65 937.663 1002.7 1025.54 1013.06 1072.52 L 993.713 1078.71 C 993.598 1077.93 993.49 1077.14 993.352 1076.36 C 990.077 1057.91 984.59 1039.51 979.943 1021.36 C 974.811 1001.32 971.09 979.08 961.892 960.518 C 956.437 949.51 948.445 938.682 938.202 931.707 C 928.743 925.266 917.81 920.502 906.223 922.899 C 891.017 926.043 825.486 951.826 813.218 960.346 C 807.817 964.097 803.543 969.257 799.992 974.749 C 776.233 1011.48 797.536 1066.59 805.942 1106.79 L 814.466 1144.01 C 795.76 1152.29 775.848 1158.51 756.579 1165.38 C 751.416 1137.14 745.219 1108.62 742.14 1080.06 C 741.037 1069.84 742.426 1060.17 742.814 1049.97 C 743.631 1028.52 741.985 1001.85 732.122 982.452 C 725.303 969.045 713.881 960.164 699.598 955.907 C 682.493 950.808 669.237 956.684 654.472 964.673 C 656.155 954.06 657.962 943.344 662.492 933.513 C 671.735 913.456 689.079 902.84 709.117 895.565 C 709.954 898.991 710.685 902.48 712.007 905.762 C 716.131 916 723.873 923.605 734.204 927.466 C 745.464 931.674 757.941 931.702 769.649 929.644 C 794.749 925.232 816.743 914.015 839.911 904.14 C 867.383 892.43 894.626 880.558 921.69 867.918 z"/>
<path transform="translate(0,0)" fill="rgb(254,254,254)" d="M 500.704 609.252 C 516.104 608.261 529.13 610.796 542.676 618.28 C 573.759 635.454 592.884 670.385 602.123 703.546 C 610.166 732.417 610.988 766.718 595.691 793.404 C 585.675 810.876 571.085 821.516 551.758 826.655 C 534.802 829.618 519.143 826.409 504.206 817.998 C 474.576 801.314 456.975 772.247 448.265 739.987 C 439.716 708.319 441.265 672.16 458.042 643.254 C 467.605 626.778 482.168 614.25 500.704 609.252 z"/>
<path transform="translate(0,0)" fill="rgb(16,27,66)" d="M 509.921 637.337 C 523.152 637.011 535.843 643.199 545.788 651.546 C 568.186 670.344 582.318 703.117 584.643 731.887 C 586.223 751.442 582.906 773.225 569.576 788.452 C 561.253 797.96 551.172 802.359 538.809 803.404 C 526.166 802.967 514.818 799.13 504.618 791.718 C 481.041 774.586 468.227 746.704 463.877 718.529 C 460.613 697.384 463.085 675.138 476.183 657.562 C 484.739 646.081 495.836 639.351 509.921 637.337 z"/>
<path transform="translate(0,0)" fill="rgb(242,110,111)" d="M 504.21 647.184 C 512.652 646.36 519.899 647.029 527.723 650.48 C 547.765 659.322 561.799 680.958 569.229 700.771 C 577.205 722.043 579.693 749.937 569.818 771.026 C 564.101 783.235 555.974 789.835 543.584 794.227 C 536.7 795.135 530.513 794.312 523.969 791.944 C 504.452 784.882 489.738 766.092 481.473 747.727 C 471.82 726.279 467.793 698.98 476.517 676.561 C 481.912 662.695 490.573 653.211 504.21 647.184 z"/>
<path transform="translate(0,0)" fill="rgb(254,254,254)" d="M 513.829 679.186 C 518.142 678.734 522.717 678.461 527.042 678.938 C 539.809 680.349 549.712 686.637 557.669 696.461 C 556.095 699.382 554.336 703.455 551.88 705.652 C 544.538 712.219 532.504 693.238 519.842 692.547 C 516.477 692.363 513.481 693.404 511.029 695.721 C 507.795 698.777 503.906 705.007 504.332 709.628 C 505.718 724.675 546.425 712.428 561.06 727.546 C 565.357 731.986 566.784 737.595 566.486 743.645 C 565.968 754.181 559.758 761.232 552.238 767.824 C 543.816 772.46 540.549 773.06 531.418 770.751 C 525.566 769.271 522.662 771.08 517.081 771.561 C 514.161 771.813 512.994 771.115 510.683 769.46 C 509.231 766.806 508.535 764.668 508.232 761.636 C 507.917 758.483 508.075 755.1 510.583 752.777 C 516.977 746.854 529.929 756.612 538.049 756.149 C 542.119 755.917 547.212 753.981 549.666 750.524 C 551.097 748.507 551.521 746.316 550.873 743.911 C 547.034 729.67 513.981 738.151 500.975 730.756 C 495.563 727.679 491.993 722.747 490.415 716.757 C 488.439 709.253 488.655 698.102 492.949 691.402 C 497.7 683.99 505.678 681.12 513.829 679.186 z"/>
<path transform="translate(0,0)" fill="rgb(242,110,111)" d="M 824.737 1141.47 C 820.293 1123.14 816.519 1104.62 812.276 1086.24 C 806.893 1062.92 799.487 1038.61 799.39 1014.53 C 799.347 1003.75 801.109 993.082 806.304 983.497 C 809.883 976.742 815.08 970.98 821.431 966.726 C 835.462 957.381 854.388 953.163 870.079 946.942 C 880.857 942.669 891.816 936.594 903.017 933.659 C 912.749 931.11 921.346 932.706 929.861 938.045 C 958.182 955.803 963.424 995 970.583 1024.72 C 975.326 1044.04 979.844 1063.42 984.135 1082.84 C 966.204 1090.22 948.09 1096.47 929.628 1102.39 C 931.436 1095.54 932.595 1089.13 932.884 1082.04 C 930.814 1073.22 927.099 1066.67 919.266 1061.78 C 914.87 1059.04 910.069 1057.89 905.109 1056.65 C 895.721 1059.03 888.224 1062.75 883.027 1071.43 C 879.04 1078.1 877.547 1086.7 878.729 1094.35 C 878.825 1095.32 878.806 1095.44 879.093 1096.54 C 881.54 1105.97 887.931 1110.22 895.986 1114.55 C 872.816 1124.73 848.445 1132.59 824.737 1141.47 z"/>
<path transform="translate(0,0)" fill="rgb(16,27,66)" d="M 863.249 1010.6 C 865.934 1002.37 871.996 995.669 879.917 992.179 C 887.839 988.689 896.872 988.736 904.756 992.309 C 919.674 999.07 926.57 1016.42 920.362 1031.58 C 914.154 1046.73 897.067 1054.26 881.693 1048.61 C 866.319 1042.97 858.169 1026.17 863.249 1010.6 z"/>
<path transform="translate(0,0)" fill="rgb(254,254,254)" d="M 868.84 1008.79 C 874.056 997.872 886.172 992.052 897.958 994.808 C 908.601 997.296 916.516 1006.23 917.706 1017.09 C 918.895 1027.96 913.101 1038.39 903.249 1043.12 C 893.397 1047.86 881.631 1045.86 873.893 1038.14 C 866.156 1030.42 864.131 1018.66 868.84 1008.79 z"/>
<path transform="translate(0,0)" fill="rgb(254,254,254)" d="M 664.204 984.35 C 698.095 980.029 729.076 1003.99 733.417 1037.88 C 737.758 1071.77 713.817 1102.76 679.931 1107.12 C 646.017 1111.49 614.99 1087.52 610.646 1053.6 C 606.301 1019.69 630.285 988.675 664.204 984.35 z"/>
<path transform="translate(0,0)" fill="rgb(242,110,111)" d="M 531.007 593.316 C 532.661 593.154 534.318 593.03 535.978 592.945 C 556.818 591.972 578.435 602.924 593.262 616.907 C 624.304 646.181 639.667 688.849 640.738 730.939 C 641.51 761.306 635.517 793.025 613.747 815.656 C 596.342 833.749 576.268 838.744 551.938 839.09 L 547.406 837.914 L 548.584 836.444 C 560.269 836.39 570.318 832.025 579.867 825.499 C 599.705 811.943 611.462 789.416 615.553 766.119 C 622.657 725.658 608.599 678.163 585.096 645.119 C 566.668 619.212 541.947 603.69 510.734 598.475 C 517.479 596.38 524.036 594.488 531.007 593.316 z"/>
<path transform="translate(0,0)" fill="rgb(254,254,254)" d="M 633.082 1105.49 C 640.236 1110.09 647.171 1114.21 655.362 1116.69 C 673.356 1122.15 692.069 1118.21 708.259 1109.5 C 710.856 1132.7 715.645 1155.98 719.578 1179 L 708.733 1182.93 C 689.818 1190.34 670.694 1197.26 651.725 1204.53 C 643.918 1171.83 639.986 1138.37 633.082 1105.49 z"/>
<path transform="translate(0,0)" fill="rgb(254,254,254)" d="M 652.245 746.71 C 655.713 750.123 660.918 769.15 663.316 774.718 C 678.357 809.642 691.339 831.152 727.398 845.445 C 703.546 850.926 678.032 853.232 653.628 853.991 C 628.022 854.297 602.436 852.413 577.152 848.358 C 590.774 843.497 603.057 838.388 614.327 829.138 C 640.438 807.707 649.242 779.042 652.245 746.71 z"/>
<path transform="translate(0,0)" fill="rgb(254,254,254)" d="M 846.872 843.945 C 869.571 846.999 887.603 853.318 908.008 863.456 C 889.383 871.33 870.834 879.383 852.364 887.613 C 822.697 900.893 775.447 926.544 742.798 918.902 C 737.415 917.3 731.866 915.031 727.871 910.95 C 720.566 903.486 720.933 893.243 720.964 883.556 C 724.547 879.333 728.345 876.542 733 873.656 C 735.141 881.15 737.575 889.721 743.308 895.299 C 753.644 905.356 771.989 906.456 785.686 906.022 C 806.829 905.354 835.603 896.709 850.135 880.551 C 854.676 875.502 858.011 869.11 857.476 862.146 C 856.893 854.556 852.27 848.853 846.872 843.945 z"/>
<path transform="translate(0,0)" fill="rgb(242,110,111)" d="M 944.227 516.774 C 951.359 518.958 957.933 521.423 964.258 525.444 C 980.124 535.618 991.178 551.799 994.885 570.278 C 998.748 588.963 995.357 606.219 984.999 622.144 C 981.157 626.697 977.099 630.168 972.284 633.618 C 969.71 592.355 959.101 555.079 944.227 516.774 z"/>
<path transform="translate(0,0)" fill="rgb(254,254,254)" d="M 979.978 897.161 C 988.094 897.286 995.606 900.311 1002.42 904.671 C 1017.27 914.171 1026.43 929.637 1030.02 946.666 C 1033.64 963.889 1030.68 977.497 1021.19 992.233 C 1017.97 996.708 1013.92 999.407 1009.37 1002.33 C 1002.98 978.379 999.313 953.7 992.442 929.834 C 989.209 918.605 983.031 908.316 979.978 897.161 z"/>
<path transform="translate(0,0)" fill="rgb(242,110,111)" d="M 526.6 372.834 C 540.923 370.035 554.789 379.423 557.508 393.761 C 560.228 408.1 550.763 421.913 536.409 424.553 C 522.169 427.172 508.487 417.797 505.789 403.571 C 503.091 389.346 512.389 375.612 526.6 372.834 z"/>
<path transform="translate(0,0)" fill="rgb(254,254,254)" d="M 1035.45 988.61 C 1039.69 992.98 1049.92 1047.65 1051.63 1057.11 L 1026.23 1066.48 C 1025.16 1066.94 1024.47 1066.74 1023.34 1066.64 C 1019.92 1060.48 1013.75 1022.66 1011.54 1012.34 C 1023.18 1006.44 1028.65 999.478 1035.45 988.61 z"/>
<path transform="translate(0,0)" fill="rgb(254,254,254)" d="M 882.629 1088.88 C 883.04 1083.2 884.428 1078.1 887.638 1073.31 C 891.077 1068.18 896.328 1064.32 902.451 1063.16 C 907.931 1062.14 913.592 1063.35 918.184 1066.51 C 925.274 1071.35 927.748 1077.91 929.389 1086.01 C 928.251 1092.89 926.011 1098.06 922.174 1103.86 C 913.806 1108.02 905.725 1111.89 896.19 1108.62 C 890.98 1106.84 887.082 1103 884.788 1098.03 C 883.42 1095.06 882.905 1092.1 882.629 1088.88 z"/>
<path transform="translate(0,0)" fill="rgb(136,176,237)" d="M 732.613 1085.77 C 736.348 1093.51 736.472 1106.89 738.057 1115.56 C 741.335 1133.49 745.034 1151.36 748.446 1169.27 C 742.948 1170.73 737.632 1172.72 732.277 1174.62 L 729.853 1174.7 C 724.3 1167.2 718.214 1116.67 717.559 1104.69 C 723.863 1098.94 728.483 1093.24 732.613 1085.77 z"/>
<path transform="translate(0,0)" fill="rgb(136,176,237)" d="M 678.567 963.149 C 688.652 962.562 697.367 963.017 706.386 968.294 C 718.907 975.619 724.673 987.739 727.929 1001.27 L 717.782 991.473 C 699.594 976.53 683.084 973.066 659.81 972.959 C 665.696 968.492 671.734 965.767 678.567 963.149 z"/>
<path transform="translate(0,0)" fill="rgb(254,254,254)" d="M 545.042 433.045 L 546.056 433.383 C 552.381 446.407 557.287 462.629 561.404 476.529 C 559.72 479.38 556.916 480.516 554.131 482.194 C 549.704 479.764 539.909 444.524 537.452 437.057 C 539.346 434.636 542.213 434.145 545.042 433.045 z"/>
<path transform="translate(0,0)" fill="rgb(16,27,66)" d="M 875.766 1268.06 C 877.863 1269.32 878.061 1269.36 878.988 1271.6 C 878.883 1271.85 878.814 1272.11 878.675 1272.34 C 877.675 1273.99 875.716 1275.01 873.991 1275.76 C 864.923 1279.68 855.215 1282.62 845.942 1286.1 L 783.033 1309.6 C 752.87 1320.76 722.911 1333.56 692.195 1343.06 C 690.651 1341.96 690.212 1341.15 689.458 1339.42 C 690.701 1337.34 691.135 1337.1 693.434 1336.11 C 701.689 1332.56 710.544 1329.95 718.98 1326.81 L 771.554 1306.95 C 806.064 1293.94 840.735 1279.52 875.766 1268.06 z"/>
<path transform="translate(0,0)" fill="rgb(16,27,66)" d="M 1089.95 1191.04 C 1091.75 1193.02 1092.09 1193.3 1092.54 1195.9 C 1086.82 1202.34 975.016 1240.89 955.225 1247.86 C 953.185 1246.65 952.921 1246.59 951.961 1244.45 C 953.106 1242.22 954.089 1241.62 956.338 1240.65 C 969.273 1235.08 983.233 1230.86 996.471 1225.98 C 1027.73 1214.6 1058.89 1202.95 1089.95 1191.04 z"/>
<path transform="translate(0,0)" fill="rgb(254,254,254)" d="M 1586.37 1200.01 L 1588.29 1200.79 C 1599.3 1233.98 1607.75 1268.28 1617.42 1301.91 C 1625.08 1328.55 1634.89 1355.62 1639.51 1382.99 L 991.262 1622.72 C 904.055 1654.64 817.51 1688.63 729.926 1719.43 C 719.895 1696.57 714.094 1670.81 706.968 1646.9 C 695.959 1609.96 683.921 1572.77 674.994 1535.28 L 1277.06 1313 C 1343.82 1287.91 1410.8 1263.39 1477.98 1239.45 C 1513.98 1226.27 1549.8 1211.46 1586.37 1200.01 z"/>
<path transform="translate(0,0)" fill="rgb(16,27,66)" d="M 1240.29 1368.02 C 1266.18 1363.58 1290.78 1380.95 1295.26 1406.83 C 1299.74 1432.72 1282.41 1457.34 1256.53 1461.86 C 1230.6 1466.4 1205.9 1449.02 1201.41 1423.08 C 1196.92 1397.13 1214.34 1372.47 1240.29 1368.02 z"/>
<path transform="translate(0,0)" fill="rgb(254,254,254)" d="M 1241.28 1375.01 C 1263.03 1371.1 1283.88 1385.4 1288.05 1407.1 C 1292.23 1428.79 1278.17 1449.81 1256.52 1454.24 C 1242.29 1457.15 1227.59 1452.19 1218.04 1441.25 C 1208.49 1430.3 1205.56 1415.07 1210.37 1401.36 C 1215.18 1387.65 1226.98 1377.59 1241.28 1375.01 z"/>
<path transform="translate(0,0)" fill="rgb(16,27,66)" d="M 808.12 1529.27 C 834.315 1527.58 856.938 1547.41 858.686 1573.6 C 860.435 1599.79 840.649 1622.46 814.461 1624.26 C 788.198 1626.06 765.456 1606.21 763.702 1579.94 C 761.948 1553.68 781.849 1530.97 808.12 1529.27 z"/>
<path transform="translate(0,0)" fill="rgb(242,110,111)" d="M 803.123 1538.42 C 816.989 1535.62 831.292 1540.5 840.539 1551.21 C 849.787 1561.92 852.541 1576.78 847.746 1590.09 C 842.95 1603.4 831.349 1613.09 817.397 1615.44 C 796.313 1618.99 776.278 1604.97 772.381 1583.95 C 768.485 1562.93 782.167 1542.67 803.123 1538.42 z"/>
<path transform="translate(0,0)" fill="rgb(16,27,66)" d="M 1126.28 1493 C 1127.02 1492.9 1128.33 1492.69 1129.04 1492.73 C 1131.28 1492.86 1131.65 1493.65 1132.94 1495.25 C 1131.91 1497.23 1131.6 1497.56 1129.51 1498.56 C 1113.23 1506.41 1087.45 1514.36 1069.87 1520.95 C 1029.68 1536.02 989.472 1551.57 948.868 1565.48 L 945.456 1565.8 C 943.34 1564.69 943.113 1565.12 942.297 1562.72 C 943.647 1560.26 946.151 1559.51 948.627 1558.51 C 964.251 1552.21 980.69 1547.63 996.496 1541.69 C 1039.62 1525.08 1082.88 1508.86 1126.28 1493 z"/>
<path transform="translate(0,0)" fill="rgb(16,27,66)" d="M 1107.29 1434.89 C 1109.28 1434.65 1110.2 1434.92 1112.02 1435.71 C 1112.32 1436.65 1111.87 1437.35 1111.59 1438.27 C 1104.88 1444.45 948.034 1501.38 929.326 1507.75 C 928.247 1507.95 927.14 1507.77 926.048 1507.7 L 924.643 1505.63 L 925.197 1503.12 C 928.787 1499.42 1087.8 1442.23 1107.29 1434.89 z"/>
<path transform="translate(0,0)" fill="rgb(16,27,66)" d="M 1536.42 1274.93 C 1538.65 1275.36 1538.95 1275.54 1540.64 1277.05 L 1540.23 1278.92 C 1532.51 1285.77 1389.33 1336.34 1365.1 1344.94 C 1363.93 1345.19 1362.72 1345.11 1361.54 1345.13 C 1359.88 1343.61 1359.93 1344.19 1359.75 1341.66 C 1360.57 1340.52 1361.31 1339.76 1362.61 1339.18 C 1384.56 1329.42 1408.7 1322.24 1431.34 1314.15 C 1466.54 1301.54 1501.57 1288.47 1536.42 1274.93 z"/>
<path transform="translate(0,0)" fill="rgb(16,27,66)" d="M 1557.28 1334.95 C 1558.14 1335.22 1559.45 1336.09 1560.27 1336.53 L 1560.51 1338.34 C 1558.69 1340.61 1556.69 1341.51 1554.1 1342.67 C 1528.17 1354.28 1499.71 1362.66 1472.92 1372.36 C 1442.63 1383.32 1412.42 1396.03 1381.46 1404.95 C 1379.93 1404.74 1379.62 1404.45 1378.42 1403.55 L 1378.5 1401.25 C 1382.59 1397.18 1540.92 1340.84 1557.28 1334.95 z"/>
<path transform="translate(0,0)" fill="rgb(254,254,254)" d="M 912.611 89.2914 C 921.335 88.8611 931.548 92.6591 939.166 96.7861 C 951.482 103.458 960.814 112.651 966.004 125.877 C 971.471 139.809 974.42 155.358 978.424 169.787 C 984.545 191.848 991.442 213.726 997.815 235.722 L 1067.26 472.527 L 1303.86 1265.43 L 1273.73 1276.48 C 1266.8 1249.98 1257.61 1224.05 1249.77 1197.81 C 1230.22 1131.91 1210.29 1066.12 1190 1000.44 L 1057.09 558.583 L 977.208 286.317 L 953.096 204.994 C 949.268 192.153 946.221 177.574 940.823 165.392 C 935.479 153.331 924.94 144.348 912.608 139.956 C 904.52 137.075 895.609 135.867 887.137 137.585 C 873.172 140.418 858.951 146.745 845.49 151.55 C 815.734 162.001 786.132 172.885 756.693 184.199 C 733.001 193.11 707.521 200.147 684.731 210.994 C 684.199 224.29 684.904 237.561 682.543 250.739 C 680.945 259.654 677.726 271.855 669.907 277.072 C 658.765 284.506 644.365 288.44 631.828 293.014 C 608.751 301.435 585.47 309.326 562.438 317.86 C 544.444 324.527 523.879 335.066 505.394 338.974 C 497.659 340.61 489.25 340.449 481.559 338.79 C 459.877 334.113 446.878 319.39 435.348 301.591 C 434.637 301.806 433.928 302.027 433.22 302.253 C 392.526 315.505 352.752 331.792 312.531 346.411 C 294.456 352.98 257.318 363.883 242.949 372.411 C 233.71 377.893 226.023 387.003 221.204 396.546 C 215.024 408.783 213.681 420.805 216.686 434.165 C 221.108 453.825 228.359 473.325 234.434 492.575 L 265.926 592.865 C 295.682 687.35 324.655 782.079 352.842 877.043 L 489.465 1337.76 L 558.338 1572.11 C 564.208 1591.46 569.369 1610.99 575.567 1630.24 C 585.444 1660.71 593.754 1691.71 602.637 1722.48 C 609.341 1745.7 616.738 1768.72 623.559 1791.91 C 629.672 1812.69 633.405 1835.57 643.115 1854.98 C 647.018 1862.79 653.726 1870.37 661.298 1874.74 C 675.507 1882.94 689.894 1884.79 705.738 1880.45 C 717.077 1877.35 728.211 1872.6 739.217 1868.47 L 794.552 1847.85 L 1007.08 1767.98 L 1231.2 1685.03 L 1299.36 1660.03 C 1310.44 1655.97 1322.4 1652.46 1333.03 1647.41 C 1343.85 1642.36 1352.81 1634.06 1358.68 1623.66 C 1363.23 1615.51 1366.28 1605.87 1366.48 1596.51 C 1366.88 1577.04 1350.16 1525.7 1344.3 1504.44 C 1354.59 1499.87 1365.81 1496.47 1376.44 1492.67 C 1382.73 1512.01 1387.58 1531.89 1392.68 1551.57 C 1396.18 1565.1 1400.22 1578.67 1403.06 1592.34 C 1407.17 1612.1 1402.08 1633.73 1390.83 1650.42 C 1383.13 1661.83 1372.9 1670.68 1360.44 1676.47 C 1349.31 1681.65 1337.43 1685.13 1325.93 1689.41 L 1249.61 1717.36 L 1009.15 1806.46 L 783.282 1890.53 C 766.757 1896.58 750.277 1902.74 733.841 1909.03 C 718.905 1914.74 703.255 1921.75 687.437 1924.45 C 670.18 1927.39 653.963 1923.48 639.673 1913.3 C 626.71 1904.07 617.605 1890.64 612.499 1875.68 C 600.026 1839.14 590.647 1800.81 579.865 1763.7 L 523.175 1571.74 L 337.924 944.448 L 226.665 575.649 L 196.254 474.191 C 190.644 455.466 182.996 435.407 180.038 416.088 C 177.304 398.241 184.813 378.003 195.422 363.851 C 203.125 353.577 213.205 343.826 225.045 338.571 C 240.874 331.547 258.219 326.706 274.562 320.907 L 356.656 291.052 L 583.556 207.825 C 664.35 177.839 745.374 148.473 826.618 119.73 C 840.146 114.914 853.596 109.882 866.962 104.636 C 881.746 98.8258 896.803 91.5654 912.611 89.2914 z"/>
<path transform="translate(0,0)" fill="rgb(16,27,66)" d="M 624.12 235.982 C 624.648 236.175 625.213 236.285 625.702 236.56 C 627.971 237.833 628.083 238.677 628.374 240.999 C 627.02 243.246 625.672 244.176 623.338 245.211 C 610.772 250.785 596.808 254.729 583.871 259.511 C 556.265 269.716 528.495 280.798 500.211 288.934 C 497.732 287.625 496.474 287.284 494.98 284.861 L 495.525 282.982 C 502.623 277.002 608.435 241.168 624.12 235.982 z"/>
<path transform="translate(0,0)" fill="rgb(242,110,111)" d="M 153.134 529.878 C 146.118 503.728 138.05 477.764 130.638 451.712 C 125.638 434.14 118.919 416.167 118.692 397.709 C 118.543 382.802 122.429 368.132 129.937 355.253 C 136.184 344.53 146.661 331.291 159.105 328.08 C 172.643 324.586 192.725 333.438 205.735 337.817 C 185.936 354.777 170.375 376.535 168.241 403.182 C 167.418 413.461 169.176 423.416 171.854 433.316 C 178.273 457.04 186.284 480.398 193.205 503.984 L 275.056 773.802 L 398.244 1187.59 L 559.504 1735.58 C 573.408 1781.81 585.234 1828.73 599.977 1874.72 C 604.214 1887.94 609.379 1899.21 618.59 1909.74 C 630.489 1923.34 644.448 1929.81 661.176 1935.75 C 630.108 1937.47 591.487 1929.66 567.699 1908.16 C 557.195 1898.67 551.376 1885.73 546.711 1872.62 C 539.694 1852.89 534.946 1832 529.39 1811.78 C 517.059 1766.91 505.483 1721.51 492.079 1676.97 L 296.652 1014.56 L 225.317 775.619 C 218.426 752.836 211.74 729.993 205.26 707.09 C 201.193 692.754 197.653 677.719 192.552 663.741 C 185.51 643.218 179.793 622.233 173.516 601.467 C 166.347 577.748 158.521 554.072 153.134 529.878 z"/>
<path transform="translate(0,0)" fill="rgb(16,27,66)" d="M 156.255 525.278 C 157.21 520.594 158.306 516.131 162.51 513.3 C 167.248 510.109 172.345 508.826 177.892 510.271 C 182.553 511.485 186.471 514.356 188.9 518.522 C 194.577 528.259 230.17 645.421 232.052 659.284 C 228.128 665.843 224.613 671.869 216.574 673.742 C 212.369 674.721 208.463 673.699 204.895 671.361 C 201.409 669.076 199.245 666.199 197.043 662.727 L 194.568 661.528 L 192.552 663.741 C 185.51 643.218 179.793 622.233 173.516 601.467 C 166.347 577.748 158.521 554.072 153.134 529.878 C 154.554 528.37 155.39 527.162 156.255 525.278 z"/>
<path transform="translate(0,0)" fill="rgb(242,110,111)" d="M 153.134 529.878 C 154.554 528.37 155.39 527.162 156.255 525.278 C 158.416 542.67 166.584 562.894 171.657 579.944 C 179.818 607.373 186.772 636.025 197.043 662.727 L 194.568 661.528 L 192.552 663.741 C 185.51 643.218 179.793 622.233 173.516 601.467 C 166.347 577.748 158.521 554.072 153.134 529.878 z"/>
<path transform="translate(0,0)" fill="rgb(254,254,254)" d="M 169.545 520.684 C 172.578 520.88 175.605 521.018 178.164 522.869 C 180.603 524.632 181.711 528.216 182.67 530.938 C 189.515 550.359 194.217 570.877 200.259 590.602 C 204.361 603.993 217.713 642.136 218.979 654.407 C 219.331 657.816 217.46 659.404 215.538 661.922 C 213.797 661.834 212.388 661.673 210.764 660.931 C 208.178 659.749 206.94 658.25 205.836 655.732 C 200.875 644.427 198.242 631.094 194.659 619.249 L 171.68 544.636 C 169.151 536.386 165.23 528.812 169.545 520.684 z"/>
<path transform="translate(0,0)" fill="rgb(16,27,66)" d="M 234.215 719.12 C 237.294 719.028 240.178 719.009 243.111 720.084 C 247.977 721.866 251.724 726.506 253.797 731.106 C 260.133 745.163 290.036 843.473 291.547 857.903 C 291.819 860.497 291.106 863.644 290.114 866.05 C 287.85 871.548 283.182 874.195 277.932 876.309 C 275.261 876.221 272.713 876.11 270.15 875.277 C 264.819 873.546 261.43 869.891 259.128 864.901 C 247.753 840.247 240.391 807.838 232.425 781.611 C 228.097 767.361 221.288 751.839 219.362 737.184 C 219.077 735.014 219.665 732.731 220.464 730.721 C 222.911 724.558 228.517 721.724 234.215 719.12 z"/>
<path transform="translate(0,0)" fill="rgb(254,254,254)" d="M 236.213 730.598 C 237.793 731.199 239.728 731.852 241.106 732.823 C 242.978 734.142 243.827 736.056 244.654 738.107 C 249.857 751.009 253.128 765.479 257.237 778.837 C 263.614 799.571 278.356 840.079 279.996 859.276 C 279.287 862.464 277.017 863.787 274.593 865.691 C 273.826 865.204 273.067 864.702 272.318 864.187 C 270.118 862.652 268.483 861.353 267.419 858.837 C 259.189 839.38 252.382 810.391 246.042 789.316 C 240.943 772.367 233.45 754.136 230.443 736.761 C 231.365 733.905 233.951 732.389 236.213 730.598 z"/>
<path transform="translate(0,0)" fill="rgb(136,176,237)" d="M 1581.16 1176.04 L 1582.12 1176.61 C 1584.56 1181.65 1585.34 1187.82 1586.56 1193.27 C 1571.04 1200.32 1554.61 1205.82 1538.64 1211.74 L 1448.71 1244.41 L 1185.62 1340.24 L 823.541 1473.54 C 794.649 1484.09 765.825 1494.83 737.07 1505.75 C 716.038 1513.82 695.198 1522.64 673.697 1529.4 C 671.086 1523.73 668.958 1517.75 666.656 1511.95 C 688.207 1502.83 711.139 1495.86 733.143 1487.76 L 877.133 1434.63 L 1315.61 1273.22 L 1481.53 1213.37 C 1514.79 1201.28 1548.42 1189.47 1581.16 1176.04 z"/>
<path transform="translate(0,0)" fill="rgb(242,110,111)" d="M 854.46 77.38 C 868.703 76.2322 883.049 78.1186 896.946 81.1783 C 877.341 90.2939 851.312 98.3325 830.642 105.909 C 784.424 123.083 738.06 139.862 691.556 156.246 C 592.359 192.146 493.342 228.544 394.509 265.437 L 293.588 302.307 C 270.157 310.632 246.29 318.129 223.239 327.457 L 216.662 329.826 C 205.428 326.388 194.2 323.011 183.168 318.96 C 213.241 306.261 244.525 296.224 275.191 285.063 L 468.954 214.623 L 667.044 141.747 L 764.976 105.821 C 794.099 95.1428 823.465 80.9873 854.46 77.38 z"/>
<path transform="translate(0,0)" fill="rgb(16,27,66)" d="M 1797.38 604.332 C 1801.27 604.095 1805.36 604.231 1809.08 605.446 C 1834.03 613.594 1856.45 621.101 1868.71 646.059 C 1877.25 663.446 1882.17 683.558 1887.38 702.172 L 1907.11 772.769 C 1912.34 790.916 1920.54 809.327 1923.36 827.955 C 1924.99 838.673 1924.26 849.958 1920.71 860.233 C 1916.43 872.594 1906.68 885.209 1895.23 891.747 C 1884.62 897.807 1871.95 901.266 1860.43 905.25 L 1808.18 923.385 L 1583.97 1002.39 L 1523.58 1024.31 C 1512 1028.51 1499.84 1032.15 1488.82 1037.63 C 1488.42 1037.82 1488.03 1038.03 1487.64 1038.23 C 1473.35 1061.06 1454.16 1082.42 1437.53 1103.65 C 1425.71 1118.75 1414.75 1135.46 1401.94 1149.67 C 1398.97 1150.75 1398.33 1150.09 1395.42 1149.09 C 1392.05 1139.42 1393.24 1071.46 1392.5 1055.07 C 1374.28 1057.78 1357.53 1052.67 1342.71 1041.95 C 1332.84 1034.8 1325.69 1026.58 1320.17 1015.73 C 1309.75 995.22 1302.5 961.812 1295.5 939.164 L 1276.68 878.242 C 1272.89 865.816 1268.07 852.858 1266.29 839.969 C 1263.96 823.091 1269.59 803.829 1280.15 790.568 C 1287.39 781.479 1297.37 774.299 1308.03 769.795 C 1320.85 764.38 1334.47 760.41 1347.66 755.988 L 1415.71 733.186 L 1602.64 669.329 L 1732.84 624.093 C 1752.13 617.504 1777.33 606.318 1797.38 604.332 z"/>
<path transform="translate(0,0)" fill="rgb(254,254,254)" d="M 1815.16 624.289 C 1821.35 623.877 1827.98 625.232 1833.75 627.406 C 1846.4 632.167 1854.75 642.594 1859.92 654.706 C 1868.04 673.771 1872.58 695.384 1878.62 715.216 L 1900.47 787.955 C 1904.93 802.951 1910.85 818.809 1912.6 834.367 C 1913.53 842.566 1911.83 851.767 1908.59 859.376 C 1904.74 868.418 1897.3 877.907 1888.63 882.608 C 1875.38 889.797 1859.89 894.023 1845.65 898.873 C 1826.21 905.435 1806.83 912.185 1787.52 919.122 L 1555.18 1001.05 C 1530.52 1009.96 1505.4 1018.21 1480.99 1027.77 C 1466.97 1050.8 1447.73 1072.31 1431.11 1093.57 C 1423.14 1103.76 1415.16 1116.47 1405.91 1125.37 L 1405.07 1124.02 C 1404.93 1111.21 1404.07 1098.37 1403.72 1085.56 C 1403.43 1075.09 1404.46 1062.64 1402.18 1052.44 C 1402.05 1051.87 1401.58 1049.35 1401.17 1048.88 C 1397.16 1044.2 1380.66 1038.89 1374.31 1034.69 C 1367.57 1030.23 1360.66 1024.27 1356.69 1017.16 C 1349.84 1004.88 1346.91 988.712 1342.86 975.279 L 1321.72 906.036 C 1315.76 886.292 1307.24 866.312 1303.24 846.119 C 1300.38 831.68 1303.91 817.665 1312.21 805.657 C 1319.51 795.081 1329.14 788.827 1340.87 783.937 C 1356.86 777.269 1374.1 772.728 1390.59 767.309 C 1434.23 752.961 1478.51 739.823 1521.89 724.802 L 1718.76 656.659 L 1775.75 636.628 C 1788.57 632.116 1801.76 626.684 1815.16 624.289 z"/>
<path transform="translate(0,0)" fill="rgb(16,27,66)" d="M 1455.25 839.314 C 1480.53 835.659 1504.04 853.051 1507.95 878.298 C 1511.85 903.545 1494.68 927.222 1469.48 931.37 C 1443.92 935.574 1419.84 918.121 1415.88 892.524 C 1411.93 866.927 1429.62 843.02 1455.25 839.314 z"/>
<path transform="translate(0,0)" fill="rgb(242,110,111)" d="M 1456.83 848.213 C 1477.48 845.441 1496.45 859.991 1499.13 880.658 C 1501.81 901.324 1487.17 920.227 1466.49 922.807 C 1445.95 925.369 1427.2 910.848 1424.54 890.317 C 1421.88 869.786 1436.31 850.967 1456.83 848.213 z"/>
<path transform="translate(0,0)" fill="rgb(16,27,66)" d="M 1603.65 794.723 C 1619.92 792.725 1636 799.641 1645.74 812.822 C 1655.49 826.003 1657.38 843.408 1650.7 858.376 C 1644.02 873.344 1629.8 883.555 1613.48 885.102 C 1588.73 887.449 1566.68 869.477 1563.99 844.76 C 1561.3 820.044 1578.97 797.752 1603.65 794.723 z"/>
<path transform="translate(0,0)" fill="rgb(242,110,111)" d="M 1602.83 804.234 C 1615.71 801.996 1628.8 806.856 1637.1 816.959 C 1645.41 827.062 1647.64 840.848 1642.94 853.054 C 1638.25 865.259 1627.36 873.999 1614.42 875.937 C 1594.75 878.885 1576.36 865.457 1573.19 845.818 C 1570.01 826.179 1583.22 807.639 1602.83 804.234 z"/>
<path transform="translate(0,0)" fill="rgb(16,27,66)" d="M 1753.55 745.729 C 1778.56 744.04 1800.19 762.965 1801.84 787.974 C 1803.49 812.984 1784.53 834.586 1759.52 836.196 C 1734.56 837.803 1713.02 818.896 1711.37 793.942 C 1709.73 768.988 1728.6 747.415 1753.55 745.729 z"/>
<path transform="translate(0,0)" fill="rgb(242,110,111)" d="M 1748.49 756.012 C 1767.79 751.93 1786.76 764.245 1790.89 783.542 C 1795.02 802.84 1782.75 821.839 1763.46 826.016 C 1744.11 830.207 1725.03 817.887 1720.89 798.522 C 1716.74 779.158 1729.11 760.109 1748.49 756.012 z"/>
<path transform="translate(0,0)" fill="rgb(136,176,237)" d="M 1791.61 616.17 C 1798.78 615.262 1805.01 616.448 1811.99 617.916 C 1710.15 654.708 1607.78 689.99 1504.89 723.752 L 1390.26 761.104 C 1370.35 767.619 1348.09 773.112 1329.27 782.247 C 1319.68 786.9 1311.4 795.132 1305.41 803.862 C 1296.12 817.397 1293.36 832.531 1296.59 848.535 C 1300.61 868.457 1311.24 895.626 1317.54 915.974 L 1334.7 972.241 C 1339.18 987.244 1342.68 1004.11 1350.27 1017.82 C 1356.82 1029.66 1365.92 1037.49 1377.01 1044.92 L 1377.01 1045.03 L 1376.05 1045.95 C 1370.33 1045.34 1364.75 1043.47 1359.5 1041.17 C 1341.54 1033.31 1332.71 1020.12 1326.1 1002.22 C 1319.37 983.997 1315.1 964.775 1309.42 946.201 L 1290.97 886.763 C 1285.98 870.702 1278.67 852.254 1277.72 835.473 C 1277.17 825.77 1280.12 814.778 1284.21 806 C 1289.2 795.299 1298.39 787.007 1308.92 781.836 C 1323.99 774.433 1342.14 770.034 1358.16 764.804 L 1453.18 733.65 C 1486.04 722.61 1518.43 710.265 1551.27 699.183 C 1631.47 672.118 1712.32 645.776 1791.61 616.17 z"/>
<path transform="translate(0,0)" fill="rgb(16,27,66)" d="M 1569.79 1683.9 L 1572.36 1684.31 C 1574.56 1686.17 1575.39 1686.54 1575.86 1689.51 C 1576.3 1692.31 1517.87 1892.63 1511.39 1911.6 C 1509.97 1915.74 1508.52 1919.99 1505.77 1923.45 C 1494.73 1923.37 1483.25 1920.44 1472.41 1918.41 C 1454.19 1915.03 1435.99 1911.56 1417.81 1907.99 C 1399.46 1904.45 1380.83 1902.39 1362.57 1898.46 C 1345.01 1906.05 1328.28 1919.67 1312.72 1930.78 C 1305.63 1935.84 1297.96 1942.59 1289.65 1945.29 C 1286.78 1944.43 1285.99 1943.54 1284.13 1941.34 C 1282.5 1932.81 1297.01 1911.59 1301.43 1903.5 C 1304.04 1898.8 1306.34 1893.9 1308.75 1889.09 C 1291.26 1884.68 1227.09 1878.33 1216.88 1871.34 C 1215.18 1870.17 1215.54 1869.6 1215.15 1867.71 C 1216.3 1864.51 1218.75 1863.58 1221.62 1861.94 C 1233.31 1855.25 1245.87 1849.59 1257.83 1843.32 C 1297.44 1822.6 1337.28 1802.31 1377.35 1782.48 L 1520.05 1709.81 C 1536.69 1701.3 1553.04 1692.17 1569.79 1683.9 z"/>
<path transform="translate(0,0)" fill="rgb(254,254,254)" d="M 1559.26 1703.02 L 1560.18 1704.12 C 1558.45 1716.35 1549.29 1742.35 1545.53 1755.61 C 1530.75 1807.68 1514.97 1859.59 1499.57 1911.5 C 1449.98 1901.58 1399.89 1894.3 1350.2 1884.85 L 1322.37 1879.51 C 1339.6 1867.35 1356.13 1853.94 1373.05 1841.31 C 1408.64 1814.93 1444.09 1788.36 1479.38 1761.58 C 1505.15 1741.87 1531.14 1719.18 1559.26 1703.02 z"/>
<path transform="translate(0,0)" fill="rgb(242,110,111)" d="M 1512.36 1725.98 L 1512.96 1726.06 L 1513.16 1727.02 C 1496.51 1740.6 1478.12 1752.65 1460.96 1765.71 C 1411.71 1803.46 1361.87 1840.44 1311.47 1876.64 C 1291.54 1874.14 1271.69 1870.78 1251.79 1868.04 C 1246.76 1867.33 1241.78 1866.41 1236.78 1865.48 C 1262.31 1856.46 1288.97 1839.67 1313.49 1827.39 L 1512.36 1725.98 z"/>
<path transform="translate(0,0)" fill="rgb(242,110,111)" d="M 1321.2 1889.56 C 1330.36 1891.95 1339.73 1893.16 1348.88 1895.75 L 1318.52 1916.39 L 1300.44 1929.51 C 1306.42 1915.92 1314.27 1902.72 1321.2 1889.56 z"/>
<path transform="translate(0,0)" fill="rgb(16,27,66)" d="M 291.134 1522.32 C 292.382 1522.67 293.714 1522.79 294.877 1523.36 C 299.446 1525.61 307.253 1550.39 313.379 1556.74 C 322.159 1565.83 336.508 1568.75 344.156 1577.83 C 346.037 1586.39 326.474 1590.34 319.193 1595.74 C 304.776 1606.43 299.634 1621.88 290.881 1636.67 L 287.381 1635.51 C 278.077 1624.64 277.979 1608.65 266.194 1597.71 C 260.08 1592.03 238.293 1583.13 236.051 1577.63 C 237.927 1572.35 260.43 1565.87 268.715 1558.75 C 279.906 1549.14 284.023 1534.74 291.134 1522.32 z"/>
<path transform="translate(0,0)" fill="rgb(254,254,254)" d="M 292.366 1538.74 C 294.642 1541.99 296.138 1546.19 298.225 1549.64 C 306.749 1563.77 316.466 1571.43 330.809 1579.28 C 312.356 1589.52 300.614 1600.87 289.963 1619.18 C 287.108 1618.42 281.714 1604.37 279.857 1601.14 C 273.453 1590 261.41 1583.26 250.589 1577.22 C 273.697 1567.47 281.168 1561.72 292.366 1538.74 z"/>
<path transform="translate(0,0)" fill="rgb(16,27,66)" d="M 1351.73 291.373 C 1352.43 291.511 1353.52 291.694 1354.15 291.967 C 1355.85 292.699 1356.65 293.627 1357.28 295.327 C 1359.62 301.587 1358.92 314.532 1355.97 320.457 C 1355.27 320.276 1354.31 320.046 1353.66 319.782 C 1351.28 318.817 1350.7 318.046 1349.8 315.595 C 1347.28 308.814 1348.64 297.769 1351.73 291.373 z"/>
<path transform="translate(0,0)" fill="rgb(16,27,66)" d="M 1349.44 390.484 C 1350.4 390.463 1352.17 390.398 1353.08 390.51 C 1354.59 390.697 1355.81 390.962 1356.66 392.265 C 1360.58 398.293 1357.55 409.961 1356.7 416.768 C 1355.98 416.853 1355.07 416.985 1354.36 416.954 C 1352.98 416.894 1351.69 416.876 1350.78 415.737 C 1346.89 410.821 1349.2 396.543 1349.44 390.484 z"/>
<path transform="translate(0,0)" fill="rgb(16,27,66)" d="M 1292.27 351.752 C 1299.46 351.601 1311.92 349.455 1317.64 353.969 C 1318.08 356.29 1317.75 357.203 1316.76 359.325 C 1309.06 359.957 1299.68 361.972 1292.68 358.158 C 1291.11 355.544 1291.76 354.68 1292.27 351.752 z"/>
<path transform="translate(0,0)" fill="rgb(16,27,66)" d="M 1324.73 377.532 C 1327.24 378.453 1327.84 379.263 1328.91 381.521 C 1328.18 388.487 1318.89 395.707 1314.08 400.491 C 1311.98 399.482 1311.19 398.981 1310.08 396.916 C 1310.37 390.131 1320.08 382.328 1324.73 377.532 z"/>
<path transform="translate(0,0)" fill="rgb(16,27,66)" d="M 1378.78 378.334 C 1384.81 380.401 1393.08 388.159 1395.46 394.169 C 1396.59 397.017 1395.41 398.2 1394.2 400.697 C 1390.8 398.985 1388 396.374 1385.07 393.992 C 1381.78 391.325 1379.48 388.918 1377.07 385.419 C 1376.57 381.937 1377.22 381.375 1378.78 378.334 z"/>
<path transform="translate(0,0)" fill="rgb(16,27,66)" d="M 1390.51 310.513 C 1393.46 311.129 1394.22 311.128 1396.38 313.161 C 1396.45 319.53 1387.14 326.696 1382.83 331.471 C 1381.2 331.132 1380.56 330.876 1379.22 329.777 C 1377.74 328.552 1378.08 328.283 1377.86 326.508 C 1380.3 320.371 1386.08 315.358 1390.51 310.513 z"/>
<path transform="translate(0,0)" fill="rgb(16,27,66)" d="M 1389.69 352.499 C 1395.42 352.154 1401.24 351.66 1406.98 351.853 C 1410.19 351.961 1412.22 352.211 1414.48 354.544 C 1414.01 357.109 1413.73 357.321 1411.91 359.219 C 1405.86 359.516 1399.32 360.135 1393.29 359.37 C 1390.56 359.023 1389.29 358.616 1387.57 356.5 C 1387.98 354.391 1388.24 354.108 1389.69 352.499 z"/>
<path transform="translate(0,0)" fill="rgb(16,27,66)" d="M 1311.27 310.462 C 1317.04 312.662 1325.18 320.083 1327.12 326.107 C 1328.09 329.108 1327.47 329.606 1325.97 332.118 C 1325.18 331.902 1324.23 331.701 1323.48 331.321 C 1319.05 329.091 1311.13 320.023 1309.76 315.326 C 1309.23 313.514 1310.51 312.069 1311.27 310.462 z"/>
</svg>