<svg preserveAspectRatio="xMidYMid meet" version="1.1" xmlns="http://www.w3.org/2000/svg" style="display: block;" viewBox="0 0 2048 2048" width="1024" height="1024">
<path transform="translate(0,0)" fill="rgb(254,254,254)" d="M 0 0 L 2048 0 L 2048 2048 L 0 2048 L 0 0 z"/>
<path transform="translate(0,0)" fill="rgb(37,32,66)" d="M 326.916 80.4529 C 328.642 80.421 330.369 80.3987 332.095 80.3862 L 1319.7 80.942 L 1615 81.3147 L 1718.41 81.0576 C 1740.76 81.0192 1763.75 79.9457 1785.99 82.4666 C 1819.67 86.2847 1859.79 98.5272 1884.34 123.079 C 1919.79 158.514 1931.31 213.834 1937.33 261.9 C 1941.58 295.766 1941.65 329.781 1941.71 363.856 L 1941.55 460.235 C 1941.95 552.202 1941.88 644.17 1941.33 736.136 L 1942.03 1645.77 L 1942.08 1745.8 C 1942.09 1766.12 1943.78 1788.2 1940.42 1808.28 C 1935.79 1835.93 1924.77 1865.01 1904.61 1885.09 C 1854.53 1934.97 1767.4 1930.92 1701.73 1930.45 L 919.105 1930.82 L 714.332 1930.75 L 661.316 1930.6 C 651.805 1930.53 641.129 1929.53 631.762 1930.89 C 608.927 1934.2 586.909 1949.81 563.874 1953.93 C 540.613 1958.08 528.591 1944.07 511.364 1932.26 C 493.96 1930.79 475.426 1931.95 457.915 1931.89 L 346.624 1931.61 C 293.005 1931.45 231.027 1933.61 179.516 1917.51 C 164.055 1912.68 149.594 1905.3 137.7 1894.17 C 113.123 1871.19 109.566 1835.34 108.534 1803.53 C 107.306 1765.68 108.068 1727.61 108.085 1689.74 L 107.839 1510.21 L 107.459 875.29 L 107.14 500.954 L 106.957 386.323 C 106.914 347.391 106.659 309.086 111.209 270.335 C 116.742 223.212 127.724 172.22 161.31 136.704 C 205.842 89.6139 265.602 82.2125 326.916 80.4529 z"/>
<path transform="translate(0,0)" fill="rgb(254,254,254)" d="M 1125.66 172.366 C 1132.94 171.393 1140.78 173.665 1146.79 177.827 C 1153.72 182.626 1158.53 191.417 1160.54 199.447 C 1169.73 236.147 1174.62 274.479 1181.95 311.637 L 1238.85 605.171 L 1314.99 992.46 L 1348.24 1152.28 C 1352.97 1174.91 1358.74 1197.29 1362.78 1220.06 C 1352.04 1241.9 1337.09 1261.36 1322.96 1281.07 C 1302.03 1310.27 1280.21 1340.45 1263.49 1372.27 C 1252.61 1366.62 1241.59 1371.4 1230.62 1374.63 C 1209.57 1380.82 1188.93 1388.48 1168.01 1395.12 C 1112.7 1412.52 1057.56 1430.44 1002.58 1448.88 C 970.999 1459.58 937.619 1467.83 906.824 1480.56 C 902.727 1482.26 898.774 1483.89 896.699 1488.09 C 894.437 1492.67 895.081 1498.48 896.849 1503.11 C 898.596 1507.69 902.139 1512.85 906.96 1514.56 C 921.375 1519.68 1168.1 1425.35 1201.14 1411.94 C 1218.18 1405.03 1234.84 1396.93 1251.54 1389.21 C 1243.91 1401.42 1222.98 1425.69 1218.71 1435.82 C 1212.53 1450.48 1210.85 1482.46 1208.66 1499.11 C 1206.29 1516.77 1203.4 1534.36 1199.99 1551.86 C 1198.01 1562.05 1194.09 1571.96 1190.98 1581.86 C 1186.67 1596.06 1182.49 1610.31 1178.45 1624.59 C 1175.87 1633.67 1172.17 1645.25 1177.54 1654 C 1179.34 1656.94 1182.17 1659.12 1185.55 1659.88 C 1198.34 1662.76 1217.99 1644.43 1228.06 1637.28 C 1241.28 1627.89 1254.54 1618 1268.59 1609.88 C 1290.68 1597.1 1314.98 1586.88 1338.28 1576.46 C 1355.7 1568.67 1378.83 1560.67 1394.5 1550.41 C 1401.85 1531.35 1413.36 1513.76 1425.31 1497.25 C 1428.9 1511.09 1430.9 1525.63 1433.69 1539.69 C 1437.84 1560.63 1445.98 1588.45 1445.55 1609.12 C 1445.37 1617.74 1442.98 1625.39 1438.93 1632.93 C 1434.78 1640.67 1428.79 1647.76 1420.96 1651.92 C 1398.76 1663.69 1370.67 1668.45 1346.65 1676.06 C 1289.6 1694.75 1232.29 1712.62 1174.73 1729.65 C 1020.15 1778.29 866.03 1828.38 712.397 1879.94 C 678.096 1891.63 643.955 1903.78 609.982 1916.39 C 595.482 1921.73 573.801 1931.96 559.301 1934.19 C 552.711 1935.21 546.463 1932.96 541.184 1929.06 C 533.92 1923.69 525.415 1913.28 522.912 1904.57 C 517.254 1884.88 514.177 1864.45 509.998 1844.4 L 485.875 1730.01 L 398.03 1317.8 L 289.871 814.883 C 269.842 720.154 248.519 625.097 233.158 529.476 C 228.882 502.852 215.135 439.39 232.553 416.54 C 237.62 409.894 244.684 405.869 252.449 403.156 C 282.114 392.791 313.397 385.976 343.794 378.089 C 372.777 370.569 401.545 361.871 430.507 354.132 L 727.607 273.862 C 814.902 250.173 902.433 227.36 990.186 205.428 L 1069.77 184.933 C 1088.21 180.232 1106.79 174.98 1125.66 172.366 z"/>
<path transform="translate(0,0)" fill="rgb(37,32,66)" d="M 667.976 963.224 C 674.048 962.654 680.008 962.088 685.802 964.537 C 691.418 966.912 694.992 970.973 697.254 976.553 C 704.534 994.509 708.244 1020 712.495 1039.2 C 719.429 1069.74 725.736 1100.41 731.413 1131.2 C 733.831 1144.29 737.045 1157.8 738.126 1171.03 C 738.425 1174.69 738.792 1180.56 736.672 1183.75 C 734.661 1186.78 729.259 1189.27 726.072 1190.76 C 708.005 1199.2 687.842 1205.37 669.116 1212.39 C 627.454 1228.14 585.483 1243.05 543.228 1257.13 C 538.719 1258.46 533.389 1260.54 528.696 1260.69 C 522.982 1260.88 520.02 1257.77 516.113 1254.1 C 508.98 1234.01 505.846 1211.25 501.198 1190.37 C 494.924 1162.4 488.851 1134.38 482.979 1106.32 C 478.456 1084.2 473.113 1060.83 472.881 1038.17 C 505.701 1015.25 559.552 998.573 597.783 985.888 C 621.107 978.15 644.426 970.238 667.976 963.224 z"/>
<path transform="translate(0,0)" fill="rgb(254,254,254)" d="M 673.889 986.249 C 674.58 986.276 675.465 986.727 676.121 986.966 C 679.812 995.7 684.888 1024.41 687.267 1035.49 C 696.881 1081.27 706.067 1127.14 714.826 1173.09 L 579.85 1220.79 C 566.907 1225.43 554.444 1231.65 541.41 1235.94 C 538.522 1236.9 536.265 1238.06 533.321 1237.03 L 531.593 1232.41 C 527.572 1205.96 519.958 1178.91 513.445 1152.93 C 504.462 1117.09 495.914 1078.98 482.078 1044.68 C 533.335 1033.83 582.23 1013.46 632.242 998.08 C 646.017 993.845 659.77 989.209 673.889 986.249 z"/>
<path transform="translate(0,0)" fill="rgb(37,32,66)" d="M 639.843 1024.48 L 642.983 1025.07 C 644.841 1026.88 645.564 1027.73 645.843 1030.37 C 646.897 1040.34 604.667 1161.1 596.715 1169.6 C 593.985 1172.51 590.062 1173.74 586.14 1173.72 C 584.391 1173.71 582.591 1173.55 581.019 1172.72 C 571.738 1167.85 542.534 1140.53 533.61 1132.09 C 528.902 1127.35 522.978 1122.89 522.246 1115.86 C 523.224 1112.99 523.302 1112.59 525.671 1110.75 C 540.481 1108.4 571.372 1139.21 584.239 1148.47 C 594.627 1117.89 618.582 1045.94 639.843 1024.48 z"/>
<path transform="translate(0,0)" fill="rgb(37,32,66)" d="M 614.246 700.267 C 622.142 698.962 627.514 702.232 633.929 706.265 C 634.506 707.403 635.049 708.558 635.557 709.729 C 645.335 732.264 650.67 766.798 656.027 791.128 C 663.097 823.244 673.649 863.009 676.488 895.275 C 676.979 900.858 677.09 906.445 675.008 911.719 C 671.596 915.017 666.474 917.048 662.086 918.797 C 641.455 927.022 619.484 932.781 598.447 939.995 C 559.326 953.41 520.605 967.695 481.271 980.536 C 477.989 981.696 474.461 982.949 470.976 983.262 C 467.691 983.557 464.661 982.548 462.163 980.368 C 460.152 978.613 459.02 976.336 458.143 973.856 C 450.679 952.735 446.734 923.156 442.485 900.846 C 437.081 872.598 432.103 844.271 427.552 815.873 C 424.915 799.736 421.646 783.392 420.585 767.073 C 449.658 742.788 572.001 708.738 614.246 700.267 z"/>
<path transform="translate(0,0)" fill="rgb(254,254,254)" d="M 615.85 721.26 C 622.883 731.37 650.061 876.561 653.055 898.049 C 636.2 906.191 616.634 911.107 598.832 917.048 C 570.841 926.441 542.974 936.198 515.237 946.317 C 507.869 949.012 480.126 961.567 474.69 960.582 L 473.752 958.744 C 459.507 896.408 451.528 833.128 430.589 772.359 C 458.317 769.161 491.963 756.673 519.188 748.463 C 551.242 738.816 583.468 729.747 615.85 721.26 z"/>
<path transform="translate(0,0)" fill="rgb(37,32,66)" d="M 583.028 764.483 L 586.04 765.215 C 587.123 766.337 587.867 766.744 588.208 768.35 C 588.908 771.643 588.216 774.724 587.322 777.91 C 584.054 789.557 543.977 898.406 542.124 900.379 C 539.614 903.053 534.936 904.181 531.43 904.323 C 528.608 904.438 525.274 904.118 522.667 902.955 C 511.897 898.148 491.801 877.583 481.835 868.739 C 479.299 866.268 475.573 863.217 474.433 859.731 C 473.63 857.274 473.708 854.062 475.35 851.879 C 476.926 849.784 478.503 848.684 481.176 848.502 C 491.774 847.777 516.826 873.113 525.497 880.61 C 536.662 850.567 560.682 786.638 583.028 764.483 z"/>
<path transform="translate(0,0)" fill="rgb(37,32,66)" d="M 781.254 1514.2 C 786.911 1513.68 792.656 1513.74 797.863 1516.27 C 806.111 1520.27 809.78 1527.71 812.501 1536.02 C 824.651 1573.14 833.908 1611.87 843.395 1649.78 C 847.902 1667.79 854.389 1687.4 856.208 1705.86 C 856.685 1710.69 857.017 1715.47 854.634 1719.87 C 852.932 1723 850.656 1725.79 847.484 1727.51 C 834.144 1734.74 811.667 1741.29 796.615 1746.82 C 756.198 1762 715.508 1776.44 674.564 1790.13 C 669.5 1791.69 662.762 1794.14 657.461 1793.11 C 654.077 1792.46 651.396 1790.64 649.564 1787.72 C 638.983 1770.82 593.922 1594.94 599.01 1584.89 C 605.038 1572.99 761.656 1519.01 781.254 1514.2 z"/>
<path transform="translate(0,0)" fill="rgb(254,254,254)" d="M 780.988 1532.93 C 793.431 1544.19 826.596 1682.36 830.998 1706.46 C 814.171 1714.5 795.742 1719.87 778.248 1726.34 L 675.339 1764.7 C 672.645 1765.73 669.065 1767.85 666.442 1766.67 C 647.505 1708.68 634.899 1648.79 611.932 1592.08 C 669.072 1578.08 727.31 1557.06 780.988 1532.93 z"/>
<path transform="translate(0,0)" fill="rgb(37,32,66)" d="M 721.216 1256.24 C 726.161 1255.53 731.42 1255.98 735.987 1258.11 C 743.585 1261.64 746.658 1268.57 749.334 1276.04 C 759.637 1304.79 765.771 1336.12 773.372 1365.74 C 779.309 1388.87 789.498 1420.28 791.748 1443.53 C 792.207 1448.27 791.91 1453.31 789.741 1457.64 C 787.708 1461.69 783.604 1463.56 779.685 1465.42 C 763.443 1473.13 744.781 1478.03 727.817 1484.11 C 687.769 1498.74 647.54 1512.88 607.14 1526.52 C 606.066 1526.76 604.993 1527 603.913 1527.21 C 595.155 1528.9 590.263 1527.44 582.937 1522.52 C 577.833 1513 575.219 1502.03 572.657 1491.6 C 568.629 1475.19 533.239 1333.49 538.869 1326.02 C 549.695 1311.68 697.97 1260.76 721.216 1256.24 z"/>
<path transform="translate(0,0)" fill="rgb(254,254,254)" d="M 718.287 1276.96 L 722.432 1277.06 C 730.355 1283.59 764.993 1427.51 767.552 1445.27 C 732.38 1459.58 696.258 1472.39 660.497 1485.19 C 640.528 1492.34 620.31 1500.71 599.796 1506.02 C 592.311 1488.48 589.121 1468.27 584.148 1449.84 C 573.488 1410.32 563.084 1370.66 549.357 1332.08 C 606.784 1316.36 662.245 1296.95 718.287 1276.96 z"/>
<path transform="translate(0,0)" fill="rgb(37,32,66)" d="M 555.657 438.195 C 555.95 438.16 556.241 438.116 556.535 438.089 C 563.676 437.451 571.876 437.749 577.454 442.892 C 582.205 447.273 584.343 456.942 585.973 463.036 C 594.524 494.995 598.975 528.221 605.49 560.654 C 610.012 583.171 618.07 610.383 619.661 632.701 C 619.213 633.722 618.753 634.736 618.28 635.745 C 616.618 639.257 615.197 641.873 611.702 643.769 C 596.809 651.848 564.185 659.506 546.893 664.99 C 509.069 676.986 471.51 689.8 434.242 703.425 C 431.831 704.341 429.411 705.229 426.98 706.09 C 422.222 707.762 417.668 708.972 412.931 706.461 C 408.002 703.847 406.56 698.275 405.216 693.257 C 400.244 674.685 398.189 654.342 394.81 635.369 C 389.147 604.885 384.248 574.264 380.118 543.535 C 378.452 531.623 375.936 519.275 375.403 507.265 C 375.238 503.565 375.181 500.206 377.075 496.915 C 394.558 481.713 527.316 444.083 555.657 438.195 z"/>
<path transform="translate(0,0)" fill="rgb(254,254,254)" d="M 558.529 458.168 L 560.4 458.243 C 565.065 463.356 592.705 610.4 596.015 626.46 C 573.232 635.241 549.028 641.626 525.802 649.297 C 491.463 660.869 457.345 673.088 423.467 685.948 C 416.153 652.991 411.608 619.489 404.841 586.427 C 399.116 558.454 391.213 531.048 384.12 503.413 C 403.427 501.315 423.282 494.966 441.965 489.861 C 480.69 479.279 519.369 466.977 558.529 458.168 z"/>
<path transform="translate(0,0)" fill="rgb(37,32,66)" d="M 526.113 496.453 C 528.553 496.961 530.456 497.452 532.124 499.465 C 533.992 501.721 534.604 504.477 534.53 507.327 C 534.307 515.961 497.476 612.384 490.915 626.619 C 489.262 630.205 487.216 633.878 484.285 636.586 C 481.969 638.727 479.836 639.05 476.812 638.74 C 460.921 637.115 443.961 613.185 434.169 601.891 C 430.366 597.877 422.725 591.98 422.418 586.163 C 422.285 583.656 423.741 580.185 425.561 578.446 C 427.67 576.431 429.225 575.962 432.123 576.114 C 445.284 576.807 464.006 603.081 472.396 613.197 C 484.705 585.618 507.465 515.834 526.113 496.453 z"/>
<path transform="translate(0,0)" fill="rgb(37,32,66)" d="M 1084.08 345.262 C 1086.98 345.612 1089.15 345.987 1091.63 347.748 C 1093.51 349.09 1094.84 351.642 1095.2 353.86 C 1095.74 357.233 1094.57 360.566 1092.64 363.295 C 1085.83 372.904 1068.01 379.782 1057.47 383.963 C 1022.63 397.789 986.594 408.325 950.782 419.287 L 805.144 463.745 C 780.099 471.519 755 479.204 730.067 487.33 C 714.863 492.286 698.685 499.443 682.891 501.873 C 676.459 497.633 672.279 491.556 670.692 483.863 C 669.84 479.734 670.447 477.141 672.772 473.707 C 686.455 464.608 709.776 459.303 725.786 453.984 C 775.981 437.66 826.333 421.819 876.832 406.463 C 921.095 392.441 965.524 378.945 1010.11 365.978 C 1034.29 358.745 1059.26 349.624 1084.08 345.262 z"/>
<path transform="translate(0,0)" fill="rgb(37,32,66)" d="M 1195.32 824.127 C 1197.49 823.949 1199.63 823.776 1201.8 824.009 C 1205.2 824.374 1209.06 826.263 1210.75 829.396 C 1212.01 831.717 1211.59 833.63 1210.54 835.894 C 1207.85 841.675 1192.93 848.226 1187.24 850.842 C 1144.88 870.339 1094.61 885.775 1050.27 901.883 C 996.855 921.742 943.026 940.478 888.822 958.08 C 856.554 968.868 824.146 980.26 791.279 989.091 C 789.315 989.12 787.155 989.288 785.301 988.482 C 781.623 986.882 778.791 982.275 777.283 978.754 C 775.41 974.381 773.897 965.138 776.91 960.924 C 778.958 958.06 787.707 955.204 791.123 953.929 C 821.546 942.572 853.228 933.032 884.19 923.215 L 988.547 889.643 C 1057.49 867.702 1125.72 844.012 1195.32 824.127 z"/>
<path transform="translate(0,0)" fill="rgb(37,32,66)" d="M 1260.6 1116.34 C 1261.87 1116.4 1264.25 1116.59 1265.43 1117.24 C 1268.05 1118.68 1268.36 1119.92 1269.31 1122.53 C 1268.97 1125.39 1268.48 1127.44 1266.39 1129.61 C 1264.52 1131.56 1262.71 1132.55 1260.24 1133.59 C 1220.17 1150.5 1174.39 1165.7 1133 1180.34 C 1067.92 1203.67 1002.64 1226.42 937.161 1248.59 C 920.601 1254.22 868.079 1274.77 854.796 1275.2 C 854.424 1274.95 854.055 1274.7 853.69 1274.45 C 848.785 1270.96 845.14 1264.95 844.36 1258.94 C 843.854 1255.05 844.737 1251.07 847.304 1248.03 C 849.512 1245.41 852.628 1244.17 855.727 1242.88 C 889.329 1228.89 925.112 1218.77 959.74 1207.66 L 1110.01 1159.55 C 1146.52 1148.14 1182.87 1136.51 1219.73 1126.31 C 1232.93 1122.66 1246.97 1117.62 1260.6 1116.34 z"/>
<path transform="translate(0,0)" fill="rgb(37,32,66)" d="M 1091.71 601.156 C 1093.86 600.91 1096.34 600.717 1098.43 601.405 C 1101.14 602.3 1102.24 604.109 1103.44 606.51 C 1103.6 608.915 1103.57 610.612 1102.29 612.746 C 1097.5 620.752 1082.63 625.815 1074.39 629.244 C 1026.95 649.008 976.746 662.921 927.991 679.057 C 886.106 693.259 844.028 706.885 801.769 719.934 C 778.876 727.212 755.965 735.207 732.764 741.406 C 732.479 741.299 732.189 741.203 731.909 741.084 C 725.373 738.318 722.348 732.825 720.086 726.277 C 718.65 722.12 718.118 717.309 720.332 713.33 C 721.923 710.471 725.18 709.419 728.081 708.316 C 739.472 703.983 751.607 700.835 763.272 697.218 C 794.849 687.428 826.703 678.561 858.324 668.906 L 1004.51 625.144 C 1033.44 616.734 1062.35 607.981 1091.71 601.156 z"/>
<path transform="translate(0,0)" fill="rgb(37,32,66)" d="M 1181.56 1230.27 C 1182.55 1230.2 1184.08 1230.04 1185.04 1230.19 C 1187.98 1230.67 1188.77 1231.86 1190.53 1234 C 1190.84 1236.55 1191.26 1237.87 1189.66 1240.13 C 1183.64 1248.65 892.132 1346.92 866.512 1349.74 C 866.44 1349.72 866.368 1349.71 866.296 1349.69 C 865.175 1349.42 864.048 1349.15 862.959 1348.76 C 860.033 1347.72 857.212 1344.99 856.285 1342 C 855.55 1339.63 856.196 1337.62 857.538 1335.65 C 859.071 1333.4 861.762 1331.72 864.195 1330.62 C 871.9 1327.15 880.562 1324.81 888.562 1322.03 C 906.946 1315.61 925.386 1309.36 943.88 1303.26 C 981.174 1290.76 1018.02 1277.03 1055.61 1265.39 C 1082.13 1257.24 1108.72 1249.34 1135.39 1241.7 C 1150.53 1237.48 1166.03 1232.76 1181.56 1230.27 z"/>
<path transform="translate(0,0)" fill="rgb(37,32,66)" d="M 969.369 476.257 C 972.421 475.99 975.916 475.987 978.856 476.938 C 981.272 477.72 982.77 479.546 983.905 481.717 C 983.978 484.099 984.03 485.07 982.775 487.213 C 979.615 492.608 972.278 496.222 966.697 498.633 C 941.712 509.424 914.26 516.153 888.316 524.403 C 827.416 543.399 766.38 561.958 705.214 580.078 C 702.749 580.83 701.211 580.963 698.651 580.671 C 695.756 578.745 692.804 576.343 691.813 572.836 C 691.063 570.182 691.8 567.99 693.245 565.757 C 695.457 562.339 700.21 560.084 703.833 558.595 C 713.453 554.641 724.024 552.157 733.907 548.823 C 762.414 539.167 791.014 529.789 819.704 520.692 C 852.397 510.019 885.242 499.819 918.229 490.095 C 934.937 485.152 952.215 479.103 969.369 476.257 z"/>
<path transform="translate(0,0)" fill="rgb(37,32,66)" d="M 1175.1 1480.29 C 1176.36 1480.25 1177.81 1480.33 1178.97 1480.84 C 1181.37 1481.9 1182.36 1483.7 1183.27 1485.99 C 1183.35 1488.58 1183.09 1489.95 1181.37 1491.98 C 1171.93 1503.16 941.749 1584 921.033 1585.27 C 920.681 1585.12 920.321 1584.98 919.975 1584.82 C 916.118 1582.93 912.317 1579.33 911.08 1575.08 C 910.35 1572.57 910.274 1569.99 911.74 1567.69 C 918.407 1557.24 1148.43 1484.28 1175.1 1480.29 z"/>
<path transform="translate(0,0)" fill="rgb(37,32,66)" d="M 968.256 725.175 C 970.197 724.845 973.047 724.54 974.976 725.04 C 977.753 725.761 979.019 727.136 980.705 729.327 C 980.75 731.071 981.031 731.836 980.143 733.409 C 969.203 752.779 787.03 801.615 753.74 811.962 C 751.288 812.396 749.031 812.584 746.657 811.579 C 743.783 810.363 742.088 807.409 741.275 804.533 C 740.561 802.003 740.474 798.901 742.125 796.688 C 750.491 785.471 940.246 732.087 968.256 725.175 z"/>
<path transform="translate(0,0)" fill="rgb(254,254,254)" d="M 335.932 90.4644 L 1098.56 91.0402 C 1253.21 90.3032 1407.87 90.3434 1562.52 91.1608 C 1630.47 91.3632 1698.74 89.4423 1766.64 91.2224 C 1805.22 92.2339 1852.69 104.084 1880 133.12 C 1913.04 168.242 1923.14 224.847 1928.29 271.419 C 1931.54 300.846 1931.15 330.075 1931.03 359.626 L 1931.04 440.757 L 1930.95 760.427 L 1931.13 1291.42 C 1931.49 1351.72 1931.51 1412.03 1931.17 1472.32 C 1931.29 1516.53 1932.13 1560.65 1930.97 1604.86 C 1889.39 1607.66 1847.27 1605.74 1805.58 1606.99 C 1821.85 1554.08 1839.04 1453.73 1839.05 1399.03 L 1838.74 1399.55 L 1838.93 1399.29 L 1839.42 1399.31 C 1839.65 1398.52 1839.94 1397.49 1840.25 1396.74 C 1848.27 1377.05 1842.56 1380.93 1843.29 1363.14 C 1846.07 1296.06 1844.44 1250 1831.36 1183.91 C 1826.31 1158.33 1816.33 1118.37 1797.15 1099.8 C 1792.55 1095.35 1786.57 1092.75 1781.36 1089.14 C 1773.22 1083.49 1772.63 1076.88 1770.93 1067.82 C 1781.31 1056.48 1791.13 1043.16 1792 1027.2 C 1792.7 1014.45 1787.03 1005.54 1779.07 996.305 C 1797.27 975.837 1829.54 924.235 1840.84 899.598 C 1845.15 890.197 1848.54 880.441 1850.35 870.241 C 1855.65 840.367 1848.6 807.06 1830.86 782.346 C 1813.86 758.664 1785.57 740.847 1756.74 736.276 C 1730.41 732.102 1700.23 739.541 1679.25 756.199 C 1662.97 769.124 1651.61 790.753 1639.81 807.605 C 1629.89 821.771 1619.17 835.362 1609.21 849.503 C 1596.4 867.698 1584.34 886.601 1572.26 905.292 C 1559.27 925.388 1547.96 946.555 1534.86 966.559 C 1514.88 997.073 1492.5 1025.91 1472.47 1056.39 C 1465.59 1066.86 1439.73 1110.57 1430.79 1116.47 C 1429.03 1117.63 1427.45 1117.63 1425.41 1117.17 C 1422.18 1116.45 1420.87 1116.36 1417.67 1117.34 C 1415.08 1119.39 1414.06 1121.43 1412.54 1124.33 C 1409.21 1130.66 1408.01 1129.8 1401.73 1131.74 C 1399.95 1133.61 1399.66 1134.62 1399.29 1137.16 C 1401.36 1141.86 1402.27 1144.16 1400.36 1149.16 C 1400.12 1149.79 1399.87 1150.41 1399.62 1151.03 C 1400.81 1154.32 1403.93 1156.51 1406.49 1158.77 C 1398.85 1172.55 1389.6 1185.37 1378.93 1196.97 C 1371.65 1157.59 1363.22 1118.51 1355.31 1079.26 L 1321.99 911.217 C 1296.91 775.456 1267.05 640.589 1241.14 504.986 L 1200.44 294.401 C 1194.43 263.047 1190.36 230.71 1182.99 199.695 C 1181.01 191.34 1177.98 182.444 1172.82 175.519 C 1162.2 161.29 1146.4 156.123 1129.63 153.785 C 1126.93 151.544 1124.15 149.41 1121.28 147.387 C 1100.31 132.842 1070.56 129.705 1045.91 134.273 C 1028.64 137.473 1011.77 142.916 994.72 147.127 L 871.107 178.303 C 738.567 213.459 606.371 249.9 474.538 287.621 C 413.196 304.572 351.955 321.885 290.817 339.56 L 236.583 354.842 C 225.267 358.042 213.339 360.89 202.466 365.394 C 189.325 370.837 176.643 380.951 168.681 392.763 C 159.677 406.123 156.082 421.807 156.573 437.78 C 157.379 463.997 164.031 490.955 167.711 516.977 C 181.674 615.711 201.409 713.522 220.746 811.3 L 289.906 1157.99 C 321.81 1306.75 352.25 1455.81 381.222 1605.16 C 360.839 1606.28 340.371 1605.5 319.971 1605.36 L 194.136 1603.77 C 168.826 1603.53 143.381 1602.91 118.156 1605.29 L 117.892 702.364 L 117.435 441.702 C 117.306 382.824 114.506 322.061 122.001 263.622 C 127.621 219.793 138.914 174.929 170.224 142.029 C 214.824 95.1632 275.649 91.9526 335.932 90.4644 z"/>
<path transform="translate(0,0)" fill="rgb(37,32,66)" d="M 1525.2 237.699 C 1654.5 230.692 1764.99 329.852 1771.97 459.158 C 1778.94 588.463 1679.75 698.929 1550.44 705.866 C 1421.18 712.801 1310.77 613.657 1303.8 484.401 C 1296.83 355.146 1395.94 244.704 1525.2 237.699 z"/>
<path transform="translate(0,0)" fill="rgb(254,254,254)" d="M 1524.71 263.227 C 1640.27 255.477 1740.22 342.914 1747.89 458.477 C 1755.57 574.041 1668.07 673.929 1552.5 681.533 C 1437.04 689.129 1337.26 601.725 1329.59 486.264 C 1321.92 370.804 1409.26 270.969 1524.71 263.227 z"/>
<path transform="translate(0,0)" fill="rgb(37,32,66)" d="M 1525.7 289.929 C 1626.33 282.507 1713.91 358.084 1721.3 458.715 C 1728.69 559.345 1653.08 646.905 1552.45 654.261 C 1451.87 661.614 1364.36 586.051 1356.97 485.467 C 1349.58 384.883 1425.12 297.348 1525.7 289.929 z"/>
<path transform="translate(0,0)" fill="rgb(254,254,254)" d="M 1521.63 299.866 C 1616.87 290.188 1701.89 359.632 1711.43 454.891 C 1720.97 550.15 1651.4 635.071 1556.12 644.466 C 1461.05 653.841 1376.35 584.447 1366.83 489.389 C 1357.31 394.33 1426.58 309.523 1521.63 299.866 z"/>
<path transform="translate(0,0)" fill="rgb(37,32,66)" d="M 1524.17 357.264 C 1536.69 356.893 1556.85 354.882 1566.69 363.653 C 1569.82 366.446 1571.67 370.024 1572.58 374.092 C 1575.56 387.332 1571.7 425.482 1572.28 442.628 C 1591.52 443.453 1625.65 440.871 1642.39 444.562 C 1646.73 445.52 1652.79 447.487 1655.16 451.618 C 1659.46 459.109 1661.28 486.436 1659.08 494.895 C 1657.41 501.295 1653.13 504.469 1647.73 507.785 C 1623.09 508.944 1598.25 506.801 1573.53 507.643 C 1573.02 526.307 1578.46 577.93 1569.35 591.462 C 1565.9 596.586 1560.94 597.765 1555.19 598.86 C 1543.85 598.593 1521.65 601.646 1513.42 592.993 C 1509.99 589.384 1508.27 584.437 1507.48 579.609 C 1506.05 570.961 1506.93 561.4 1507.05 552.64 C 1507.38 536.82 1507.52 520.998 1507.46 505.175 C 1481.27 504.295 1454.82 506.017 1428.72 503.587 C 1426.35 502.12 1424.13 500.426 1422.26 498.338 C 1412.85 487.77 1415.79 465.493 1416.11 452.136 C 1417.81 449.266 1419.8 446.517 1422.16 444.144 C 1424.18 442.111 1426.6 441.048 1429.39 440.519 C 1439.08 438.684 1450.07 439.749 1459.92 439.873 C 1475.5 440.142 1491.08 440.247 1506.66 440.188 C 1507.04 428.466 1507.24 416.738 1507.27 405.01 C 1507.2 395.82 1506.3 385.958 1507.52 376.844 C 1508.14 372.295 1509.55 367.457 1512.24 363.681 C 1515.27 359.454 1519.28 358.218 1524.17 357.264 z"/>
<path transform="translate(0,0)" fill="rgb(37,32,66)" d="M 335.499 158.484 C 346.178 164.481 344.609 182.925 354.435 190.918 C 360.59 195.924 373.66 196.964 377.351 204.346 C 375.111 209.554 358.204 214.788 352.649 218.133 L 351.362 218.916 C 346.045 228.564 342.78 239.255 339.304 249.664 L 337.316 249.856 C 329.159 245.321 328.691 227.442 321.866 220.02 C 315.691 213.305 303.571 212.912 297.382 205.396 C 297.302 204.708 296.955 203.998 297.141 203.331 C 297.778 201.049 317.05 193.997 320.403 190.959 C 329.404 182.807 328.699 168.236 335.499 158.484 z"/>
<path transform="translate(0,0)" fill="rgb(254,254,254)" d="M 336.365 178.621 C 347.258 190.789 344.008 197.665 361.504 204.163 L 345.638 212.009 C 342.481 217.527 340.281 223.29 338 229.206 C 336.01 229.228 334.967 226.524 334.157 224.918 C 328.25 213.208 324.554 210.213 312.782 204.307 C 326.699 197.697 329.102 191.545 336.365 178.621 z"/>
<path transform="translate(0,0)" fill="rgb(37,32,66)" d="M 1283.19 166.744 C 1283.52 166.896 1283.87 167.026 1284.19 167.198 C 1290.98 170.823 1292.9 187.563 1294.87 194.824 C 1301.07 200.246 1319.18 207.453 1321.42 213.68 C 1317.56 219.639 1307.02 220.284 1300.62 222.666 C 1292.02 225.869 1287.23 242.125 1283.95 250.183 C 1282.2 250.581 1280.93 250.475 1279.16 250.244 C 1272.21 245.02 1269.41 230.626 1266.66 222.606 C 1262.27 219.857 1257.59 217.514 1253.32 214.565 C 1250.05 212.304 1246.49 209.89 1245.69 205.875 C 1250.22 200.593 1262.46 201.25 1268.6 195.403 C 1276.12 188.24 1276.76 175.242 1283.19 166.744 z"/>
<path transform="translate(0,0)" fill="rgb(254,254,254)" d="M 1282.69 188.855 C 1283.63 189.883 1283.19 189.268 1283.95 190.942 C 1288.66 201.319 1293.25 206.327 1302.78 212.401 C 1301.66 212.708 1301.21 212.8 1300.2 213.167 C 1290.8 216.574 1285.89 226.567 1281.95 234.965 L 1281.25 235.486 C 1278.34 233.358 1276.65 222.82 1273.65 218.817 C 1270.57 214.696 1265.64 211.706 1261.46 208.774 C 1273.29 204.186 1276.73 200.037 1282.69 188.855 z"/>
<path transform="translate(0,0)" fill="rgb(37,32,66)" d="M 270.214 1474.56 C 272.269 1474.68 273.594 1475.16 275.465 1476.01 C 281.152 1482.42 279.097 1494.37 278.996 1502.44 C 282.471 1506.07 286.777 1509.22 290.01 1513.01 C 291.829 1515.14 293.551 1517.52 293.399 1520.41 C 289.227 1524.93 275.926 1523.12 269.713 1525.16 C 269.36 1525.27 269.011 1525.4 268.66 1525.52 C 265.405 1529.58 262.172 1533.16 258.372 1536.72 C 256.431 1536.92 255.206 1536.74 253.336 1536.19 C 248.467 1531 249.884 1522.21 249.876 1515.54 C 246.196 1509.66 239.837 1505.81 236.782 1499.59 C 235.517 1497.02 235.425 1496.04 236.309 1493.35 C 241.745 1489.41 248.284 1491.08 254.548 1491.71 C 260.412 1486.73 265.112 1480.31 270.214 1474.56 z"/>
<path transform="translate(0,0)" fill="rgb(254,254,254)" d="M 269.267 1488.66 C 270.897 1493.07 270.026 1499.73 270.018 1504.47 C 273.046 1508.76 276.886 1512.32 280.598 1516.02 C 272.212 1516.09 266.322 1516.02 259.77 1521.83 C 257.455 1512.04 252.866 1505.76 246.207 1498.53 C 249.934 1498.96 254.462 1499.9 258.173 1499.45 C 263.5 1498.81 266.588 1492.66 269.267 1488.66 z"/>
<path transform="translate(0,0)" fill="rgb(37,32,66)" d="M 220.758 237.223 L 224.395 238.163 C 228.977 242.652 228.079 258.041 228.52 264.382 C 234.739 264.033 241.673 262.626 246.982 266.562 L 247.139 268.341 C 241.966 273.255 234.863 272.548 228.165 272.928 C 228.284 281.633 229.094 291.305 226.894 299.773 L 222.842 299.289 C 217.52 294.048 219.139 280.186 219.027 273.123 C 214.082 272.692 207.144 272.902 202.853 270.325 C 200.799 269.092 201.468 269.855 200.79 267.484 C 201.043 267.221 201.271 266.931 201.55 266.696 C 205.653 263.243 213.821 264.33 218.899 264.36 C 218.915 255.944 217.736 245.157 220.758 237.223 z"/>
<path transform="translate(0,0)" fill="rgb(37,32,66)" d="M 1817.87 283.316 C 1819.4 283.691 1820.69 284.243 1822.14 284.86 C 1826.37 290.601 1825.1 301.169 1825.14 308.128 C 1830.09 308.05 1837.27 307.117 1841.85 309.03 C 1844.07 309.955 1844.32 309.84 1845.25 312.157 C 1844.98 312.465 1844.74 312.802 1844.45 313.082 C 1839.97 317.316 1830.8 316.717 1824.99 317.116 L 1825.03 339.641 C 1823 339.997 1822.1 339.964 1820.19 339.178 C 1816.35 332.403 1817.27 323.933 1817.21 316.381 C 1812.04 316.104 1804.96 316.518 1800.55 313.548 C 1798.8 312.369 1799.37 313.047 1798.9 310.838 C 1799.17 310.574 1799.41 310.278 1799.7 310.045 C 1803.91 306.686 1812.09 308.051 1817.18 308.283 C 1817.03 300.038 1816.56 291.474 1817.87 283.316 z"/>
<path transform="translate(0,0)" fill="rgb(254,254,254)" d="M 1652.08 1622.2 C 1674.15 1623.36 1696.81 1623.34 1718.89 1622.22 C 1721.31 1644.93 1719.95 1689.51 1728.1 1708.7 C 1730.89 1715.27 1734 1718.63 1740.56 1721.35 C 1738.08 1735.23 1736.54 1749.26 1735.96 1763.35 C 1721.69 1762.89 1700.77 1755.29 1688.09 1763.55 C 1684.68 1765.77 1683.7 1768.18 1682.96 1772.02 C 1682.27 1775.64 1671.99 1780.29 1668.79 1782.17 C 1649 1793.77 1633.76 1811.75 1615.4 1825.49 C 1646.11 1820.23 1674.21 1804.22 1697.03 1783.15 C 1704.48 1784.83 1711.87 1786.99 1719.25 1788.95 C 1712.82 1797.21 1704.58 1804.24 1697.02 1811.45 C 1716.02 1803.97 1734.32 1794.71 1753.51 1787.82 C 1755.71 1781.53 1757.18 1775.58 1756.91 1768.86 C 1763.01 1762.29 1768.69 1755.54 1774.24 1748.5 C 1767.69 1752.02 1761.44 1756.02 1754.81 1759.42 C 1755.04 1747.37 1756.67 1734.9 1758.34 1722.96 C 1761.47 1722.5 1766.26 1721.98 1768.9 1720.15 C 1779.8 1712.58 1795.21 1642.44 1799.75 1625.37 C 1843.71 1625.05 1887.68 1624.97 1931.64 1625.14 C 1931.89 1660.75 1931.89 1696.36 1931.64 1731.98 C 1931.64 1759.39 1934.24 1789.03 1928.55 1815.88 C 1923.85 1838.06 1913.39 1861.46 1897.4 1877.82 C 1873.08 1902.73 1834.49 1913.74 1801 1918.25 C 1759.25 1923.86 1712.6 1921.02 1670.26 1920.97 L 1464.3 1921.26 L 666.585 1919.24 C 684.564 1911.65 703.513 1906.06 721.972 1899.73 C 757.215 1887.38 792.635 1875.53 828.221 1864.2 C 834.545 1861.49 841.43 1859.75 848.02 1857.76 C 819.411 1875.18 792.04 1895.02 764.289 1913.8 C 798.586 1903.59 845.261 1875.09 876.477 1856.7 C 887.385 1850.27 898.083 1843.2 909.489 1837.68 C 931.887 1826.83 958.983 1820.46 982.915 1813.55 C 992.884 1810.67 1010.55 1803.28 1019.04 1802.38 L 1019.3 1803.15 C 989.412 1810.55 894.574 1877.46 863.588 1899.35 C 901.439 1884.99 940.361 1865.48 973.698 1842.4 C 988.174 1832.39 1002.54 1821.68 1016.52 1810.99 C 1022.51 1806.4 1028.08 1799.36 1035.18 1796.72 C 1044.37 1793.32 1054.12 1790.82 1063.47 1787.83 L 1122.23 1768.78 L 1328.68 1704.45 C 1353.11 1696.87 1421.08 1678.61 1439.74 1666.87 C 1454.78 1657.4 1462.18 1641.26 1465.97 1624.6 C 1480.01 1623.93 1494.23 1624.52 1508.3 1624.36 C 1525.24 1624.18 1543.69 1622.49 1560.45 1625.18 C 1558.67 1656.87 1557.86 1688.61 1558.02 1720.36 C 1561.65 1724.78 1564.66 1727.01 1570.03 1729.13 C 1565.7 1744.68 1562.78 1759.89 1560.68 1775.88 C 1554.33 1774.63 1528.35 1772.17 1524.26 1769 C 1524.21 1766.27 1525.06 1765.53 1526.5 1763.27 L 1525.63 1762.82 C 1499.99 1769.63 1426.99 1828.23 1402.73 1847.61 C 1443.2 1829.95 1467.48 1815.29 1502.64 1788.39 C 1514.78 1794.62 1525.56 1797.58 1538.85 1800.22 C 1517.89 1809.62 1498.41 1824.01 1479.77 1837.27 C 1508.31 1829.96 1532.46 1818.05 1558.13 1804.01 C 1563.8 1804.1 1569.49 1804.47 1575.16 1804.72 C 1578.35 1802.81 1581.05 1800.29 1583.85 1797.86 C 1583.51 1794.14 1583.16 1790.84 1581.8 1787.34 C 1580.81 1784.81 1579.5 1781.96 1579.25 1779.24 C 1578.39 1769.99 1585.51 1741.31 1587.59 1730.72 C 1591.78 1730.23 1596.08 1729.71 1600.03 1728.13 C 1614.29 1722.43 1644.07 1640.94 1652.08 1622.2 z"/>
<path transform="translate(0,0)" fill="rgb(37,32,66)" d="M 1131.7 1783.16 L 1132.31 1783.64 C 1081.56 1826.58 1026.17 1863.07 964.476 1888 L 963.806 1887.63 C 967.537 1882.33 978.86 1876.45 984.364 1872.55 C 1001.44 1860.44 1018.33 1847.95 1035.96 1836.66 C 1066.73 1816.97 1099.1 1799.6 1131.7 1783.16 z"/>
<path transform="translate(0,0)" fill="rgb(37,32,66)" d="M 1218.83 1777.01 L 1219.15 1777.23 L 1219.26 1778.16 C 1169.65 1820.13 1114.08 1854.49 1054.35 1880.1 L 1053.33 1879.28 C 1060.17 1873.44 1068.77 1868.4 1076.08 1862.98 C 1121.42 1829.38 1168.77 1802.74 1218.83 1777.01 z"/>
<path transform="translate(0,0)" fill="rgb(37,32,66)" d="M 1387.39 1760.97 L 1387.99 1760.99 L 1388.48 1761.81 C 1333.79 1807.94 1303.85 1832.82 1237.23 1861 L 1236.04 1861.01 L 1235.51 1860.25 C 1285.61 1825.95 1333.47 1789.39 1387.39 1760.97 z"/>
<path transform="translate(0,0)" fill="rgb(37,32,66)" d="M 1302.95 1769.22 L 1303.48 1769.56 C 1294.83 1778.64 1283.57 1786.59 1273.75 1794.48 C 1247.38 1815.67 1220.73 1834.58 1190.56 1850.06 C 1177.28 1856.88 1163.29 1862.15 1149.97 1868.95 L 1149.49 1867.94 C 1157.95 1860.44 1168.04 1854.13 1177.18 1847.43 C 1192.26 1836.38 1207.3 1825.31 1223.11 1815.32 C 1249.11 1798.9 1276.26 1784.45 1302.95 1769.22 z"/>
<path transform="translate(0,0)" fill="rgb(37,32,66)" d="M 1456.7 1762.02 L 1457.48 1762.81 C 1414.67 1804.73 1380.71 1828.72 1324.35 1850.1 L 1323.81 1849.74 L 1323.93 1848.59 C 1366.8 1817.16 1411.42 1789.75 1456.7 1762.02 z"/>
<path transform="translate(0,0)" fill="rgb(37,32,66)" d="M 1650.35 1757.15 L 1650.33 1758.6 C 1619.74 1797.51 1596.51 1814.78 1551.94 1835 C 1551.87 1833.3 1576.59 1814.94 1581.11 1808.07 C 1583.1 1805.06 1584.05 1801.42 1585.06 1798 C 1605.62 1782.97 1628.48 1770.25 1650.35 1757.15 z"/>
<path transform="translate(0,0)" fill="rgb(37,32,66)" d="M 1827.92 1752.01 C 1828.32 1752.43 1828.33 1753.1 1828.49 1753.66 C 1810.66 1772.55 1794.86 1786.03 1771.06 1796.84 L 1770.73 1796.63 C 1773.72 1787.17 1816.74 1758.38 1827.92 1752.01 z"/>
<path transform="translate(0,0)" fill="rgb(254,254,254)" d="M 118.602 1624.89 C 152.703 1627.99 187.223 1626.35 221.405 1626.02 C 275.712 1625.31 330.024 1625.02 384.335 1625.16 L 430.763 1855.51 C 406.94 1870.91 384.021 1887.98 364.844 1909 C 390.312 1901.78 412.65 1886.17 434.028 1871.05 C 434.76 1873.17 435.568 1875.26 436.449 1877.32 C 446.628 1900.83 462.416 1913 485.791 1922.15 C 464.092 1922.36 442.372 1921.03 420.654 1921.08 C 379.361 1921.17 338.086 1922.34 296.795 1921.38 C 250.989 1920.3 173.918 1918.91 140.849 1883.66 C 129.941 1872.04 124.819 1855.8 121.977 1840.41 C 116.324 1809.81 118.513 1776.28 118.342 1745.19 C 118.121 1705.21 117.079 1664.82 118.602 1624.89 z"/>
<path transform="translate(0,0)" fill="rgb(37,32,66)" d="M 384.911 1853.89 C 386.435 1854.04 385.741 1853.74 386.934 1854.91 C 377.192 1873.88 343.212 1887.38 324.441 1895.44 L 323.091 1895.06 C 335.613 1877.3 365.661 1863.51 384.911 1853.89 z"/>
<path transform="translate(0,0)" fill="rgb(254,254,254)" d="M 1059.48 151.402 C 1073.44 150.927 1087.39 152.838 1100.71 157.051 C 1068.36 167.152 1034.41 174.195 1001.53 182.517 C 939.568 197.985 877.704 213.856 815.945 230.13 C 641.427 276.357 467.524 324.876 294.28 375.672 C 274.742 381.497 243.922 388.796 228.433 402.045 C 221.912 407.622 217.491 415.983 215.024 424.103 C 210.948 437.519 210.71 452.259 211.391 466.149 C 213.809 515.503 224.399 565.511 232.636 614.231 C 255.022 740.039 280.179 865.338 308.088 990.037 L 453.354 1679.22 C 463.919 1731.42 475.684 1783.51 486.696 1835.64 C 490.975 1855.89 495.985 1876.25 499.515 1896.64 C 500.101 1900.02 500.458 1901.84 498.813 1904.88 C 490.345 1902.29 482.412 1898.2 475.39 1892.81 C 466.943 1886.46 460.555 1878.97 457.371 1868.72 C 452.569 1853.25 450.184 1836.36 446.867 1820.47 L 424.9 1711.98 L 353.811 1370.02 C 309.323 1163.09 266.082 955.901 224.089 748.456 C 207.546 664.832 190.641 581.742 176.917 497.568 C 174.165 480.691 170.565 463.799 168.214 446.877 C 165.778 429.34 169.329 409.616 180.434 395.48 C 187.458 386.539 197.282 379.712 207.895 375.733 C 226.044 368.929 245.208 364.404 263.894 359.302 L 346.931 336.236 C 468.77 302.102 590.923 269.103 713.376 237.243 C 794.668 215.864 875.771 194.439 957.473 174.624 C 990.851 166.529 1025.34 154.959 1059.48 151.402 z"/>
<path transform="translate(0,0)" fill="rgb(254,254,254)" d="M 1578.93 930.648 C 1582.96 933.101 1587.24 937.651 1591.01 940.713 C 1575.87 966.242 1556.31 989.961 1539.11 1014.18 C 1519.75 1041.44 1501.87 1069.79 1483.1 1097.45 C 1472.73 1112.75 1456.95 1131.77 1449.76 1148.12 C 1448.15 1151.79 1447.66 1155.37 1449.23 1159.15 C 1456.14 1175.72 1505.56 1201.79 1522.42 1208.12 C 1551.27 1218.95 1592.18 1226.52 1621.42 1213.07 C 1653.74 1198.2 1701.59 1143.62 1713.33 1111.2 C 1723.18 1116.58 1733.19 1121.65 1744.02 1124.76 C 1762.28 1130 1778.48 1130.5 1795.51 1120.99 C 1823.83 1176.97 1830.56 1276.08 1828.17 1338.82 C 1827.63 1353.12 1827.24 1367.88 1824.55 1381.95 C 1785.93 1399.1 1743.89 1403.34 1702.1 1403.09 C 1670.62 1403.25 1625.09 1398.35 1600.5 1377.83 C 1605.81 1344.72 1609.88 1310.03 1619.33 1277.85 C 1623.76 1276.74 1628.21 1275.64 1632.59 1274.32 C 1660.83 1265.84 1685.37 1246.72 1703.4 1223.82 C 1706.73 1219.59 1710.47 1215.34 1712.98 1210.57 C 1711.31 1210.46 1708.45 1214.83 1707.21 1216.25 C 1699.52 1225.05 1689.84 1233.03 1679.84 1239.06 C 1624.86 1272.22 1569.55 1263.9 1517.43 1229.51 C 1500 1218.01 1484.24 1204.21 1468.25 1190.84 C 1459.19 1183.26 1446.2 1167.03 1436.85 1162.49 C 1431.7 1159.98 1425.31 1158.89 1419.76 1157.48 C 1424.89 1157.41 1430.89 1157.68 1435.81 1156.27 C 1437.78 1155.7 1438.27 1155.72 1439.35 1153.9 C 1435.33 1149.42 1419.99 1148.8 1413.8 1143.6 L 1414.38 1142.71 C 1418.91 1144.53 1423.5 1146.36 1428.22 1147.6 C 1431.2 1148.38 1433.46 1148.97 1436.2 1147.37 L 1436.29 1145.54 C 1434.22 1141.13 1428.2 1137.97 1424.68 1134.55 L 1423.54 1133.43 C 1428.38 1135.84 1434.07 1138.14 1438.37 1141.4 C 1441.94 1144.12 1440.54 1149.4 1440.91 1153.43 C 1441.53 1153.34 1442.16 1153.32 1442.77 1153.18 C 1445.1 1152.65 1447.57 1150.26 1448.49 1148.18 C 1451 1142.47 1447.72 1134.6 1445.95 1129.04 C 1448.13 1122.98 1453.23 1117.47 1456.75 1112.07 C 1471.21 1089.89 1486.8 1068.57 1501.65 1046.67 L 1554.12 968.567 C 1562.48 955.974 1570.22 943.006 1578.93 930.648 z"/>
<path transform="translate(0,0)" fill="rgb(254,254,254)" d="M 1578.84 1274.81 C 1588.67 1277.61 1598.24 1277.98 1608.41 1277.95 C 1601.11 1301.26 1581.56 1360.65 1584.44 1383.99 C 1586 1396.57 1580.1 1415.01 1578.12 1428.12 C 1575.2 1448.4 1572.47 1468.7 1569.93 1489.04 C 1565.42 1526.27 1562.86 1563.94 1560.95 1601.39 C 1533.73 1603.3 1500.58 1601.63 1472.75 1601.78 C 1470.97 1601.91 1470.21 1601.8 1468.54 1601.37 C 1463.51 1584.42 1460.55 1566.7 1457.15 1549.37 C 1451.95 1523.65 1447.15 1497.86 1442.75 1471.99 C 1458.87 1447.21 1477.3 1423.83 1494.11 1399.49 C 1522.67 1358.16 1550.14 1316.02 1578.84 1274.81 z"/>
<path transform="translate(0,0)" fill="rgb(254,254,254)" d="M 1737.61 752.43 C 1757.06 751.28 1778.57 758.461 1794.83 768.838 C 1815.21 781.842 1828.2 803.008 1833.19 826.426 C 1842.86 871.8 1820.86 903.621 1797.15 939.716 C 1787.56 932.419 1777.34 925.83 1767.39 919.037 C 1746.19 904.657 1725.82 889.087 1704.96 874.233 C 1684.81 859.885 1663.74 846.144 1644.51 830.577 C 1655.05 814.486 1666.01 796.688 1678.5 782.078 C 1693.63 764.366 1714.48 754.294 1737.61 752.43 z"/>
<path transform="translate(0,0)" fill="rgb(254,254,254)" d="M 1233.46 1444.88 C 1252.78 1452.86 1274.64 1469.81 1292.28 1481.68 C 1320.96 1500.99 1349.76 1520.48 1379.1 1538.76 C 1349.38 1551.33 1320.13 1566.3 1290.83 1579.96 C 1281.55 1584.3 1272.13 1588.52 1263.18 1593.5 C 1255.55 1597.75 1248.4 1602.67 1240.64 1606.72 C 1246.43 1599.41 1253.75 1593.35 1260.66 1587.13 C 1249.87 1576.54 1234.33 1566.68 1220.52 1560.41 C 1216.88 1569.17 1212.38 1577.58 1208.08 1586.03 C 1210.82 1570.8 1215.84 1555.39 1218.59 1539.17 C 1221.8 1520.02 1224.87 1500.84 1227.8 1481.64 C 1229.62 1469.4 1230.88 1456.99 1233.46 1444.88 z"/>
<path transform="translate(0,0)" fill="rgb(254,254,254)" d="M 1634.26 844.581 C 1642.79 847.88 1659.39 862.449 1667.58 868.445 C 1694.25 888.269 1721.15 907.782 1748.28 926.98 C 1761.32 936.157 1774.18 946.132 1788.1 953.904 C 1780.67 963.933 1774.39 974.816 1767.86 985.446 C 1765.13 985.295 1726.3 954.68 1721.47 951.144 C 1685.99 925.157 1649.96 899.82 1614.17 874.257 C 1619.93 864.025 1627.55 854.248 1634.26 844.581 z"/>
<path transform="translate(0,0)" fill="rgb(254,254,254)" d="M 1772.73 1415.34 C 1773.62 1415.15 1775.28 1415.2 1776.22 1415.16 L 1775.95 1416.29 C 1763.47 1425.51 1714.55 1465.97 1713.22 1465.92 C 1713.2 1464.13 1713.42 1463.38 1712.53 1461.79 C 1695.89 1465.15 1693.3 1490.7 1685.25 1502.66 C 1680.2 1510.17 1645 1537.49 1635.44 1545.77 C 1617.92 1561.08 1600.81 1576.84 1584.1 1593.02 L 1577.75 1599.72 C 1578.55 1586.57 1579 1573.39 1579.11 1560.21 C 1632 1512.86 1686.26 1467.22 1739.44 1420.24 C 1750.59 1419 1761.65 1417.11 1772.73 1415.34 z"/>
<path transform="translate(0,0)" fill="rgb(254,254,254)" d="M 1490.12 1229.62 C 1494.53 1232.77 1498.21 1236.81 1502.02 1240.64 C 1466.82 1293.89 1430.36 1346.35 1394.6 1399.24 L 1356.3 1455.89 C 1348.76 1466.98 1341.38 1478.81 1332.75 1489.08 C 1329.47 1488.16 1326.23 1487.22 1323.3 1485.4 C 1320.7 1483.78 1319.89 1482.22 1319.29 1479.3 C 1325.35 1467.78 1334.7 1456.88 1342.07 1446.06 L 1387.76 1378.12 L 1444.06 1295.59 C 1458.75 1273.63 1472.95 1249.65 1490.12 1229.62 z"/>
<path transform="translate(0,0)" fill="rgb(254,254,254)" d="M 1605.68 886.382 C 1625.01 896.612 1650.77 917.798 1668.79 931.343 C 1687.29 945.255 1707.41 958.072 1723.69 974.583 C 1718.78 975.152 1710.75 975.043 1706.55 977.468 C 1703.92 978.989 1703.9 992.945 1702.95 996.984 L 1702.54 998.719 L 1701.77 1001.36 C 1699.06 1000.83 1605.91 927.902 1585.95 918.784 C 1592.07 907.707 1598.92 897.078 1605.68 886.382 z"/>
<path transform="translate(0,0)" fill="rgb(254,254,254)" d="M 1652.86 984.76 C 1659.02 987.91 1664.18 991.9 1669.52 996.239 C 1650.33 1016.71 1635.51 1042.98 1619.55 1066.14 L 1532.29 1190.74 C 1526.64 1189.64 1520.95 1187.52 1515.43 1185.81 C 1538.2 1149.1 1564.14 1113.93 1588.46 1078.19 C 1609.66 1047.01 1629.45 1014.31 1652.86 984.76 z"/>
<path transform="translate(0,0)" fill="rgb(254,254,254)" d="M 1419.95 1168.63 C 1421.97 1169.08 1423.98 1169.58 1425.99 1170.1 C 1429.12 1170.93 1431.98 1171.8 1433.7 1174.79 C 1433.13 1177.74 1431.74 1180.17 1430.07 1182.64 C 1422.48 1193.94 1413.52 1204.43 1405.7 1215.61 C 1370.01 1266.25 1334.95 1317.34 1300.54 1368.87 C 1285.91 1390.92 1270.73 1412.2 1257.33 1435.07 C 1255.59 1435.64 1253.35 1436.18 1251.48 1435.89 C 1248.52 1435.42 1248.09 1434.9 1246.35 1432.69 C 1246 1429.29 1246.68 1427.2 1248.26 1424.18 C 1254.25 1412.75 1262.69 1401.95 1269.87 1391.24 C 1282.36 1372.58 1294.55 1353.78 1307.26 1335.27 C 1345.17 1280.05 1383.39 1224.74 1419.95 1168.63 z"/>
<path transform="translate(0,0)" fill="rgb(254,254,254)" d="M 1690.36 1421 C 1701.92 1421.28 1713.48 1421.25 1725.04 1420.9 C 1699.14 1441.93 1673.09 1463.72 1648.37 1486.12 C 1632.13 1500.83 1616.57 1516.26 1600.35 1530.99 C 1593.51 1536.53 1587.13 1542.79 1580.63 1548.74 C 1581.08 1537.22 1581.64 1525.72 1582.32 1514.22 C 1593.8 1503.84 1604.72 1492.86 1616.23 1482.49 C 1640.22 1461.15 1664.95 1440.63 1690.36 1421 z"/>
<path transform="translate(0,0)" fill="rgb(254,254,254)" d="M 1817.77 1436.95 C 1820.7 1441.57 1815.71 1466.67 1814.56 1473.82 C 1799.88 1487.1 1783.78 1498.78 1769.06 1512.08 C 1761.83 1518.61 1730.57 1551.04 1725.59 1552.99 L 1724.67 1551.73 L 1718.96 1527.06 C 1741.21 1497.03 1788.01 1462.24 1817.77 1436.95 z"/>
<path transform="translate(0,0)" fill="rgb(254,254,254)" d="M 1819.62 1401.89 L 1821.38 1402.37 C 1822.51 1409.07 1821.3 1416.84 1820.86 1423.65 C 1811.98 1428.59 1803.65 1435.8 1795.69 1442.15 C 1768.98 1463.45 1744.38 1486.82 1719.52 1510.2 C 1715.59 1502.03 1716.09 1489.32 1715.63 1480.21 C 1725.56 1468.53 1787.35 1416.95 1800.85 1409.05 C 1806.25 1405.89 1813.71 1404.43 1819.62 1401.89 z"/>
<path transform="translate(0,0)" fill="rgb(254,254,254)" d="M 1674.35 1525.91 C 1675.26 1526.37 1674.8 1525.99 1675.29 1527.45 C 1668.18 1541.66 1663.71 1558.26 1655.5 1571.74 C 1647.27 1585.27 1632.39 1595.77 1620.73 1606.25 C 1606 1619.41 1591.4 1632.7 1576.92 1646.13 C 1573.46 1641.66 1576 1620.87 1576.23 1614.52 C 1592.53 1590.57 1650.22 1543.22 1674.35 1525.91 z"/>
<path transform="translate(0,0)" fill="rgb(254,254,254)" d="M 1812.77 1487.94 C 1814.11 1495.32 1806.62 1519 1804.35 1527.13 C 1788.12 1540.59 1771.54 1553.01 1756.35 1567.72 C 1750.78 1573.11 1739.26 1587.89 1733.48 1590.83 L 1731.98 1589.8 C 1730.31 1582.18 1729.11 1574.4 1727.69 1566.74 C 1742.73 1550.95 1757.57 1534.81 1773.68 1520.1 C 1786.1 1508.76 1799.65 1498.46 1812.77 1487.94 z"/>
<path transform="translate(0,0)" fill="rgb(254,254,254)" d="M 1700.49 1508.74 C 1701.33 1533.74 1707.09 1557.03 1712.67 1581.21 C 1714.2 1587.82 1715.02 1594.53 1716.73 1601.09 C 1704.34 1601.83 1691.98 1602.05 1679.58 1602.2 L 1660.87 1602.03 C 1669.07 1583.79 1676.96 1565.42 1684.53 1546.92 C 1689.68 1534.26 1694.25 1520.87 1700.49 1508.74 z"/>
<path transform="translate(0,0)" fill="rgb(254,254,254)" d="M 1713.28 1091.72 C 1716.02 1092.63 1718.72 1096.51 1720.73 1098.71 C 1734.18 1099.87 1746.98 1098.73 1760.18 1096.07 C 1764.79 1103.7 1774.6 1109.58 1775.91 1113.44 L 1774.64 1114.92 C 1753.37 1120.62 1731.26 1105.82 1711.01 1101.98 C 1705.78 1103.61 1707.61 1111.75 1704.92 1115.99 C 1697.36 1127.88 1687.6 1138.24 1678.08 1148.57 C 1664.36 1164.02 1648.44 1176.94 1632.43 1189.89 C 1654.4 1157.96 1675.2 1124.96 1696.05 1092.29 C 1702.26 1093.3 1707.4 1094.56 1713.28 1091.72 z"/>
<path transform="translate(0,0)" fill="rgb(254,254,254)" d="M 1647.37 1414.78 C 1657.01 1416.6 1666.75 1417.54 1676.34 1419.7 C 1649.17 1440.98 1622.14 1464.28 1597.87 1488.81 C 1593.01 1494.03 1588.42 1499.47 1583.81 1504.91 C 1585.1 1491.49 1586.63 1478.09 1588.4 1464.72 L 1588.7 1464.51 C 1609.8 1450.22 1627.62 1430.89 1647.37 1414.78 z"/>
<path transform="translate(0,0)" fill="rgb(254,254,254)" d="M 1799.51 1543.85 L 1800.33 1544.51 C 1801.88 1553.31 1791.88 1570.44 1790.77 1580.5 C 1776.8 1590.23 1764.43 1603.36 1752.94 1615.88 C 1749.22 1619.93 1741.27 1631.01 1736.82 1632.3 C 1735.51 1623.26 1734.12 1614.24 1732.63 1605.23 C 1753.56 1583.85 1774.39 1560.32 1799.51 1543.85 z"/>
<path transform="translate(0,0)" fill="rgb(254,254,254)" d="M 1706.23 1012.9 C 1713.3 1018.76 1718.38 1026.03 1726.18 1031.28 C 1728.87 1030.79 1732.29 1029.84 1735.01 1030.23 C 1737.29 1030.55 1739.8 1032.41 1741.06 1034.28 C 1742.56 1036.5 1742.59 1038.86 1741.71 1041.31 C 1740.07 1045.86 1736.99 1047.37 1732.76 1049.22 C 1731.44 1056.82 1730.54 1063 1725.75 1069.34 C 1723.5 1071 1721.32 1072.5 1718.69 1073.48 C 1714.33 1075.11 1709.43 1075.64 1705.14 1073.51 C 1699.75 1070.84 1696.53 1065.04 1695.02 1059.44 C 1690.29 1041.9 1698.12 1027.65 1706.23 1012.9 z"/>
<path transform="translate(0,0)" fill="rgb(254,254,254)" d="M 1643.64 1596.97 L 1644.19 1597.46 C 1644.18 1598.13 1644.25 1598.8 1644.15 1599.46 C 1643.35 1604.37 1639.45 1611.64 1637.59 1616.44 C 1633.96 1625.8 1630.18 1636.04 1624.33 1644.28 C 1613.67 1659.28 1590.03 1675.18 1575.11 1687.09 L 1574.46 1686.47 C 1572.29 1678.93 1574.53 1667.26 1575.16 1659.46 C 1597.59 1638.19 1621.53 1618.55 1643.64 1596.97 z"/>
<path transform="translate(0,0)" fill="rgb(254,254,254)" d="M 1788.8 1591.84 C 1789.64 1601.64 1783.06 1619.9 1780.41 1630.17 C 1765.37 1643.46 1753.32 1660.94 1739.21 1675.37 C 1738.18 1665.43 1737.77 1655.54 1737.43 1645.56 C 1744.7 1637.06 1753.24 1629.35 1761.09 1621.35 C 1770.52 1611.71 1779.58 1601.68 1788.8 1591.84 z"/>
<path transform="translate(0,0)" fill="rgb(254,254,254)" d="M 1599.55 1400.19 C 1611.53 1405.97 1623.52 1409.65 1636.45 1412.67 C 1626.58 1421.1 1617.34 1430.17 1608.03 1439.21 L 1589.06 1458.46 C 1592.97 1439.11 1596.46 1419.68 1599.55 1400.19 z"/>
<path transform="translate(0,0)" fill="rgb(254,254,254)" d="M 1616.49 1664.04 C 1616.49 1664.56 1616.58 1665.09 1616.48 1665.6 C 1615.07 1673.45 1596.72 1710.85 1591.23 1714.89 C 1586.78 1718.16 1580.94 1716.87 1575.99 1715.93 C 1573.21 1709.8 1574.12 1705.2 1575.13 1698.8 C 1589.23 1687.6 1602.64 1675.54 1616.49 1664.04 z"/>
<path transform="translate(0,0)" fill="rgb(254,254,254)" d="M 1775.58 1647.83 C 1776.05 1657.39 1760.54 1697.28 1756.95 1708.12 C 1752.24 1707.92 1747.85 1707.19 1743.24 1706.29 C 1741.43 1700.01 1740.99 1693.29 1740.23 1686.81 C 1752.36 1674.1 1764.29 1661.3 1775.58 1647.83 z"/>
<path transform="translate(0,0)" fill="rgb(254,254,254)" d="M 1738.92 1058.35 C 1745.37 1062.84 1750.41 1073.66 1756.08 1079.79 L 1757.23 1081.02 C 1755.31 1082.83 1752.36 1082.65 1749.76 1083.04 C 1743.67 1083.97 1737.48 1084.57 1731.35 1085.33 C 1736.49 1076 1739.42 1069.05 1738.92 1058.35 z"/>
</svg>