<svg preserveAspectRatio="xMidYMid meet" version="1.1" xmlns="http://www.w3.org/2000/svg" style="display: block;" viewBox="0 0 2048 2048" width="1024" height="1024">
<defs>
	<linearGradient id="Gradient1" gradientUnits="userSpaceOnUse" x1="834.304" y1="651.183" x2="853.696" y2="629.817">
		<stop class="stop0" offset="0" stop-opacity="1" stop-color="rgb(17,40,71)"/>
		<stop class="stop1" offset="1" stop-opacity="1" stop-color="rgb(41,66,91)"/>
	</linearGradient>
</defs>
<path transform="translate(0,0)" fill="rgb(254,254,254)" d="M 0 0 L 2048 0 L 2048 2048 L 0 2048 L 0 0 z"/>
<path transform="translate(0,0)" fill="rgb(30,52,81)" d="M 1258.19 312.452 C 1274.03 312.163 1290.13 312.154 1305.94 312.984 C 1305.4 335.443 1305.34 357.911 1305.75 380.372 C 1338.06 387.27 1364.4 398.795 1391.14 417.978 C 1406.69 404.686 1419.37 387.905 1435.41 375.15 C 1446.55 385.223 1459.98 398.058 1469.01 410.003 C 1458.35 424.146 1438.87 441.601 1425.31 453.191 C 1445.28 483.845 1456.88 508.443 1462.47 545.041 C 1484.05 545.596 1505.65 545.244 1527.23 545.878 C 1528.23 557.785 1530.19 589.446 1525.95 599.348 C 1519.07 602.716 1472.49 600.269 1460.97 600.743 C 1451.97 630.792 1441.3 654.67 1421.7 679.274 C 1435.85 694.153 1452.64 709.323 1464.26 726.194 C 1452.34 737.992 1440.82 750.398 1427.91 761.109 C 1412.87 747.026 1399.06 731.616 1384.83 716.721 C 1359.52 733.774 1333.68 744.717 1303.93 751.597 L 1303.87 821.03 C 1286.75 820.509 1269.61 820.506 1252.49 821.019 C 1251.01 798.04 1252.12 774.506 1252.23 751.472 C 1215.55 743.16 1201.89 738.226 1170.1 717.375 C 1154.77 731.957 1140.67 747.921 1125.69 762.88 C 1113.04 752.209 1100.29 739.082 1089.31 726.694 C 1102.44 709.111 1119.97 693.47 1135.6 678.033 C 1116.71 653.628 1105.63 628.607 1098.65 598.673 C 1078.51 598.535 1058.36 599.002 1038.22 598.985 C 1037.07 581.461 1036.47 562.414 1037.98 544.92 C 1058.06 544.251 1078.28 544.889 1098.37 545.038 C 1101.06 511.825 1114.65 483.475 1132.34 455.814 C 1127.14 450.104 1121.45 442.64 1114.37 439.314 C 1104.52 434.68 1079.43 430.792 1067.79 428.231 C 972.478 407.125 873.916 405.207 777.853 422.589 C 755.37 426.447 731.182 430.539 709.448 437.463 C 725.824 487.75 726.319 539.374 703.236 587.732 C 681.674 632.905 644.916 665.562 597.592 682.099 C 603.331 702.724 611.279 722.799 617.617 743.269 C 626.951 773.412 635.07 804.136 645.474 833.92 C 669.141 825.499 692.792 816.7 717.016 810 C 832.647 778.016 951.045 777.581 1063.73 820.574 C 1126.58 844.549 1187.21 885.182 1233.49 933.974 C 1252.4 953.923 1269.91 976.928 1285.86 999.316 C 1305.87 1027.41 1324.08 1056.61 1338.14 1088.17 C 1365.91 1150.51 1391.08 1235.63 1365.19 1302.05 C 1351.05 1338.33 1326.55 1360.06 1291.7 1375.28 C 1295.22 1389.67 1295.5 1405.87 1292.06 1420.3 C 1283.91 1454.49 1253.54 1484.52 1224.28 1502.1 C 1185.36 1525.5 1147.65 1523.59 1105.03 1513.13 C 1104.59 1530.97 1105.92 1548.52 1107.26 1566.29 C 1195.85 1574.6 1284.31 1584.18 1372.63 1595.02 C 1374.43 1583.79 1376.36 1572.62 1379.31 1561.63 C 1392.43 1512.79 1422.55 1469.49 1466.88 1444.29 C 1515.08 1416.89 1567.25 1417.01 1619.59 1431.22 C 1628.66 1410.1 1634.29 1385.91 1639.28 1363.53 C 1655.59 1290.9 1659.04 1215.98 1649.47 1142.16 C 1646.81 1122.21 1642.62 1102.41 1638.6 1082.69 C 1633.94 1059.89 1628.96 1034.73 1620.5 1013.03 C 1614.47 1008.39 1608.07 1004.57 1601.54 1000.68 C 1587.41 1014.99 1572.03 1032.52 1555.72 1044.22 C 1545.47 1034.7 1525.4 1018.12 1520.31 1005.8 C 1520.51 999.844 1557.46 966.864 1564.18 960.437 C 1545.7 934.682 1536.49 909.927 1530.53 879.001 C 1509.55 878.659 1488.36 879.206 1467.42 878.037 C 1466.03 860.692 1466.8 842.742 1467.1 825.339 C 1487.97 824.451 1509.29 825.371 1530.24 825.023 C 1534.65 796.828 1545.66 770.073 1562.37 746.935 C 1546.21 730.977 1528.7 716.433 1512.84 700.136 C 1521.98 686.302 1537.2 671.685 1549.45 660.466 C 1566.18 672.634 1586.33 691.617 1601.18 706.621 C 1625.14 691.761 1648.4 680.891 1675.88 674.201 C 1675.96 661.267 1673.63 617.96 1676.82 608.274 C 1679.9 606.91 1682.74 606.377 1686.09 606.018 C 1694.17 605.154 1724.41 603.32 1729.96 607.829 C 1732.6 616.917 1731.03 629.345 1730.87 638.893 C 1730.83 650.498 1731 662.103 1731.39 673.701 C 1761.25 680.739 1786.63 690.024 1811.47 708.633 C 1822.46 697.259 1844.94 670.754 1856.84 663.245 C 1866.58 665.363 1888.1 693.02 1896.34 701.155 C 1882.72 716.626 1866.5 730.983 1851.98 745.697 C 1865.45 769.046 1881.32 796.038 1883.4 823.453 C 1898.56 823.926 1940.59 820.876 1952.03 825.263 C 1955.96 831.067 1953.64 869.369 1953.31 877.909 C 1930.08 878.467 1906.72 877.915 1883.47 877.811 C 1879.16 910.227 1866.01 937.158 1847.49 963.723 C 1861.76 979.874 1878.1 994.157 1892 1010.58 C 1883.41 1019.32 1867.53 1039.58 1857.34 1044.22 C 1848.15 1041.77 1817.12 1008.45 1808.3 999.907 C 1784.56 1016.7 1760.4 1026.82 1731.4 1030.49 L 1730.84 1098.24 C 1718.25 1099.1 1690.88 1101.1 1679.87 1096.18 C 1676.01 1090.23 1677.64 1041.92 1677.58 1031.57 C 1661.01 1028.18 1645.79 1023.08 1630.11 1016.88 C 1639.32 1041.27 1644.27 1068.87 1649.16 1094.47 C 1671.47 1211.48 1666.1 1321.35 1627.23 1434.43 C 1652.91 1446.21 1675.75 1459.96 1695.15 1480.88 C 1730.43 1518.32 1749.26 1568.33 1747.45 1619.75 C 1745.22 1670.76 1722.54 1718.72 1684.52 1752.8 C 1649.15 1784.89 1599.14 1803.55 1551.27 1800.82 C 1498.37 1797.81 1452.2 1773.1 1417.18 1734.11 C 1406.07 1743.77 1395.5 1754.05 1384.32 1763.65 C 1360.55 1783.72 1335.93 1802.76 1310.52 1820.7 C 1173.32 1916.27 1008.79 1964.71 841.696 1958.72 C 640.288 1950.82 450.14 1863.74 312.583 1716.41 C 172.383 1563.32 99.1367 1360.57 109.121 1153.22 C 116.242 977.851 183.552 810.288 299.725 678.727 C 323.793 651.48 351.103 627.182 377.8 602.583 C 377.657 602.321 377.51 602.06 377.37 601.795 C 352.345 554.286 344.89 500.152 361.172 448.441 C 375.675 401.737 408.198 362.74 451.539 340.087 C 495.71 317.486 546.046 312.53 593.34 327.842 C 645.309 344.667 682.614 382.762 707.095 430.727 C 845.265 393.247 968.173 395.607 1106.61 429.441 C 1099.49 422.632 1092.29 415.912 1085 409.282 C 1094.59 396.191 1108.73 381.913 1121.36 371.748 C 1136.45 387.364 1151.16 403.541 1167.16 418.23 C 1197.23 399.813 1218.03 388.089 1253.22 380.513 C 1253.2 369.428 1251.26 321.455 1254.62 314.325 C 1255.34 312.8 1256.7 312.908 1258.19 312.452 z"/>
<path transform="translate(0,0)" fill="rgb(254,254,254)" d="M 380.852 609.63 C 386.73 612.654 397.452 629.848 403.184 635.859 C 416.198 649.507 430.278 661.457 446.782 670.674 C 492.155 696.013 540.465 699.056 589.836 684.947 C 595.076 701.075 600.888 717.003 605.925 733.197 C 616.645 767.667 626.501 802.368 638.611 836.388 C 496.425 892.28 349.656 1029.14 363.413 1194.5 C 364.808 1211.28 368.571 1228.36 373.153 1244.51 C 379.665 1267.46 392.565 1290.58 387.55 1314.95 C 382.29 1340.51 366.844 1360.31 349.764 1379.2 C 342.057 1387.72 334.229 1395.96 329.509 1406.59 C 324.46 1417.97 323.28 1430.67 327.986 1442.37 C 337 1464.78 363.049 1479.29 386.115 1482.45 C 394.894 1483.66 407.559 1483.18 415.428 1487.15 C 427.289 1493.14 408.435 1519.45 414.729 1538.7 C 419.817 1554.27 434.077 1562.24 447.834 1568.94 C 438.708 1617.95 465.896 1605.51 470.225 1634.12 C 473.222 1653.93 463.213 1673.6 468.802 1693.8 C 472.918 1708.67 484.066 1720.21 497.297 1727.55 C 517.551 1738.79 540.964 1739.74 563.517 1737.87 C 623.078 1732.93 675.433 1705.8 727.918 1679.43 C 744.568 1671.07 762.655 1660.1 780.678 1655.22 C 791.007 1652.42 797.838 1654.02 806.644 1660.04 C 841.785 1684.06 886.711 1787.14 901.865 1828.55 C 906.645 1841.61 910.701 1854.92 914.815 1868.2 C 916.974 1875.18 918.682 1883.03 921.834 1889.57 C 922.983 1891.95 924.807 1893.71 927.234 1894.82 C 929.504 1895.85 932.159 1895.96 934.443 1894.9 C 936.789 1893.83 938.563 1891.81 939.315 1889.35 C 941.522 1882.36 936.186 1868.77 934.04 1861.77 C 918.388 1810.68 894.766 1755.73 868.294 1709.35 C 855.6 1687.11 833.046 1648.15 809.202 1638.21 C 799.062 1633.99 787.252 1633.44 776.664 1636.1 C 759.275 1640.48 743.605 1650.84 727.635 1658.71 C 672.687 1685.76 620.034 1714.25 557.678 1718.5 C 544.988 1719.36 531.794 1720.04 519.439 1716.42 C 511.255 1714.01 503.793 1709.62 497.718 1703.63 C 475.42 1682.02 495.998 1655.85 489.979 1630.36 C 486.317 1614.85 474.672 1606.98 468.058 1593.63 C 463.732 1584.9 465.41 1579.24 468.228 1570.51 C 495.215 1569.84 520.245 1566.93 545.072 1555.52 C 551.09 1552.75 557.306 1549.88 561.826 1544.87 C 563.547 1542.96 564.425 1541.15 564.124 1538.51 C 563.739 1535.13 561.775 1531.87 558.742 1530.25 C 551.942 1526.62 534.006 1539.82 526.719 1542.66 C 509.956 1549.21 461.452 1553.83 445.394 1545.89 C 437.122 1541.81 434.729 1533.94 432.122 1525.83 C 436.746 1511.92 442.756 1497.61 437.294 1482.85 C 428.035 1457.83 389.975 1468.05 368.83 1457.9 C 355.856 1451.66 347.937 1441.62 343.402 1428.23 C 347.239 1405.28 363.685 1392.88 377.906 1376 C 394.054 1356.83 404.72 1334.82 407.71 1309.8 C 409.831 1292.05 402.232 1272.73 396.842 1256.07 C 374.813 1187.99 376.405 1136.93 404.369 1070.89 C 446.457 971.48 545.225 894.672 643.488 854.938 C 645.902 862.821 648.375 870.686 650.907 878.532 C 622.917 889.93 594.598 904.468 569.195 920.869 C 490.619 971.604 438.321 1034.25 418.273 1127.48 C 416.088 1140.63 414.821 1153.92 414.482 1167.26 C 413.795 1203.51 422.37 1242.85 448.334 1269.55 C 459.381 1280.91 472.361 1290.24 487.176 1296.01 C 503.225 1302.25 520.651 1303.39 537.502 1306.13 C 580.9 1313.2 622.528 1320.65 666.709 1321.21 C 669.299 1337.04 672.166 1352.17 679.085 1366.8 C 692.347 1394.92 716.168 1416.67 745.374 1427.33 C 784.911 1441.68 828.536 1439.73 866.628 1421.89 C 880.599 1429.27 894.185 1437.67 907.875 1445.58 C 941.437 1464.97 985.483 1487.34 1005.13 1522.17 C 1010.5 1531.63 1014.89 1541.61 1018.23 1551.95 C 1021.08 1560.77 1023.11 1570.95 1027.72 1579.01 C 1033.7 1581.82 1066.95 1581.85 1074.74 1580.67 C 1077.64 1580.23 1080.61 1579.3 1082.13 1576.56 C 1089.9 1562.57 1071.42 1510.95 1067.76 1494.41 C 1073.97 1497.59 1080.36 1501.19 1085.54 1505.91 C 1085.31 1513.27 1085.25 1520.63 1085.37 1527.99 C 1087.64 1621.63 1119.09 1712.57 1163.2 1794.39 C 1169.52 1806.12 1178.36 1826.76 1187.99 1835.34 C 1190.53 1837.6 1192.68 1838.43 1196.14 1838.29 C 1198.5 1837.31 1200.02 1836.45 1201.6 1834.39 C 1203.43 1832 1204.81 1828.78 1204.4 1825.75 C 1203.53 1819.22 1192.27 1804.01 1188.64 1797.66 C 1144.43 1720.28 1123.28 1663.53 1109.18 1575.66 C 1165.39 1578.94 1221.57 1585.88 1277.49 1592.4 C 1309.28 1596.1 1341.29 1598.53 1372.97 1603.03 C 1372.58 1648.05 1384.77 1691.06 1411.8 1727.36 C 1409.24 1730.01 1406.64 1732.61 1403.99 1735.17 C 1384.61 1754.04 1363.02 1770.75 1341.66 1787.31 C 1203.58 1895.86 1032.38 1953.64 856.754 1950.97 C 654.951 1946.65 463.155 1862.23 323.668 1716.33 C 299.279 1691.27 278.045 1663.05 257.839 1634.58 C 158.229 1494.22 114.423 1339.43 116.779 1168.04 C 120.182 994.948 183.463 828.385 295.853 696.702 C 322.077 665.634 351.756 637.93 380.852 609.63 z"/>
<path transform="translate(0,0)" fill="rgb(30,52,81)" d="M 241.571 1083.4 C 243.324 1083.74 244.144 1083.99 245.679 1084.75 C 249.966 1092.44 247.382 1110.01 247.352 1119.24 C 250.718 1120.18 254.027 1121.35 257.347 1122.44 C 262.186 1116.01 271.205 1103.17 278.943 1101.05 C 281.385 1101.99 280.811 1101.72 281.793 1103.81 C 281.363 1109.98 267.366 1121.53 262.927 1126.51 C 264.164 1130.56 265.179 1134.69 266.282 1138.78 C 272.847 1138.64 279.512 1138.33 286.072 1138.61 C 290.349 1138.8 296.858 1139.34 299.912 1142.68 L 298.76 1144.22 C 289.001 1148.09 276.76 1146.03 266.481 1145.33 C 264.769 1149.2 262.774 1152.89 260.771 1156.62 C 267.144 1164.16 275.248 1170.18 280.971 1178.2 C 281.31 1180.73 281.104 1180.75 279.715 1182.94 L 277.642 1183.22 C 269.443 1179.98 262.089 1168.8 256.456 1162.12 L 246.043 1165.72 C 246.24 1176.41 247.883 1189.89 245.074 1200.06 C 243.02 1199.64 241.623 1199.23 239.837 1198.13 C 235.898 1190.8 238.737 1174.89 239.019 1166.49 C 235.231 1164.99 231.912 1162.99 228.435 1160.89 C 221.469 1167.75 215.628 1175.83 208.13 1182.08 C 205.401 1182.68 205.188 1182.26 202.647 1180.98 L 202.224 1178.95 C 205.708 1170.44 216.996 1162.69 223.875 1156.67 C 222.001 1152.87 220.705 1149 219.367 1144.99 C 211.009 1145.13 196.195 1146.99 188.96 1142.39 L 189.466 1140.94 C 198.454 1136.79 210.615 1138.09 220.371 1138.13 C 221.964 1134.46 223.782 1130.87 225.496 1127.25 C 222.896 1124.66 220.196 1122.18 217.554 1119.63 C 213.157 1115.4 204.449 1108.08 204.326 1101.62 L 206.018 1101.44 C 215.752 1105.51 223.055 1114.5 230.319 1121.91 L 240.575 1118.68 C 240.215 1109.88 237.239 1091.1 241.571 1083.4 z"/>
<path transform="translate(0,0)" fill="rgb(254,254,254)" d="M 238.308 1125.46 C 244.19 1123.85 250.478 1125.55 254.75 1129.9 C 259.022 1134.25 260.61 1140.57 258.903 1146.42 C 257.195 1152.27 252.458 1156.75 246.517 1158.12 C 237.581 1160.17 228.639 1154.7 226.403 1145.81 C 224.168 1136.92 229.46 1127.87 238.308 1125.46 z"/>
<path transform="translate(0,0)" fill="rgb(30,52,81)" d="M 763.509 1731.85 C 766.41 1731.69 767.361 1731.51 770.046 1732.79 C 773.952 1739.77 771.16 1753.87 771.097 1762.03 C 775.106 1763.26 778.35 1764.66 781.901 1766.9 C 787.731 1760.96 792.455 1753.71 798.79 1748.33 C 801.161 1746.31 802.805 1745.44 805.904 1745.68 L 807.387 1747.83 C 806.579 1754.82 791.604 1767.07 786.633 1772.41 L 790.665 1782.74 C 800.493 1782 813.572 1779.49 822.736 1783.88 L 823.135 1785.5 C 815.729 1791.34 799.713 1789.41 790.581 1789.27 C 789.315 1792.59 787.875 1795.84 786.484 1799.11 C 791.827 1804.52 807.518 1813.84 809.3 1820.62 C 808.034 1822.79 808.188 1822.84 805.793 1823.54 C 797.061 1821.38 788.328 1811.09 781.783 1805.08 C 778.298 1806.15 774.776 1807.13 771.275 1808.15 C 771.923 1816.81 771.987 1825.57 772.276 1834.25 C 772.28 1834.67 772.35 1835.09 772.286 1835.5 C 771.855 1838.3 771.04 1838.58 768.829 1840.01 L 766.624 1839.42 C 762.295 1832.65 764.509 1816.71 764.583 1808.67 L 754.299 1805.62 C 748.632 1810.27 739.407 1823.98 732.525 1824.78 C 729.952 1824.12 729.75 1824.4 728.413 1822.15 C 729.786 1814.09 743.431 1805.22 749.443 1800.59 L 744.395 1789.65 C 735.609 1789.58 726.412 1791.35 717.77 1790.23 C 716.124 1788.56 715.807 1788.19 715.181 1785.95 L 716.127 1784.34 C 723.154 1780.21 736.339 1782.02 744.335 1782.68 L 748.836 1771.29 C 742.693 1764.36 733.667 1759.38 728.311 1752.17 C 726.831 1750.18 727.262 1748.33 727.482 1746.01 L 729.16 1745.12 C 737.23 1747.05 747.395 1760.1 753.509 1765.83 L 763.132 1762.29 C 763.043 1752.19 762.549 1741.91 763.509 1731.85 z"/>
<path transform="translate(0,0)" fill="rgb(254,254,254)" d="M 762.452 1769.63 C 771.225 1766.76 780.657 1771.58 783.469 1780.37 C 786.281 1789.16 781.397 1798.56 772.586 1801.32 C 763.859 1804.04 754.567 1799.21 751.781 1790.51 C 748.996 1781.8 753.762 1772.47 762.452 1769.63 z"/>
<path transform="translate(0,0)" fill="rgb(30,52,81)" d="M 334.307 825.554 C 336.048 825.836 337.268 826.374 338.834 827.175 C 342.857 834.314 340.15 851.989 340.07 860.251 L 350.238 863.328 C 355.253 857.783 360.284 851.556 366.049 846.809 C 368.299 844.956 371.13 842.593 374.194 842.876 L 374.735 844.672 C 371.264 854.21 361.827 861.622 354.681 868.567 C 356.1 871.85 357.273 875.287 358.551 878.631 C 366.79 878.323 383.044 876.083 389.583 881.272 L 389.075 882.867 C 380.43 887.394 368.206 886.069 358.637 886.072 L 354.985 895.392 C 360.511 901.803 373.906 911.245 376.723 918.266 C 377.246 919.57 376.352 920.437 375.785 921.609 L 373.976 922.127 C 365.031 919.026 356.346 907.67 349.766 900.929 C 346.778 902.463 343.616 903.516 340.463 904.652 C 340.333 916.56 342.985 931.456 339.242 942.73 C 337.579 942.365 336.624 942.026 335.133 941.304 C 330.807 932.913 333.478 914.879 333.603 905.099 C 330.277 903.759 327.154 901.899 324.013 900.175 C 320.304 904.883 316.533 909.623 312.604 914.15 C 309.388 917.854 305.241 922.755 300.149 923.091 L 299.73 921.133 C 302.948 911.033 311.67 903.171 318.67 895.481 L 315.435 886.573 C 305.779 886.801 292.593 888.55 283.683 884.336 L 283.656 883.05 C 292.055 878.158 305.775 879.435 315.287 879.222 L 319.22 869.142 C 312.908 862.125 303.441 856.006 298.38 848.253 C 297.083 846.266 297.457 845.736 297.87 843.502 L 299.647 842.739 C 308.422 845.145 318.157 857.543 324.595 863.934 L 332.993 860.619 C 332.907 850.83 330.871 834.286 334.307 825.554 z"/>
<path transform="translate(0,0)" fill="rgb(254,254,254)" d="M 333.212 867.244 C 341.539 865.102 350.041 870.053 352.287 878.353 C 354.533 886.653 349.688 895.216 341.417 897.566 C 335.974 899.112 330.12 897.611 326.092 893.636 C 322.065 889.662 320.486 883.828 321.96 878.365 C 323.434 872.902 327.732 868.654 333.212 867.244 z"/>
<path transform="translate(0,0)" fill="rgb(137,159,174)" d="M 1260.76 320.206 C 1273.38 320.432 1286 320.492 1298.62 320.388 C 1298.54 342.471 1298.64 364.555 1298.89 386.637 C 1337.32 394.666 1360.92 405.109 1392.54 428.184 C 1406.31 413.468 1420.39 399.042 1434.77 384.916 C 1442.91 393.321 1451.2 401.592 1459.62 409.725 C 1447.86 420.967 1424.19 440.46 1416.75 453.785 C 1439.06 483.986 1452.7 515.19 1455.29 552.961 C 1477.16 552.524 1499.07 552.963 1520.94 553.091 C 1520.97 566.403 1521.14 579.707 1520.3 592.999 C 1498.12 592.822 1475.94 592.776 1453.77 592.862 C 1450.34 625.178 1432.86 655.248 1412.79 680.029 C 1426.06 696.004 1441.31 710.606 1455.25 726.039 C 1446.13 734.852 1437.11 743.787 1427.6 752.174 C 1413.56 736.791 1399.41 721.506 1385.15 706.322 C 1359.93 727.258 1329.41 740.815 1296.97 745.497 C 1297.12 759.693 1298.89 801.453 1296.87 813.014 L 1295.02 813.756 L 1259 813.83 L 1259.07 745.295 C 1232.62 740.965 1209.83 733.664 1186.82 719.658 C 1180.93 716.076 1174.63 712.391 1169.9 707.31 C 1153.74 720.53 1139.32 738.394 1124.9 753.682 C 1116.74 744.242 1107.91 735.534 1099.07 726.749 C 1112.04 709.821 1128.82 694.209 1144.44 679.695 C 1138.78 670.485 1132.23 661.821 1126.62 652.567 C 1115.13 633.609 1109.05 612.676 1104.89 591.094 L 1044.45 590.998 L 1044.3 552.012 C 1064.81 552.187 1085.33 552.102 1105.85 551.757 C 1107.59 515.363 1121.26 482.207 1143.67 453.801 C 1125.97 444.332 1110.77 422.364 1095.47 408.79 C 1104.13 400.232 1112.24 390.987 1120.49 382.026 C 1136.36 397.283 1151.13 413.91 1166.27 429.889 C 1193.21 405.496 1224.97 393.556 1260.06 386.553 L 1260.76 320.206 z"/>
<path transform="translate(0,0)" fill="rgb(30,52,81)" d="M 1268.6 426.881 C 1344.63 420.796 1411.28 477.288 1417.74 553.283 C 1424.2 629.279 1368.04 696.211 1292.08 703.047 C 1215.58 709.931 1148.08 653.289 1141.57 576.76 C 1135.06 500.231 1192.04 433.007 1268.6 426.881 z"/>
<path transform="translate(0,0)" fill="rgb(254,254,254)" d="M 1263.47 434.904 C 1335.45 425.982 1401.02 477.139 1409.88 549.128 C 1418.73 621.118 1367.52 686.643 1295.52 695.435 C 1223.62 704.216 1158.19 653.079 1149.35 581.181 C 1140.5 509.284 1191.58 443.814 1263.47 434.904 z"/>
<path transform="translate(0,0)" fill="rgb(30,52,81)" d="M 1235.2 489.304 C 1245.73 491.683 1358.25 556.026 1367.28 565.258 C 1363.99 571.625 1328.17 590.314 1320.57 594.611 C 1292.95 610.583 1262.59 629.515 1234.01 643.045 L 1234.42 543.909 C 1234.48 525.812 1233.9 507.348 1235.2 489.304 z"/>
<path transform="translate(0,0)" fill="rgb(254,254,254)" d="M 1242.74 501.503 C 1280.64 520.745 1317.96 543.347 1354.18 565.583 C 1340.88 573.955 1327.17 581.674 1313.57 589.526 C 1290.39 603.604 1266.26 616.558 1242.42 629.488 C 1243.14 586.842 1241.23 544.16 1242.74 501.503 z"/>
<path transform="translate(0,0)" fill="rgb(137,159,174)" d="M 1683.03 612.972 L 1723.66 612.892 L 1724.61 680.86 C 1760.8 688.735 1782.95 696.662 1813.45 718.211 C 1827.15 701.772 1842.36 686.501 1857.83 671.74 C 1867.7 681.111 1878.31 690.727 1886.61 701.538 C 1871.11 716.249 1856.14 731.515 1841.75 747.306 C 1862.14 771.282 1872.46 800.061 1877.48 830.641 C 1900.56 831.12 1923.64 830.077 1946.73 830.646 L 1946.84 871.55 C 1923.69 871.665 1900.53 871.529 1877.38 871.143 C 1872.37 910.377 1859.87 931.916 1838.07 964.261 C 1851.15 980.933 1868.89 993.469 1882.25 1009.88 C 1874.25 1019.45 1865.37 1028.16 1856.54 1036.95 C 1840.15 1022.29 1824.96 1006.31 1808.8 991.376 C 1780.56 1010.76 1759.08 1020.32 1724.74 1024.45 L 1724.4 1078.75 L 1724.22 1091.93 L 1684.94 1091.84 C 1685.04 1069.77 1684.74 1047.69 1684.04 1025.63 C 1649.12 1017.65 1631.26 1010.24 1601.12 991.12 C 1586.82 1006.06 1571.36 1019.99 1556.13 1033.97 C 1546.33 1024.94 1536.64 1015.79 1527.99 1005.64 C 1542.56 990.192 1558.68 976.405 1573.64 961.384 C 1569.17 954.561 1563.93 948.301 1559.6 941.324 C 1546.23 919.753 1540.63 896.375 1536.64 871.609 C 1515.97 870.567 1494.69 871.104 1473.98 871.552 L 1474.08 832.992 C 1495.19 832.26 1516.46 832.648 1537.59 832.628 C 1539.52 799.685 1553.92 772.501 1572.21 745.806 C 1556.25 729.746 1538.45 714.95 1521.87 699.434 C 1530.44 689.604 1540.15 680.476 1549.58 671.484 C 1560.94 680.06 1571.87 689.641 1582.46 699.143 C 1588.65 704.7 1594.62 710.868 1601.53 715.524 C 1609.39 710.905 1616.82 705.638 1624.81 701.197 C 1643.27 690.947 1662.79 685.305 1683.2 680.536 L 1683.03 612.972 z"/>
<path transform="translate(0,0)" fill="rgb(30,52,81)" d="M 1697.52 720.28 C 1770.78 715.258 1834.29 770.466 1839.51 843.712 C 1844.73 916.957 1789.7 980.615 1716.47 986.035 C 1642.96 991.476 1579 936.183 1573.76 862.655 C 1568.52 789.128 1623.98 725.322 1697.52 720.28 z"/>
<path transform="translate(0,0)" fill="rgb(254,254,254)" d="M 1694.34 728.014 C 1763.41 721.09 1825.09 771.313 1832.29 840.356 C 1839.5 909.399 1789.52 971.273 1720.51 978.758 C 1651.1 986.287 1588.79 935.963 1581.54 866.523 C 1574.3 797.082 1624.87 734.979 1694.34 728.014 z"/>
<path transform="translate(0,0)" fill="rgb(30,52,81)" d="M 1714.53 761.728 C 1714.83 758.927 1715.13 756.114 1715.6 753.335 C 1716.16 750.013 1716.88 746.729 1720.17 745.036 C 1725.68 742.205 1738.61 747.612 1744.33 749.155 C 1742.82 755.477 1741.4 761.694 1740.54 768.143 C 1745.54 771.967 1750.58 775.748 1755.65 779.484 C 1759.48 775.129 1763.49 769.375 1768.64 766.632 C 1770.1 766.862 1771.07 767.225 1772.27 768.104 C 1776.43 771.154 1784.14 778.511 1784.59 783.942 C 1784.73 785.541 1783.34 786.801 1782.24 787.786 C 1781.05 788.854 1779.81 789.843 1779.06 791.284 C 1777.55 794.141 1777.44 797.631 1778.36 800.667 C 1778.87 802.315 1779.49 803.963 1780.02 805.607 C 1780.54 805.952 1781.06 806.31 1781.59 806.642 C 1789.45 811.532 1804.89 799.593 1809.26 814.58 C 1808.99 818.949 1806.82 822.584 1803.61 825.55 C 1800.48 828.452 1796.04 830.262 1792.14 831.905 C 1792.17 839.129 1792.75 844.709 1795.22 851.578 C 1800.69 852.264 1805.43 852.687 1809.2 857.165 C 1811.26 859.606 1812.4 862.579 1811.88 865.813 C 1811.31 869.418 1808.19 872.713 1805.12 874.492 C 1801.04 876.862 1796.14 876.143 1791.61 875.979 C 1789.02 882.091 1786.45 888.154 1784.34 894.452 C 1790.64 899.657 1797.07 903.917 1797.67 912.844 C 1797.87 915.691 1797.19 918.621 1794.98 920.596 C 1792.08 923.198 1787.86 923.299 1784.22 922.701 C 1779.53 921.929 1774.8 918.072 1770.89 915.479 C 1763.47 921.047 1755.94 926.252 1748.14 931.276 C 1749.56 935.78 1754.74 947.204 1752.6 951.113 C 1750.48 954.982 1745.37 956.765 1741.32 957.706 C 1738.91 958.267 1736.64 958.937 1734.23 958.125 L 1732.97 956.007 C 1729.03 952.306 1727.6 945.764 1725.88 940.77 C 1719.6 941.245 1713.31 941.66 1707.03 942.017 C 1706.93 947.794 1707.24 954.647 1703.58 959.456 C 1701.05 962.784 1697.95 964.903 1693.71 965.181 C 1690.6 965.385 1687.21 964.231 1685.08 961.891 C 1680.02 956.318 1681.85 945.683 1682.02 938.73 C 1675.57 936.977 1669.54 934.992 1663.39 932.362 C 1659.28 935.46 1655.09 941.847 1649.97 942.911 C 1646.54 943.623 1643.04 942.863 1640.37 940.524 C 1637.84 938.301 1636.54 934.839 1636.22 931.55 C 1635.66 925.801 1639.28 922.228 1642.59 918.039 C 1637.68 911.869 1632.17 906.098 1626.9 900.235 C 1621.69 902.363 1615.1 905.931 1609.37 904.372 C 1606.18 903.504 1602.61 901.143 1601.48 897.922 C 1600.49 895.12 1601.17 891.582 1602.59 889.045 C 1605.5 883.838 1610.55 881.43 1615.99 879.701 L 1617.16 879.343 C 1617.43 878.862 1617.87 878.445 1617.97 877.901 C 1618.46 875.111 1615.86 868.371 1615.38 865.396 C 1614.71 861.196 1615.02 856.618 1615.09 852.366 C 1609.36 850.889 1602.75 849.736 1598.13 845.835 C 1595 843.189 1592.24 839.458 1592.27 835.17 C 1592.3 832.246 1593.88 829.435 1596.13 827.623 C 1602.78 822.246 1611.18 823.968 1619.02 824.616 L 1629.35 805.304 C 1626.89 802.903 1624.38 800.505 1622.12 797.912 C 1619.29 794.663 1616.65 790.807 1617.49 786.25 C 1618.71 779.656 1626.21 775.592 1631.21 772.007 C 1636.55 776.188 1641.61 780.663 1647.04 784.754 C 1653.53 780.139 1660.27 775.854 1666.94 771.488 C 1665.66 766.208 1662.3 757.787 1665.56 752.782 C 1669 747.495 1681.2 745.913 1687.03 744.246 C 1689.79 749.555 1691.03 755.285 1692.49 761.047 C 1699.88 760.913 1707.15 761.248 1714.53 761.728 z"/>
<path transform="translate(0,0)" fill="rgb(137,159,174)" d="M 1722.18 750.486 C 1726.13 751.131 1730.96 751.246 1733.96 754.096 C 1735.75 758.742 1734.03 767.198 1733.97 772.486 C 1742.02 777.281 1749.5 782.805 1757.05 788.326 C 1760.87 783.34 1765.18 779.268 1769.78 775.029 C 1771.69 776.252 1773.38 777.49 1775.09 778.979 L 1775.24 781.579 L 1773.86 779.329 C 1774.09 780.018 1774.33 780.615 1774.38 781.369 C 1774.75 786.732 1770.48 792.503 1767.61 796.803 C 1770.87 802.253 1776.79 814.773 1782.8 816.945 L 1783.18 814.877 C 1781.73 813.35 1780.24 811.961 1779.45 809.968 C 1779.32 809.638 1779.25 809.286 1779.15 808.945 C 1782.11 810.281 1783.68 812.874 1785.6 815.383 C 1790.18 814.4 1795.31 812.677 1799.98 813.471 C 1801.81 815.415 1801.37 815.011 1801.32 817.418 C 1797.2 823.496 1788.18 821.656 1785.92 824.594 C 1784.6 826.302 1786.48 835.329 1786.71 837.6 C 1787.13 841.694 1786.54 846.053 1787.27 850.07 C 1787.62 851.955 1788.46 854.329 1790.05 855.519 C 1794.21 858.639 1800.32 858.129 1804.01 861.852 C 1804.53 864.81 1804.19 865.138 1802.9 867.898 C 1798.56 870.626 1792.48 869.152 1787.6 868.576 C 1784.47 875.565 1775.68 889.84 1778.28 897.502 C 1780.92 905.233 1792.7 904.454 1790.32 914.155 C 1789.37 915.158 1788.86 916.274 1787.37 916.349 C 1780.39 916.702 1774.3 906.015 1767.28 909.197 C 1759.09 912.91 1749.77 922.644 1741.58 927.851 C 1743.03 934.112 1746.04 940.85 1745.95 947.175 C 1744.11 950.001 1742.89 949.981 1739.8 951.126 C 1738.68 950.854 1737.48 950.621 1736.44 950.101 C 1731.02 947.401 1730.22 938.902 1729.08 933.616 C 1719.75 934.681 1710.45 935.941 1701.18 937.396 C 1700.97 942.086 1701.42 948.694 1699.93 953.09 C 1699.04 955.711 1698 956.388 1695.66 957.658 C 1692.63 957.545 1691.12 957.441 1688.42 955.88 C 1685.18 949.223 1688.59 943.506 1686.86 936.979 C 1682.15 930.172 1667.69 927.719 1659.89 925.86 C 1655.73 928.852 1652.41 932.787 1648.93 936.524 C 1645.93 934.919 1643.18 932.896 1640.38 930.96 C 1644 926.221 1647.5 921.386 1650.87 916.457 C 1644.65 907.993 1636.63 900.101 1629.67 892.18 C 1624.11 894.511 1617.81 898.094 1611.68 897.441 C 1609.2 895.708 1609.23 895.511 1608.31 892.609 C 1610.12 886.707 1620.37 884.14 1625.53 880.878 L 1626.56 880.216 C 1621.56 866.49 1620.8 862.11 1621.03 847.312 C 1615.91 845.642 1608.98 845.59 1604.32 843.133 C 1602.16 841.998 1600.43 840.443 1599.95 837.941 C 1599.46 835.385 1599.94 833.625 1601.29 831.502 C 1607.22 827.35 1616.67 830.565 1623.48 831.529 C 1627.1 822.943 1632.74 815.186 1635.65 806.387 C 1635.12 801.865 1629.32 796.435 1626.55 792.69 C 1624.33 789.683 1623.63 788.174 1624.12 784.463 C 1626 782.399 1627.63 782.245 1630.24 781.628 C 1634.63 782.402 1641.94 790.653 1645.41 793.816 C 1654.64 786.153 1664.82 780.661 1675.04 774.492 C 1673.45 768.121 1671.7 762.162 1669.12 756.119 C 1673.65 754.723 1678.42 753.863 1683.05 752.83 C 1683.8 756.542 1684.36 762.428 1686.97 765.365 C 1692 771.032 1700.99 768.227 1707.46 768.234 C 1711.64 768.239 1715.91 768.708 1720.08 769.082 C 1721.26 762.951 1721.64 756.7 1722.18 750.486 z"/>
<path transform="translate(0,0)" fill="rgb(30,52,81)" d="M 1697.89 779.729 C 1738.19 775.779 1774.08 805.205 1778.11 845.5 C 1782.14 885.795 1752.78 921.743 1712.49 925.848 C 1672.09 929.963 1636.03 900.509 1631.99 860.105 C 1627.95 819.701 1657.47 783.69 1697.89 779.729 z"/>
<path transform="translate(0,0)" fill="rgb(254,254,254)" d="M 1699.41 786.851 C 1735.59 783.675 1767.58 810.2 1771.16 846.338 C 1774.75 882.476 1748.58 914.767 1712.49 918.755 C 1688.77 921.375 1665.48 911.049 1651.5 891.718 C 1637.52 872.387 1635.01 847.034 1644.92 825.335 C 1654.83 803.635 1675.64 788.938 1699.41 786.851 z"/>
<path transform="translate(0,0)" fill="rgb(30,52,81)" d="M 1699.91 813.535 C 1714.14 811.622 1728.29 817.507 1736.96 828.941 C 1745.63 840.375 1747.48 855.59 1741.81 868.77 C 1736.13 881.95 1723.8 891.056 1709.53 892.608 C 1687.86 894.965 1668.32 879.462 1665.69 857.82 C 1663.05 836.179 1678.31 816.443 1699.91 813.535 z"/>
<path transform="translate(0,0)" fill="rgb(137,159,174)" d="M 1700.65 820.503 C 1712.38 818.861 1724.08 823.683 1731.24 833.111 C 1738.41 842.539 1739.92 855.102 1735.2 865.962 C 1730.48 876.821 1720.26 884.282 1708.47 885.471 C 1690.74 887.26 1674.83 874.523 1672.7 856.824 C 1670.57 839.124 1683 822.975 1700.65 820.503 z"/>
<path transform="translate(0,0)" fill="rgb(254,254,254)" d="M 1546.33 1431.07 C 1645.51 1423.59 1732.04 1497.78 1739.78 1596.94 C 1747.52 1696.11 1673.54 1782.83 1574.4 1790.82 C 1474.9 1798.84 1387.8 1724.54 1380.03 1625.02 C 1372.26 1525.5 1446.78 1438.58 1546.33 1431.07 z"/>
<path transform="translate(0,0)" fill="rgb(30,52,81)" d="M 1501.07 1536.06 C 1505.58 1536.54 1511.25 1537.31 1514.14 1541.34 C 1516.13 1544.11 1517.84 1549.73 1517.16 1553.11 C 1515.11 1563.34 1463.11 1594.28 1452.44 1603.21 C 1449.28 1605.85 1446.61 1608.31 1446.2 1612.59 C 1449.32 1618.52 1501.75 1652.43 1511.72 1661 C 1511.32 1664.71 1511 1668.43 1509.42 1671.86 C 1507.86 1675.24 1505.4 1678.44 1501.75 1679.68 C 1497.08 1681.26 1493.34 1679.68 1489.23 1677.48 C 1476.57 1669.99 1409.86 1625.6 1404.97 1617.53 C 1403.04 1614.36 1403.04 1610.4 1404.13 1606.96 C 1405.15 1603.73 1407.82 1601.63 1410.34 1599.54 C 1422.08 1589.79 1435.73 1581.47 1448.16 1572.55 C 1465.12 1560.39 1482.48 1545.39 1501.07 1536.06 z"/>
<path transform="translate(0,0)" fill="rgb(30,52,81)" d="M 1612.89 1544.13 C 1615.49 1543.91 1618.97 1543.36 1621.49 1544 C 1625.92 1545.13 1688.66 1582.12 1695.57 1586.85 C 1699.04 1589.22 1703.09 1591.97 1705.21 1595.67 C 1709.63 1603.36 1709.49 1614.57 1706.88 1622.82 C 1706.02 1625.55 1704.77 1627.58 1702.6 1629.45 C 1692.25 1638.37 1679.13 1644.97 1667.51 1652.17 C 1652.35 1661.56 1637.31 1671.9 1621.51 1680.13 C 1620.37 1680.13 1619.66 1680.17 1618.48 1680.01 C 1614.01 1679.38 1610.42 1676.84 1607.91 1673.14 C 1605.66 1669.85 1604.41 1665.92 1605.23 1661.94 C 1605.94 1658.47 1608.09 1655.74 1610.83 1653.6 C 1620.07 1646.4 1631.97 1641.13 1642.14 1635.23 C 1655.84 1627.28 1669.12 1618.55 1682.71 1610.4 C 1669.67 1602.76 1611.04 1575.06 1605.09 1565.55 C 1603.1 1562.39 1602.45 1558.56 1603.29 1554.92 C 1604.58 1549.54 1608.38 1546.76 1612.89 1544.13 z"/>
<path transform="translate(0,0)" fill="rgb(30,52,81)" d="M 1576.98 1524.75 C 1580.77 1525.21 1585.64 1526.42 1588.17 1529.52 C 1590.46 1532.32 1589.99 1535.23 1589.36 1538.47 C 1587.22 1549.42 1582.98 1560.37 1579.55 1570.99 C 1571.69 1594.82 1563.6 1618.57 1555.28 1642.23 C 1550.33 1656.53 1544.33 1678.47 1538.69 1691.23 C 1537.31 1694.36 1534.49 1695.92 1531.75 1697.73 C 1527.18 1696.74 1522.39 1695.13 1519.71 1690.98 C 1517.33 1687.28 1518.88 1682.78 1519.9 1678.89 C 1523.16 1666.39 1527.9 1654.06 1531.96 1641.78 L 1553.53 1576.61 C 1557.89 1563.78 1563.05 1542.94 1569.33 1531.64 C 1571.16 1528.34 1573.81 1526.62 1576.98 1524.75 z"/>
<path transform="translate(0,0)" fill="rgb(254,254,254)" d="M 521.203 329.187 C 619.027 320.609 705.289 392.94 713.897 490.761 C 722.505 588.583 650.2 674.867 552.382 683.505 C 454.521 692.147 368.19 619.804 359.579 521.94 C 350.967 424.077 423.337 337.768 521.203 329.187 z"/>
<path transform="translate(0,0)" fill="rgb(30,52,81)" d="M 455.175 400.303 L 515.742 399.962 C 528.699 399.928 542.817 398.882 555.563 401.337 C 575.291 416.973 593.371 437.36 613.292 453.814 L 613.539 549.536 C 613.582 563.44 615.71 583.667 612.512 596.707 C 560.151 595.268 507.573 596.196 455.192 596.532 C 454.197 584.321 454.589 571.796 454.524 559.535 L 454.401 495.052 C 454.42 465.072 452.683 429.719 455.175 400.303 z"/>
<path transform="translate(0,0)" fill="rgb(254,254,254)" d="M 462.736 408.436 C 491.24 407.691 520.367 407.658 548.863 408.627 L 550.175 459.822 C 568.203 460.888 586.913 459.673 605.022 459.84 C 605.539 483.89 605.74 507.946 605.626 532.001 C 605.655 550.703 606.077 569.527 605.01 588.203 L 462.632 588.053 C 460.636 557.927 461.943 526.803 461.961 496.599 C 461.979 467.504 460.686 437.435 462.736 408.436 z"/>
<path transform="translate(0,0)" fill="rgb(30,52,81)" d="M 486.025 549.089 C 505.847 548.527 525.793 548.796 545.628 548.638 C 558.15 548.539 573.315 546.864 585.52 549.355 C 587.234 552.215 586.775 554.124 586.754 557.414 C 573.953 558.05 493.994 559.587 487.19 557.049 C 485.664 554.29 486.049 552.208 486.025 549.089 z"/>
<path transform="translate(0,0)" fill="rgb(30,52,81)" d="M 486.028 512.881 C 504.233 511.946 522.945 512.767 541.206 512.775 C 556.292 512.781 572.369 511.628 587.31 513.343 C 588.259 515.899 587.671 518.525 587.453 521.209 C 566.665 521.864 545.753 521.608 524.955 521.66 C 513.485 521.688 498.522 523.457 487.512 520.719 C 485.583 517.845 486.033 516.286 486.028 512.881 z"/>
<path transform="translate(0,0)" fill="rgb(137,159,174)" d="M 557.44 414.486 C 571.325 425.356 584.331 439.556 597.361 451.573 C 583.966 452.119 570.462 451.901 557.052 452.001 L 557.44 414.486 z"/>
<path transform="translate(0,0)" fill="rgb(254,254,254)" d="M 847.831 928.217 C 863.625 936.177 878.562 946.872 893.3 956.672 C 957.525 999.382 1010.88 1045.58 1066.75 1098.35 C 1085.02 1115.61 1103.69 1132.6 1121.2 1150.64 C 1090.9 1174.91 1064.4 1203.92 1033.75 1227.53 C 1009.98 1244.74 982.821 1253.29 956.534 1265.82 C 900.793 1253.4 848.451 1228.65 797.86 1202.89 C 800.189 1186.06 804.112 1169.52 807.12 1152.81 L 830.597 1027.64 C 836.939 994.634 840.65 961.041 847.831 928.217 z"/>
<path transform="translate(0,0)" fill="rgb(30,52,81)" d="M 932.828 1020.62 C 937.051 1020.9 943.117 1021.02 946.536 1023.9 C 949.15 1026.1 949.801 1028.97 950.225 1032.16 C 950.504 1034.26 950.46 1034.71 951.61 1036.58 L 957.627 1037.72 C 960.908 1036.55 961.779 1032.81 964.239 1030.46 C 965.819 1028.94 969.429 1027.94 971.664 1028.18 C 974.4 1028.47 976.026 1029.69 977.585 1031.9 C 981.796 1037.88 980.53 1042.92 979.208 1049.46 C 981.924 1051.98 985.07 1054.05 988.08 1056.2 C 991.478 1053.01 995.909 1047.83 1000.79 1047.41 C 1004.03 1047.14 1008.33 1049.06 1010.59 1051.34 C 1019.03 1059.85 1007.47 1068.07 1008.12 1076.76 L 1009.89 1077.97 C 1014.25 1078.16 1018.27 1075.95 1022.24 1074.32 C 1026.65 1081.55 1031.21 1088.65 1034.4 1096.52 C 1030.18 1102.04 1023.33 1106.19 1020.58 1112.46 C 1022.15 1118.92 1035.5 1116.53 1040.33 1121.05 C 1042.34 1122.95 1043.22 1125.06 1043.03 1127.84 C 1042.41 1137.08 1031.37 1138.22 1026 1143.43 C 1024.47 1144.91 1024.64 1145.41 1024.69 1147.39 C 1027.94 1151.71 1034.98 1152.76 1039.2 1156.82 C 1039.45 1157.05 1039.68 1157.29 1039.91 1157.53 C 1036.81 1182.87 1025.44 1167.22 1012.85 1183.06 C 1016.67 1185.82 1020.29 1188.24 1023.18 1192.03 C 1023.77 1196.86 1020.5 1200.9 1017.69 1204.64 C 1001.35 1226.42 998.233 1209.78 985.225 1211.55 L 984.362 1213.04 C 985.512 1218.08 986.791 1223.13 983.654 1227.77 C 980.83 1231.95 971.565 1237.62 966.455 1238.26 C 957.134 1239.42 954.687 1229.96 948.137 1225.8 C 943.24 1227.24 944.193 1240.19 940.501 1244.23 C 936.744 1245.2 932.468 1243.96 928.701 1243.31 C 924.563 1240.72 917.201 1246.78 912.45 1247.01 C 910.91 1247.08 909.584 1246.6 908.495 1245.55 C 904.87 1242.04 905.698 1236.41 905.271 1231.79 C 905.085 1229.77 905.023 1227.12 902.991 1226.06 C 896.098 1222.47 892.197 1231.42 885.907 1232.17 C 882.881 1232.53 878.346 1230.75 876.435 1228.44 C 872.526 1223.72 875.872 1216.11 876.879 1210.81 C 870.199 1206.77 862.943 1214.62 855.934 1213.93 C 852.614 1213.61 850.426 1212.08 848.616 1209.38 C 846.804 1206.67 846.651 1204.84 847.314 1201.73 C 849.134 1199.66 852.39 1196.7 853.502 1194.24 C 855.039 1190.84 853.085 1187.63 852.008 1184.32 C 848.125 1185 843.53 1186.23 839.637 1185.45 C 836.08 1184.74 832.489 1182.91 830.79 1179.54 C 829.218 1176.42 829.442 1172.5 830.791 1169.35 C 832.855 1164.54 836.76 1162.32 841.41 1160.45 C 842.856 1159.86 842.857 1159.52 843.737 1158.29 C 843.077 1144.14 832.039 1153.16 826.138 1145.63 C 824.004 1142.91 823.103 1137.95 823.594 1134.57 C 824.757 1126.56 832.771 1127.53 837.816 1123.02 C 839.327 1120.14 839.399 1118.73 839.308 1115.59 C 837.519 1112.23 833.402 1111.05 830.292 1109.11 C 828.056 1107.72 826.484 1105.63 826.131 1102.96 C 825.52 1098.34 829.32 1092.04 831.735 1088.35 C 837.766 1079.12 842.769 1083.38 850.844 1079.89 C 853.891 1078.57 854.641 1075.05 855.914 1072.24 C 853.788 1070.37 850.927 1067.99 849.553 1065.49 C 847.961 1062.6 848.086 1059.54 849.272 1056.55 C 852.462 1048.49 862.703 1042.91 870.276 1039.7 C 872.404 1042.03 874.374 1044.68 876.73 1046.79 C 878.627 1048.49 880.875 1049.61 883.445 1049.41 L 884.877 1047.67 C 885.434 1045.1 885.691 1043.57 885.011 1040.95 L 882.833 1032.27 C 889.137 1029.3 899.282 1022.7 906.431 1025.37 C 910.818 1027.01 912.418 1031.87 914.303 1035.77 C 918.708 1034.52 923.261 1033.69 927.738 1032.73 C 929.165 1028.49 930.794 1024.6 932.828 1020.62 z"/>
<path transform="translate(0,0)" fill="rgb(137,159,174)" d="M 934.075 1039.68 C 935.129 1036.88 936.085 1033.21 938.266 1031.07 C 939.592 1029.78 938.968 1030.12 940.864 1030.14 C 942.675 1032.98 942.109 1035.97 941.944 1039.18 L 942.477 1042.71 C 943.754 1043.58 943.943 1043.96 945.523 1044.03 C 948.959 1044.19 960.977 1048.03 962.496 1046.73 C 965.544 1044.11 967.362 1040.24 970.902 1038.32 C 973.097 1041.75 971.477 1047.69 970.743 1051.55 C 976.733 1056.63 982.657 1062.16 989.31 1066.34 C 992.383 1063.05 995.385 1059 999.624 1057.28 C 1002.57 1057.53 1002.8 1057.68 1005.1 1059.56 C 1006.3 1066.87 995.11 1078.3 1003.14 1085.17 C 1004.93 1086.7 1007.54 1087.83 1009.92 1087.64 C 1011.79 1087.49 1013.89 1086.73 1015.71 1086.2 C 1018.52 1089.31 1021.26 1092.51 1024.23 1095.45 C 1020.93 1097.83 1017.43 1100.12 1014.36 1102.8 C 1014.77 1111.39 1016.48 1118.64 1019.13 1126.8 C 1023.69 1126.01 1027.39 1125.37 1032.01 1126.41 L 1033.38 1127.72 C 1032.16 1129.75 1030.81 1130.5 1028.83 1131.71 C 1026.92 1132.87 1020.66 1135.65 1019.55 1137.24 C 1017.55 1140.06 1018.96 1152.05 1019.07 1155.89 C 1022.56 1157.49 1026.54 1158.73 1028.77 1162.01 C 1028.18 1164.16 1028.08 1164.25 1026.16 1165.28 C 1022.49 1167.25 1017.58 1168.17 1013.56 1169.32 C 1010.48 1174.83 1006.9 1179.98 1003.35 1185.19 C 1008.31 1189.53 1012.62 1193.01 1013.7 1199.9 C 1012.96 1202.05 1012.63 1202.58 1010.48 1203.74 C 1001.5 1208.59 986.49 1201.07 983.356 1202.04 C 981.653 1202.56 979.188 1206.02 978.466 1207.63 C 976.285 1212.49 978.546 1220.98 973.53 1223.21 C 973.011 1223.44 972.485 1223.65 971.965 1223.88 C 968.745 1225.28 966.726 1226.92 964.27 1229.38 C 962.158 1226.02 961.413 1221.47 960.385 1217.66 C 953.292 1219.92 946.169 1221.28 938.852 1222.62 C 937.752 1225.87 936.658 1231.46 934.048 1233.68 C 933.036 1230.15 932.933 1223.96 930.167 1221.93 L 927.526 1222 C 925.176 1225.22 925.812 1229.59 925.825 1233.51 C 921.611 1234.02 915.338 1235.92 911.639 1233.95 C 910.356 1230.21 911.431 1225.89 911.928 1222.04 C 905.898 1219.84 899.918 1217.74 893.732 1216.02 C 891.036 1218.69 888.481 1221.91 884.726 1222.98 L 883.3 1221.93 C 883.515 1216.38 884.839 1208.31 880.199 1204.21 C 876.489 1200.93 869.914 1200.72 865.295 1201.5 C 861.015 1202.23 856.669 1203.74 852.474 1204.89 C 856.514 1201.4 860.765 1198.02 864.565 1194.28 C 861.989 1187.87 858.74 1182.17 855.072 1176.33 C 850.722 1177.05 845.324 1178.51 841.406 1175.87 C 839.986 1174.91 840.381 1174.14 840.226 1172.58 C 842.227 1168.04 846.369 1165.98 850.154 1162.98 C 849.931 1155.87 850.54 1148.64 844.656 1143.54 C 841.441 1140.75 836.791 1140.13 832.756 1139.28 C 832.152 1137.06 832.284 1136.82 833.044 1134.63 C 835.894 1132.34 839.066 1131.92 842.566 1131.14 C 846.01 1127.26 845.261 1114.31 845.99 1108.79 C 842.146 1107.25 837.52 1105.87 835.502 1101.94 C 834.692 1100.36 834.85 1098.98 835.259 1097.28 C 835.948 1094.4 839.27 1091.18 841.198 1089.06 C 845.143 1090.02 850.48 1092.09 854.156 1089.73 C 858.604 1086.87 862.145 1076.21 866.153 1071.16 C 863.006 1067.21 859.625 1063.32 856.983 1059.01 L 867.219 1049.55 C 869.865 1053.24 872.365 1056.81 875.625 1060 C 883.192 1057.85 889.242 1054.86 895.744 1050.36 C 894.597 1045.64 893.382 1040.94 892.097 1036.25 C 895.725 1034.31 899.324 1032.32 903.071 1030.62 C 905.952 1035.78 908.764 1040.94 911.383 1046.23 C 916.984 1044.39 931.703 1044.25 934.075 1039.68 z"/>
<path transform="translate(0,0)" fill="rgb(137,159,174)" d="M 934.075 1039.68 C 935.129 1036.88 936.085 1033.21 938.266 1031.07 C 939.592 1029.78 938.968 1030.12 940.864 1030.14 C 942.675 1032.98 942.109 1035.97 941.944 1039.18 C 939.077 1039.73 937.02 1040.02 934.075 1039.68 z"/>
<path transform="translate(0,0)" fill="rgb(30,52,81)" d="M 920.064 1073.67 C 952.328 1067.95 983.111 1089.5 988.773 1121.78 C 994.435 1154.05 972.826 1184.79 940.541 1190.39 C 908.343 1195.98 877.702 1174.44 872.055 1142.25 C 866.408 1110.07 887.888 1079.38 920.064 1073.67 z"/>
<path transform="translate(0,0)" fill="rgb(254,254,254)" d="M 919.843 1079.63 C 948.871 1073.66 977.205 1092.48 982.953 1121.55 C 988.702 1150.63 969.663 1178.81 940.547 1184.34 C 911.747 1189.8 883.929 1171.02 878.243 1142.26 C 872.556 1113.5 891.13 1085.54 919.843 1079.63 z"/>
<path transform="translate(0,0)" fill="rgb(254,254,254)" d="M 1294.82 1177.31 C 1296.26 1177.02 1297.29 1176.76 1298.76 1177.12 C 1300.21 1177.48 1300.56 1178.72 1301.19 1179.96 C 1304.63 1186.71 1305.42 1195.18 1306.84 1202.54 C 1312.11 1229.94 1317.74 1257.52 1308.03 1284.73 C 1300.21 1306.64 1283.94 1319.48 1263.34 1329.05 C 1223.14 1347.73 1177.43 1347.46 1134.22 1353.16 C 1080.29 1360.28 1025.88 1366.89 972.355 1376.6 C 936.647 1383.08 901.572 1393.13 866.777 1403.33 C 849.822 1408.29 834.681 1415.5 816.846 1417.44 C 793.358 1419.99 771.185 1415.58 749.237 1407.44 C 781.447 1383.56 815.491 1362.27 851.05 1343.75 C 856.439 1355.35 867.125 1390.18 876.265 1396.23 C 884.751 1395.66 894.29 1388.28 901.541 1383.9 C 948.699 1354.44 996.606 1327.06 1041.63 1294.23 C 1049.12 1304.18 1057.7 1322.42 1067.25 1329.39 C 1069.85 1328.56 1069.79 1328.53 1071.23 1326.19 C 1071.49 1313.89 1055.81 1296.05 1049.04 1286.1 C 1086.84 1253.71 1128.65 1226.5 1168.04 1196.09 L 1178.55 1197.92 C 1163.43 1217 1146.79 1235.22 1131.25 1254.02 C 1123.8 1263.03 1115.68 1271.96 1109.79 1282.1 C 1105.43 1289.61 1101.29 1300.36 1101.34 1309.07 C 1101.36 1312.62 1102.16 1315.68 1104.87 1318.15 C 1107.08 1320.18 1110.31 1321.51 1113.35 1321 C 1123.67 1319.27 1126.49 1285.01 1131.49 1273.94 C 1141.05 1252.76 1173.15 1219.42 1188.46 1198.64 C 1224.53 1195.52 1259.39 1184.32 1294.82 1177.31 z"/>
<path transform="translate(0,0)" fill="rgb(30,52,81)" d="M 1258.21 1211.11 C 1260.44 1210.88 1262.56 1210.78 1264.81 1210.9 C 1268.39 1211.1 1271.03 1211.58 1273.49 1214.31 C 1273.27 1226.84 1253.44 1229.43 1248.39 1239.06 C 1244.84 1245.83 1253.28 1270.56 1254.65 1278.88 C 1252.43 1284.84 1250.28 1290.09 1245.8 1294.8 C 1228.53 1312.96 1194.49 1309.61 1171.75 1309.84 C 1169.33 1309.92 1166.65 1310.15 1164.27 1309.67 C 1160.76 1308.96 1156.21 1304.64 1154.77 1301.43 C 1153.78 1299.23 1153.46 1297.19 1154.55 1294.95 C 1162.51 1278.68 1207.78 1294.65 1225.9 1285.96 C 1250.46 1274.18 1232.46 1247.46 1239.62 1228.15 C 1242.97 1219.14 1249.82 1214.77 1258.21 1211.11 z"/>
<path transform="translate(0,0)" fill="rgb(254,254,254)" d="M 450.061 1085.32 C 463.124 1094.24 476.737 1102.19 490.35 1110.22 C 479.706 1142.37 462.521 1155.18 435.148 1173.43 C 434.695 1176.17 434.58 1178.3 435.264 1181.03 C 436.09 1184.32 437.235 1186.78 440.272 1188.5 C 442.023 1188.63 443.218 1188.7 444.863 1187.95 C 451.913 1184.72 485.408 1146.34 490.178 1138.58 C 494.669 1131.28 497.474 1123.11 500.281 1115.06 C 512.55 1123.73 524.921 1132.26 537.391 1140.63 C 546.182 1146.6 556.014 1152.3 563.581 1159.8 C 560.7 1171.84 556.121 1181.39 555.197 1193.99 C 559.021 1195.64 562.08 1196.78 566.267 1196.18 C 574.029 1190.7 568.88 1179.64 574.144 1172.03 C 575.349 1172.41 576.561 1172.8 577.786 1173.12 C 581.046 1173.95 582.684 1173.6 585.562 1171.94 C 587.491 1168.72 587.12 1166.86 587.267 1163.19 C 596.954 1157.57 611.233 1157.11 622.027 1153.44 C 641.93 1146.66 661.267 1138.09 680.632 1129.93 C 684.707 1142.84 688.141 1155.97 691.731 1169.03 C 676.399 1176.64 659.767 1180.87 647.191 1193.16 C 634.705 1205.37 628.716 1222.89 628.783 1240.18 C 628.799 1244.31 629.075 1250.03 632.669 1252.82 C 635.485 1255 638.662 1254.18 641.782 1253.46 C 649.346 1247.46 647.669 1228.42 650.825 1219.39 C 657.472 1200.36 680.539 1189.21 697.333 1180.92 C 699.651 1188.05 701.923 1195.16 704.779 1202.1 C 706.061 1202.12 707.605 1202 708.769 1201.42 C 710.185 1200.71 711.672 1199.51 712.222 1198.01 C 714.101 1192.85 709.787 1186.66 708.184 1181.82 C 707.32 1179.21 706.956 1178.03 708.144 1175.53 C 709.264 1175.18 709.299 1175.1 710.673 1175.09 C 717.663 1175.02 779.541 1202.47 785.061 1208.17 C 786.021 1209.16 785.979 1211.59 785.685 1212.95 C 785.374 1214.39 785.145 1216.21 783.595 1216.63 C 779.041 1217.88 772.739 1217.15 767.978 1217.24 C 750.622 1217.58 736.184 1220.71 721.121 1229.64 C 694.267 1245.55 676.471 1271.62 668.772 1301.57 C 639.211 1301.29 608.624 1299.76 579.498 1294.52 C 567.386 1271.81 547.834 1253.29 525.096 1241.34 C 519.739 1238.52 509.955 1235.53 504.075 1238.19 C 501.959 1239.14 500.524 1240.81 500.002 1243.07 C 499.536 1245.1 499.503 1247.57 500.946 1249.12 C 505.04 1253.5 512.268 1256.86 517.472 1259.9 C 531.449 1268.05 544.768 1277.15 554.737 1290.1 L 555.607 1291.25 C 535.867 1286.14 514.061 1284.75 494.989 1278.19 C 472.533 1270.47 455.643 1253.44 445.585 1232.21 C 423.529 1185.65 433.544 1131.71 450.061 1085.32 z"/>
<path transform="translate(0,0)" fill="rgb(254,254,254)" d="M 654.489 897.777 L 655.744 897.997 C 660.167 902.253 670.821 943.212 673.646 951.785 C 660.609 959 647.796 965.774 640.548 979.582 C 624.627 1009.92 649.146 1045.67 660.58 1073.2 C 666.897 1088.41 671.622 1104.23 676.592 1119.91 C 659.998 1126.69 643.387 1134.58 626.3 1139.95 C 609.658 1145.18 591.072 1147.9 575.241 1154.92 C 552.429 1137.74 527.403 1122.9 503.749 1106.81 C 508.875 1091.01 512.727 1074.85 525.504 1063.24 C 535.815 1053.88 550.298 1048.58 564.215 1049.5 C 586.459 1050.98 599.6 1075.04 603.641 1094.76 C 604.706 1099.96 603.188 1108.34 606.948 1112.21 C 609.222 1114.55 611.579 1116.02 614.895 1116.07 C 616.848 1114.67 617.629 1114.13 618.608 1111.84 C 623.872 1099.56 619.788 1082.23 614.742 1070.67 C 609.074 1057.88 598.768 1049.34 592.298 1037.42 C 584.68 1023.38 587.914 995.537 593.844 981.286 C 596.694 974.436 601.775 967.797 603.821 960.729 C 604.781 957.41 604.243 954.816 602.417 951.943 C 600.661 949.178 598.652 948.034 595.479 947.243 C 592.378 947.719 590.894 949.059 588.883 951.334 C 570.939 971.63 567.797 1006.24 569.407 1031.94 C 549.074 1031.76 531.348 1034.99 515.046 1047.96 C 497.592 1061.84 493.508 1078.77 491.229 1099.79 C 479.254 1092.69 463.973 1085.51 453.751 1076.14 C 496.929 983.973 566.646 940.253 654.489 897.777 z"/>
<path transform="translate(0,0)" fill="rgb(254,254,254)" d="M 857.909 806.575 C 920.075 801.917 984.194 813.097 1042.5 834.442 C 1146.59 872.546 1219.05 933.592 1279.75 1025.39 C 1294.44 1047.6 1308.47 1069.71 1319.65 1093.95 C 1346.04 1151.13 1370.72 1232.16 1347.95 1293.08 C 1338.05 1319.58 1318.57 1342.86 1292.45 1354.6 C 1277.28 1361.41 1261.6 1360.88 1246.27 1355.18 C 1270.11 1348.98 1297.05 1337.87 1312.7 1317.88 C 1333.47 1291.35 1333.97 1251.07 1330.12 1219.24 C 1328.38 1193.42 1318.72 1163.87 1309.22 1139.77 C 1273.82 1050.04 1205.11 959.794 1125.18 905.186 C 1104.09 890.778 1081.62 879.276 1058.22 869.118 C 971.513 831.474 897.817 823.094 804.424 836.837 C 754.606 843.937 705.838 857.082 659.2 875.981 C 656.16 868.112 653.785 860.386 651.591 852.228 C 717.319 825.554 787.064 810.121 857.909 806.575 z"/>
<path transform="translate(0,0)" fill="rgb(137,159,174)" d="M 1211.23 1363.6 C 1224.09 1361.69 1236.66 1371.16 1248.84 1374.95 C 1258.1 1377.82 1266.74 1378.8 1276.39 1378.89 C 1277.44 1395.4 1276.2 1413.43 1268.9 1428.53 C 1255.26 1456.75 1221.07 1486.61 1191.54 1496.87 C 1159.37 1508.04 1123.49 1501.21 1093.65 1486.72 C 1079.64 1480 1066.04 1470.79 1053.79 1461.26 C 1028.25 1441.4 1014.45 1422.3 1010.48 1389.55 C 1077.16 1379.18 1144.1 1370.53 1211.23 1363.6 z"/>
<path transform="translate(0,0)" fill="rgb(254,254,254)" d="M 1002.1 869.654 C 1019.72 872.926 1046.59 885.429 1063.15 893.162 C 1054.97 903.491 1041.46 921.948 1039.75 935.102 C 1039.32 938.415 1039.8 940.495 1041.91 943.172 C 1044.34 944.561 1046.19 945.296 1049.06 944.779 C 1059.41 942.914 1066.85 922.136 1071.42 913.848 C 1073.89 909.382 1076.82 905.199 1079.77 901.042 C 1107.55 916.462 1131.3 933.897 1155.67 954.25 C 1149.52 975.984 1143.06 1000.63 1146.42 1023.28 C 1147.2 1028.54 1148.84 1036.09 1153.83 1039.1 C 1157.03 1041.03 1159.4 1041.19 1162.95 1040.28 C 1165.44 1038.14 1166.43 1036.72 1166.86 1033.41 C 1167.76 1026.47 1165.68 1018.89 1165.37 1011.89 C 1164.71 997.593 1169.18 982.331 1172.97 968.66 C 1194.5 989.473 1214.18 1013.71 1230.35 1038.9 L 1222.93 1044.64 C 1195.74 1065.63 1166.39 1086.17 1142.43 1110.9 C 1123.68 1090.57 1097.01 1064.09 1081.78 1041.79 C 1084.2 1022.86 1097.2 990.789 1093.81 974.153 C 1093.17 971.025 1092.15 968.901 1089.46 967.033 C 1084.65 966.094 1080.46 966.01 1075.98 968.188 C 1073.71 972.076 1075.21 980.451 1074.47 985.197 C 1072.14 1000 1066.91 1014.55 1063.91 1029.3 C 1043.08 1007.37 1020.3 987.578 999.038 966.171 C 984.457 951.491 984.027 930.73 984.304 911.144 C 984.555 893.441 989.4 882.016 1002.1 869.654 z"/>
<path transform="translate(0,0)" fill="rgb(254,254,254)" d="M 796.332 1212.47 C 844.898 1237.29 893.351 1258.88 946.239 1273.03 C 917.498 1293.11 886.545 1312.4 856.05 1329.69 C 854.277 1325.93 853.05 1322.32 848.958 1320.63 C 847.526 1320.94 846.947 1320.72 846.049 1322.03 C 843.351 1325.97 845.309 1331.11 846.305 1335.35 C 820.023 1352.13 791.886 1366.09 766.287 1383.93 C 761.618 1378.23 757.03 1372.12 751.8 1366.93 C 749.067 1364.23 746.162 1361.61 742.128 1361.63 C 739.849 1363.04 739.72 1363.65 738.533 1366.1 C 738.382 1369.66 739.643 1371.48 741.415 1374.38 C 746.127 1380.05 751.669 1385.15 756.901 1390.33 L 739.514 1401.27 C 732.337 1398.28 725.597 1394.34 719.478 1389.54 C 701.534 1375.32 690.691 1353.76 688.135 1331.16 C 685.505 1307.91 691.492 1284.65 706.29 1266.32 C 725.71 1242.25 751.643 1237.89 780.68 1234.78 C 778.12 1242.33 761.443 1294.49 761.321 1298.22 C 761.213 1301.5 761.591 1304.12 763.919 1306.56 C 766.331 1306.82 766.775 1306.77 768.825 1305.17 C 780.706 1295.88 793.701 1227.98 796.332 1212.47 z"/>
<path transform="translate(0,0)" fill="rgb(254,254,254)" d="M 760.31 899.189 C 788.515 896.334 813.045 915.196 838.115 925.467 C 829.243 981.168 819.543 1036.73 809.018 1092.15 C 802.266 1127.45 794.734 1162.58 788.448 1197.98 C 761.741 1185.19 731.508 1167.32 701.957 1163.71 L 693.791 1136.77 L 690.352 1126.01 L 722.802 1112.98 C 726.436 1115.55 729.967 1117.75 734.303 1118.94 C 741.817 1121 758.852 1121.14 765.713 1116.24 C 768.939 1113.94 770.226 1111.47 771.044 1107.7 C 770.503 1105.37 770.444 1103.9 768.271 1102.48 C 762.771 1098.87 754.195 1103.3 748.514 1104.7 C 742.886 1106.09 739.023 1106.03 734.068 1102.94 C 728.968 1096.07 727.77 1084.81 725.938 1076.5 C 750.097 1067.96 749.697 1028.28 761.962 1016.85 C 770.17 1009.2 787.733 1011.38 799.693 1001.86 C 810.489 993.275 816.612 978.338 818.123 964.814 C 818.628 960.291 818.337 955.458 815.223 951.849 C 808.824 944.43 791.773 945.998 782.576 945.253 C 761.977 943.582 750.604 941.429 736.62 924.912 C 737.359 922.13 738.201 919.218 739.399 916.6 C 743.649 907.312 751.312 902.881 760.31 899.189 z"/>
<path transform="translate(0,0)" fill="rgb(254,254,254)" d="M 878.113 849.434 C 913.784 847.908 949.895 855.332 984.684 862.223 C 963.649 887.069 966.2 905.082 967.27 936.131 C 951.991 929.032 936.046 921.285 919.607 917.395 C 914.104 916.093 905.822 914.742 900.901 918.507 C 898.411 920.413 896.919 922.749 896.731 925.935 C 896.588 928.348 897.418 932.499 899.311 934.186 C 903.397 937.828 935.379 942.857 943.175 945.114 C 954.467 948.384 965.113 954.934 975.035 961.083 C 991.706 971.413 1005.31 984.967 1019.35 998.498 C 1052.45 1030.38 1081.45 1064.35 1111.08 1099.37 C 1122.13 1112.04 1132.96 1124.57 1145.5 1135.81 C 1140.61 1139.43 1135.1 1142.46 1129.9 1145.63 C 1088.98 1107.01 1049.01 1066.9 1006.41 1030.12 C 957.341 988.127 904.604 950.617 848.834 918.042 C 853.227 895.719 856.794 873.316 858.19 850.592 C 864.795 849.969 871.486 849.787 878.113 849.434 z"/>
<path transform="translate(0,0)" fill="rgb(254,254,254)" d="M 989.281 1393.39 C 990.087 1393.47 990.08 1393.4 990.904 1394.58 C 992.643 1397.07 998.624 1420.46 1000.93 1425.85 C 1010.77 1448.8 1028.57 1464.5 1046.69 1480.8 C 1049.16 1508.07 1057.93 1535.5 1064.8 1561.91 L 1042.42 1561.8 C 1037.16 1544.59 1031.35 1528.48 1022.57 1512.72 C 992.219 1467.58 940.812 1441.39 894.271 1416.07 C 924.857 1405.66 957.376 1398.47 989.281 1393.39 z"/>
<path transform="translate(0,0)" fill="rgb(254,254,254)" d="M 957.184 1276.82 C 962.333 1277.11 967.975 1278.88 973.057 1279.95 C 984.72 1282.4 1012.49 1288.26 1023.39 1283.64 C 1024.91 1283 1026.96 1280.54 1028.51 1279.52 C 1028.07 1282.11 1027.32 1284.65 1028.18 1287.21 L 1030.9 1288.31 L 1031.09 1289.41 C 1023.35 1296.68 1013.35 1302.49 1004.58 1308.48 C 977.236 1327.17 949.083 1344.13 920.511 1360.86 C 906.494 1369.59 892.535 1378.42 878.164 1386.55 C 873.896 1370.45 866.213 1354.43 859.998 1338.95 L 957.184 1276.82 z"/>
<path transform="translate(0,0)" fill="rgb(254,254,254)" d="M 678.171 932.761 C 690.15 937.26 707.121 950.025 719.788 948.301 C 726.035 947.45 729.926 944.051 733.581 939.18 C 751.898 958.565 770.366 954.246 794.011 955.996 C 797.573 956.259 801.439 956.972 803.709 959.969 C 804.91 961.555 805.154 964.075 804.885 966.027 C 804.378 969.691 802.572 973.574 801.011 976.929 C 791.404 997.571 771.212 994.191 755.26 1005.83 C 737.698 1019.41 737.94 1050.64 721.354 1066.92 C 708.19 1021.85 691.881 977.714 678.171 932.761 z"/>
<path transform="translate(0,0)" fill="rgb(254,254,254)" d="M 676.845 963.76 C 681.209 966.822 717.569 1088.69 721.444 1101.97 C 713.306 1106.23 704.758 1109.54 696.249 1112.97 L 686.906 1116.43 C 675.044 1084.23 649.636 1023.39 655.748 990.315 C 658.312 976.441 665.974 971.352 676.845 963.76 z"/>
<path transform="translate(0,0)" fill="rgb(254,254,254)" d="M 1128.65 1158.63 C 1140 1168.03 1150.25 1179.75 1160.77 1190.14 C 1125.46 1216.78 1088.01 1241.09 1053.93 1269.26 C 1050.62 1272.02 1047.46 1274.98 1044.25 1277.84 C 1039.71 1271.12 1034.9 1264.56 1030.22 1257.95 C 1055.69 1222.63 1094.06 1185.4 1128.65 1158.63 z"/>
<path transform="translate(0,0)" fill="rgb(254,254,254)" d="M 816.888 855.405 C 818.72 855.061 819.692 855.113 821.503 855.327 C 822.746 860.934 817.424 894.525 816.573 902.85 C 800.82 892.461 783.285 881.509 763.751 881.207 C 745.342 880.923 731.639 894.872 725.778 911.41 C 723.514 917.799 723.392 928.912 718.424 933.645 C 712.216 935.257 706.375 930.932 701.118 928.061 C 692.166 923.192 684.082 922.044 674.086 922.212 C 671.175 912.77 668.388 903.29 665.725 893.774 C 681.684 888.832 696.924 881.821 712.913 876.938 C 746.553 866.664 782.099 860.293 816.888 855.405 z"/>
<path transform="translate(0,0)" fill="rgb(254,254,254)" d="M 1283.77 1132.02 C 1288.88 1136.84 1294.36 1157.97 1296.89 1165.47 C 1268.9 1173.02 1214.69 1189.97 1187.85 1189.56 C 1169.72 1189.28 1161.18 1177.03 1149.63 1165.11 L 1135.58 1151.38 C 1141.53 1148.15 1146.84 1144.23 1152.28 1140.23 C 1160.22 1147.77 1169.2 1155.59 1179.28 1160.09 C 1201.67 1170.11 1226.12 1155.8 1246.53 1147.16 C 1258.85 1141.9 1271.27 1136.85 1283.77 1132.02 z"/>
<path transform="translate(0,0)" fill="rgb(254,254,254)" d="M 1253.74 1074.78 C 1260.01 1077.2 1272.82 1107.39 1276.17 1114.31 C 1254.17 1123.77 1215.28 1141.42 1192.19 1140.98 C 1182.91 1138.72 1176.36 1134.34 1168.67 1128.97 C 1196.9 1110.68 1225.7 1093.42 1253.74 1074.78 z"/>
<path transform="translate(0,0)" fill="rgb(254,254,254)" d="M 1235.85 1045.75 C 1241.65 1050.48 1245.89 1060.23 1249.47 1066.7 C 1221.31 1086.31 1191.4 1105.14 1161.43 1121.87 L 1159.43 1122.63 C 1155.71 1121.66 1152.77 1118.64 1149.85 1116.24 C 1176.12 1090.3 1206.81 1068.45 1235.85 1045.75 z"/>
<path transform="translate(0,0)" fill="rgb(254,254,254)" d="M 842.103 852.412 C 844.36 851.994 846.245 851.98 848.534 852.126 C 849.673 856.988 848.012 864.378 847.453 869.466 C 846.658 876.706 844.523 908.561 839.324 912.735 L 836.571 911.909 L 824.694 906.8 C 825.987 889.067 828.329 871.386 829.701 853.642 L 842.103 852.412 z"/>
<path transform="translate(0,0)" fill="rgb(254,254,254)" d="M 1019.29 1247.87 L 1020.52 1248.31 L 1021.21 1249.96 C 1020.38 1253.38 1019.41 1256.52 1016.83 1259.07 C 1009.51 1266.32 993.402 1264.71 983.796 1264.89 L 982.314 1264.36 C 985.361 1261.41 1013.21 1250.32 1019.29 1247.87 z"/>
<path transform="translate(0,0)" fill="rgb(30,52,81)" d="M 1676.1 83.066 C 1693.36 82.3377 1710.95 82.375 1728.22 83.184 C 1730.07 104.88 1728.48 127.645 1728.14 149.437 C 1752.58 154.629 1790.39 167.236 1808.92 184.215 C 1823.38 168.797 1838.67 149.791 1855.67 137.366 C 1867.44 146.532 1884.22 163.729 1893.3 175.708 C 1878.23 192.336 1861.97 207.744 1845.69 223.163 C 1862.92 246.909 1871.41 272.715 1876.69 301.34 C 1899.75 301.363 1923.87 298.908 1946.76 301.255 C 1946.82 302.021 1946.86 302.788 1946.88 303.556 C 1947.15 312.665 1949.12 349.44 1944.34 354.618 C 1932.18 359.008 1890.77 357.18 1875.55 357.622 C 1870.49 387.202 1859.59 410.32 1843.67 435.42 C 1855.15 449 1880.64 472.067 1888.08 485.585 C 1878.67 498.389 1864.07 510.745 1852.01 521.155 C 1837.46 504.595 1820.31 488.893 1804.02 474.051 C 1781.46 490.73 1755.49 502.23 1727.97 507.732 C 1726.38 529.518 1727.04 551.693 1726.92 573.538 C 1725.72 574.216 1724.42 574.752 1723.04 574.954 C 1716.99 575.842 1680.67 575.699 1676.95 573.021 C 1672.73 562.896 1674.66 521.464 1674.55 507.424 C 1646.26 502.631 1621.66 491.432 1597.55 476.183 C 1582.88 488.477 1568.37 507.864 1553.28 517.868 C 1543.96 508.712 1527.21 495.13 1521.93 483.57 C 1523.4 475.982 1555.23 445.914 1561.99 439.08 C 1543.21 413.967 1533.69 386.44 1526.51 356.276 C 1505.64 357.435 1483.71 357.587 1463.11 361.084 C 1462.39 344.56 1461.28 319.079 1464.93 303.03 C 1485.03 304.372 1505.14 305.586 1525.26 306.672 C 1529.94 275.149 1541.75 248.662 1558.63 221.869 C 1543.29 205.363 1521.94 190.81 1510 171.614 C 1520.49 159.859 1532.98 144.646 1546.17 135.964 C 1562.35 152.445 1577.92 169.418 1594.31 185.719 C 1618.03 166.943 1646.22 155.63 1675.8 150.03 C 1675.94 134.557 1672.83 95.4622 1676.1 83.066 z"/>
<path transform="translate(0,0)" fill="rgb(137,159,174)" d="M 1686.46 90.4952 L 1720.85 90.3029 C 1720.98 112.1 1720.96 133.898 1720.79 155.695 C 1752.71 157.793 1784.24 175.742 1809.82 193.689 C 1825.44 178.658 1839.44 162.096 1855.32 147.202 C 1864.13 156.961 1874.21 165.839 1883.76 174.881 C 1868.15 190.938 1851.79 206.344 1836.37 222.548 C 1856.93 252.606 1863.33 273.145 1871.67 307.984 C 1894.3 308.395 1917.02 307.969 1939.65 307.932 C 1939.98 321.489 1939.96 335.07 1940.08 348.631 C 1917.03 349.798 1893.79 349.876 1870.72 350.002 C 1862.59 385.402 1853.92 405.619 1833.31 435.378 C 1847.98 452.548 1863.93 468.616 1878.41 485.999 C 1869.07 493.625 1860.52 502.62 1851.93 511.094 C 1835.69 496.014 1821.61 477.421 1804.19 463.859 C 1779.23 484.052 1753.12 496.523 1721.14 500.669 C 1720.48 513.052 1720.14 525.449 1720.11 537.849 C 1720.05 547.177 1721.13 558.187 1719.27 567.264 L 1717.25 568.145 C 1705.46 568.267 1693.66 568.143 1681.88 568.132 C 1681.48 545.45 1681.24 522.765 1681.14 500.079 C 1651.13 495.925 1620.47 486.139 1597.03 466.215 C 1581.46 478.928 1568.61 494.921 1553.67 508.394 C 1545.89 500.121 1537.73 492.157 1529.73 484.089 C 1541.92 467.981 1556.99 454.462 1571.95 441 C 1551.02 410.496 1538.62 385.024 1532.5 348.135 C 1511.67 350.585 1490.48 351.172 1469.55 352.567 L 1471.01 310.632 C 1491.41 311.397 1511.85 313.091 1532.23 314.355 C 1536.05 279.015 1547.7 249.663 1568.55 220.965 C 1551.37 205.627 1535.11 189.016 1518.54 173.005 C 1525.96 163.084 1535.86 154.039 1544.41 145.031 C 1561 161.445 1577.32 178.123 1593.37 195.06 C 1622.66 173.392 1648.08 162.766 1683.81 155.83 C 1682.63 147.224 1680.75 96.8318 1683.87 91.0667 L 1686.46 90.4952 z"/>
<path transform="translate(0,0)" fill="rgb(30,52,81)" d="M 1688.22 198.701 C 1759.75 191.389 1823.68 243.39 1831.1 314.909 C 1838.52 386.428 1786.61 450.441 1715.1 457.961 C 1643.44 465.497 1579.27 413.458 1571.84 341.792 C 1564.41 270.125 1616.54 206.027 1688.22 198.701 z"/>
<path transform="translate(0,0)" fill="rgb(254,254,254)" d="M 1691.7 205.738 C 1759.51 200.411 1818.75 251.15 1823.91 318.964 C 1829.06 386.778 1778.18 445.894 1710.35 450.884 C 1642.76 455.856 1583.9 405.188 1578.76 337.611 C 1573.62 270.035 1624.14 211.046 1691.7 205.738 z"/>
<path transform="translate(0,0)" fill="rgb(30,52,81)" d="M 1718.34 234.729 C 1731.28 238.497 1744.5 244.132 1755.19 252.486 C 1777.86 270.204 1756.2 276.516 1758.04 291.543 C 1765.1 303.332 1782.08 307.454 1793.67 313.859 L 1794.79 314.489 C 1795.04 323.233 1797.33 339.938 1793.84 347.753 C 1792.1 351.67 1773.76 354.554 1769.11 356.764 C 1747.61 366.958 1768.04 381.515 1763.18 393.623 C 1759.2 403.551 1736.95 414.257 1727.3 418.618 C 1726.29 418.882 1725.34 419.059 1724.3 419.173 C 1715.04 420.191 1711.22 405.864 1704.76 401.018 C 1701.68 398.709 1697.19 397.815 1693.42 398.459 C 1685.18 399.866 1682.28 409.184 1677.92 415.106 C 1676.5 417.033 1674.43 418.781 1671.92 418.832 C 1662.58 419.024 1640.98 404.439 1635.11 397.194 C 1627.37 387.629 1635.53 381.54 1636.15 371.608 C 1637.54 349.19 1613.77 357.127 1606.71 348.695 C 1600.37 341.132 1603.65 319.929 1604.26 310.728 C 1612.08 306.836 1620.83 305.815 1628.46 302.107 C 1632.24 300.271 1637.75 295.503 1638.55 291.115 C 1639.49 285.987 1633.68 280.972 1631.41 276.753 C 1629.64 273.465 1629.28 269.86 1630.52 266.312 C 1635.6 251.802 1661.18 241.338 1673.99 234.906 C 1679.86 239.13 1683.61 251.594 1688.24 257.84 C 1693.77 258.371 1699.31 258.288 1704.86 258.273 C 1710.95 251.156 1714.53 243.19 1718.34 234.729 z"/>
<path transform="translate(0,0)" fill="rgb(254,254,254)" d="M 1724.47 244.433 C 1737.01 249.701 1748.57 257.056 1758.66 266.185 C 1754.49 274.696 1749.13 283.994 1751.61 293.838 C 1755.06 307.551 1775.13 313.654 1786.13 320.28 L 1786.13 344.281 C 1779.77 345.107 1773.54 346.001 1767.67 348.762 C 1760.91 351.936 1754.94 356.984 1752.58 364.272 C 1749.47 373.872 1753.43 381.592 1757.55 390.011 C 1748.71 398.197 1738.3 404.429 1727.95 410.497 L 1724.62 411.379 C 1718.85 409.705 1712.72 397.952 1706.95 394.056 C 1702.56 391.093 1697.18 389.506 1691.93 390.759 C 1681.44 393.264 1676.08 403.506 1670.86 411.912 C 1658.57 405.895 1647.4 399.893 1638.16 389.609 C 1639.7 385.393 1641.33 381.15 1642.28 376.751 C 1643.73 370.037 1643.86 362.448 1639.87 356.539 C 1633.81 347.574 1621.97 346.296 1612.25 344.495 C 1610.91 335.31 1611.08 325.798 1611.08 316.539 C 1617.65 313.01 1625 311.475 1631.78 308.395 C 1637.24 305.915 1642.25 302.408 1644.26 296.497 C 1647.62 286.605 1641.91 277.067 1637.45 268.634 C 1646.68 256.288 1657.38 250.907 1671.15 245.025 C 1677.59 249.603 1677.87 260.649 1685.68 264.839 C 1691.86 268.149 1704.84 265.277 1711.29 263.495 C 1715.46 256.963 1719.89 250.69 1724.47 244.433 z"/>
<path transform="translate(0,0)" fill="rgb(30,52,81)" d="M 1692.61 300.229 C 1709.1 297.437 1724.74 308.534 1727.55 325.023 C 1730.35 341.512 1719.27 357.157 1702.79 359.979 C 1686.28 362.806 1670.61 351.706 1667.8 335.195 C 1664.99 318.685 1676.1 303.025 1692.61 300.229 z"/>
<path transform="translate(0,0)" fill="rgb(137,159,174)" d="M 1691.39 308.23 C 1703.53 304.649 1716.27 311.605 1719.82 323.752 C 1723.38 335.899 1716.39 348.621 1704.23 352.143 C 1692.12 355.652 1679.45 348.694 1675.91 336.589 C 1672.37 324.484 1679.3 311.799 1691.39 308.23 z"/>
<path transform="translate(0,0)" fill="rgb(30,52,81)" d="M 963.794 236.193 C 963.574 228.29 961.341 209.815 966.633 204.046 L 968.118 204.768 C 972.31 214.466 970.926 226.253 970.715 236.624 C 974.414 237.977 977.586 239.629 980.948 241.675 C 987.645 234.577 997.916 220.998 1007.59 219.215 C 1008.27 221.602 1007.01 223.299 1005.78 225.402 C 1001.12 233.333 992.455 240.56 986.004 247.132 C 987.707 250.305 988.684 253.171 989.494 256.677 C 998.803 256.419 1010.36 254.929 1018.83 259.31 L 1019.26 260.719 C 1012.94 265.922 997.715 264.088 989.649 263.989 C 988.245 267.252 986.927 270.59 985.407 273.798 C 992.018 279.124 1003.87 286.77 1006.28 295.097 C 1005.79 297.369 1006.18 297.197 1004.22 298.815 C 996.871 298.368 986.705 283.427 981.443 278.258 C 977.825 279.936 974.191 281.828 970.424 283.142 C 970.468 289.959 973.119 309.138 968.835 314.194 L 966.346 314.938 C 964.254 313.339 963.834 312.144 963.381 309.536 C 962 301.593 963.667 291.717 964.243 283.647 C 959.449 281.871 955.253 280.203 951.025 277.226 C 947.489 284.812 940.977 290.391 934.473 295.416 C 931.767 297.506 929.855 299.007 926.353 298.531 L 925.242 296.344 C 926.376 288.573 941.099 279.216 946.295 272.764 C 946.503 272.506 946.703 272.241 946.908 271.979 C 946.189 269.949 945.27 266.305 943.627 264.877 C 935.17 257.524 919.531 267.556 911.587 262.503 C 910.564 260.149 910.293 259.97 910.917 257.52 C 916.735 252.832 933.249 256.694 940.963 255.596 C 944.239 255.13 945.724 254.196 947.718 251.622 C 949.335 240.38 930.744 233.024 926.962 222.772 C 926.161 220.6 926.276 220.342 927.219 218.374 L 929.284 217.747 C 938.019 220.918 946.468 233.875 953.354 240.396 L 963.794 236.193 z"/>
<path transform="translate(0,0)" fill="rgb(254,254,254)" d="M 964.944 242.859 C 973.855 241.872 981.929 248.164 983.149 257.046 C 984.369 265.927 978.29 274.163 969.443 275.615 C 963.511 276.588 957.519 274.266 953.792 269.55 C 950.064 264.833 949.19 258.466 951.507 252.92 C 953.825 247.374 958.97 243.522 964.944 242.859 z"/>
<path transform="translate(0,0)" fill="rgb(30,52,81)" d="M 1779.48 1246.24 C 1781.02 1246.6 1782.24 1247.09 1783.69 1247.71 C 1787.61 1254.89 1785.05 1272.62 1784.98 1281.29 L 1795.01 1285.41 C 1798.18 1281.03 1801.53 1276.78 1805.05 1272.69 C 1808.48 1268.66 1813.38 1262.36 1818.82 1261.95 L 1820.41 1264.11 C 1819.87 1270.28 1804.11 1284.64 1799.43 1290.44 L 1803.52 1299.09 C 1811.76 1298.98 1821.17 1298.06 1829.24 1299.75 C 1832.12 1300.35 1834.68 1300.91 1836.27 1303.47 C 1836.09 1303.69 1835.93 1303.95 1835.72 1304.14 C 1830.1 1309.25 1810.62 1306.52 1803.12 1306.11 L 1798.93 1315.36 C 1805.61 1321.74 1814.94 1328.44 1819.87 1336.18 C 1821.23 1338.3 1821.65 1339.45 1821.12 1341.89 L 1818.63 1343.04 C 1811.11 1341.1 1799.75 1326.36 1794.01 1320.82 L 1784.18 1326.01 C 1784.54 1335.11 1784.74 1344.22 1784.75 1353.33 C 1783.56 1354.91 1782.98 1355.26 1781.31 1356.2 L 1779.11 1355.4 C 1775.18 1348.92 1777.11 1334.51 1777.26 1326.88 C 1773.43 1325.3 1769.76 1323.29 1766.07 1321.4 C 1760.49 1327 1750.91 1342.81 1743.33 1343.82 C 1741.32 1342.29 1741.47 1342.22 1740.97 1339.72 C 1743.82 1330.87 1755.34 1323.14 1762.38 1317.42 L 1758.12 1306.99 C 1749.51 1307.08 1733.54 1308.84 1726.54 1303.74 L 1726.97 1302.38 C 1736 1298.12 1748.49 1299.58 1758.33 1299.69 C 1759.48 1296.02 1760.99 1292.53 1762.49 1289 C 1758.56 1285.22 1754.68 1281.41 1750.83 1277.55 C 1747.51 1274.17 1741.94 1268.53 1741.96 1263.53 L 1743.72 1263.24 C 1753.29 1267.59 1760.71 1277.04 1767.88 1284.55 C 1771.31 1283.37 1774.8 1282.35 1778.27 1281.28 C 1778.15 1270.34 1776.49 1256.65 1779.48 1246.24 z"/>
<path transform="translate(0,0)" fill="rgb(254,254,254)" d="M 1776.06 1287.02 C 1778.58 1286.89 1781.3 1286.64 1783.8 1287.1 C 1788 1287.86 1792.25 1290.73 1794.53 1294.32 C 1796.89 1298.04 1797.23 1302.44 1796.05 1306.63 C 1794.31 1312.81 1789.61 1316.44 1784.26 1319.47 C 1781.63 1319.89 1778.91 1320.19 1776.28 1319.56 C 1771.95 1318.56 1768.26 1315.75 1766.14 1311.85 C 1763.72 1307.36 1763.51 1301.85 1765.3 1297.11 C 1767.33 1291.73 1771.1 1289.43 1776.06 1287.02 z"/>
<path transform="translate(0,0)" fill="rgb(30,52,81)" d="M 1516.49 1146.85 C 1516.38 1141.47 1514.49 1119.66 1517.4 1116.66 C 1518.11 1115.93 1518.9 1115.47 1519.73 1114.92 L 1521.44 1115.13 C 1527.73 1124.17 1517.78 1143.28 1528.62 1149.13 C 1534.39 1149.03 1538.03 1145.49 1541.86 1141.5 C 1545.52 1137.68 1551.46 1129.01 1556.87 1128.16 C 1558.35 1127.93 1558.8 1128.73 1559.91 1129.54 C 1560.02 1134.03 1555.74 1137.97 1552.83 1141.02 C 1548.02 1146.05 1542.81 1151.05 1537.46 1155.51 L 1541.63 1164.74 C 1549.84 1164.23 1566.84 1161.48 1573.76 1166.07 L 1573.62 1168.41 C 1564.68 1172.91 1552.24 1171.54 1542.43 1171.58 C 1541.32 1174.57 1540.39 1177.74 1538.67 1180.44 C 1538.93 1180.76 1539.18 1181.09 1539.44 1181.41 C 1545.54 1188.87 1554.62 1194.19 1559.8 1202.22 C 1559.45 1204.58 1559.51 1204.79 1557.84 1206.45 C 1550.36 1206.29 1538.7 1190.79 1533.31 1185.88 C 1530.67 1187.9 1527.03 1189.05 1523.96 1190.34 C 1524.46 1201.45 1526.27 1214.82 1521.75 1225.26 L 1519.84 1225.38 C 1514.7 1218.21 1516.78 1199.67 1516.86 1190.91 L 1508.34 1187.08 C 1502.4 1192.74 1493.59 1205.42 1485.91 1207.76 C 1483.57 1206.96 1483.55 1207.09 1482.37 1204.94 C 1483.97 1196.97 1496.36 1188.24 1502.46 1183.32 L 1498.6 1171.99 C 1498.51 1169.63 1499.02 1167.37 1499.4 1165.05 C 1500.37 1162.08 1501.36 1159.12 1502.22 1156.11 C 1497.26 1150.98 1479.71 1138.11 1479.34 1131.84 L 1480.36 1129.48 C 1483.02 1128.9 1484.1 1129.27 1486.44 1130.71 C 1494.54 1135.73 1501.03 1144.95 1508.05 1151.43 L 1516.49 1146.85 z"/>
<path transform="translate(0,0)" fill="rgb(254,254,254)" d="M 1517.53 1153.42 C 1523.09 1152.34 1528.81 1154.35 1532.47 1158.68 C 1536.13 1163.01 1537.17 1168.98 1535.18 1174.29 C 1533.19 1179.6 1528.49 1183.42 1522.88 1184.28 C 1514.45 1185.57 1506.54 1179.88 1505.08 1171.47 C 1503.62 1163.07 1509.16 1155.05 1517.53 1153.42 z"/>
<path transform="translate(0,0)" fill="rgb(30,52,81)" d="M 868.241 589.879 C 867.878 580.643 866.213 568.779 870.139 560.245 L 871.582 560.004 C 876.169 567.934 874.721 580.946 874.701 589.961 C 877.947 591.427 881.134 592.865 884.517 593.988 C 890.982 587.388 900.03 575.612 908.931 573.035 L 910.543 573.863 C 910.833 576.439 910.796 577.487 909.235 579.643 C 904.083 586.755 895.515 592.15 889.703 599.097 C 891.338 603.03 892.866 607.058 894.828 610.841 C 902.032 610.692 918.053 607.61 923.678 611.583 L 924.336 614.153 C 921.689 616.986 918.773 617.224 914.998 617.356 C 908.127 617.596 901.244 617.187 894.374 617.232 L 889.438 626.964 C 896.417 633.761 908.042 642.66 910.97 651.904 L 910.071 652.788 C 899.468 649.26 893.052 639.028 884.996 631.94 L 874.636 636.743 C 874.435 643.788 876.641 662.599 872.174 667.661 L 869.864 668.218 C 865.169 662.72 867.06 650.159 867.593 643.233 C 867.741 641.047 867.963 638.866 868.258 636.695 C 865.028 635.521 861.54 634.495 858.558 632.792 C 857.278 631.194 855.996 630.427 854.319 629.253 C 852.171 625.257 849.98 621.298 848.13 617.151 C 837.59 617.271 825.718 618.521 815.769 614.609 L 814.906 613.458 C 818.241 609.992 826.382 609.937 830.947 609.888 C 836.706 609.875 842.466 609.92 848.224 610.022 L 852.618 599.444 C 846.672 592.875 834.525 584.639 831.945 576.328 L 832.777 574.227 C 835.375 573.67 836.519 574.22 838.74 575.699 C 845.832 580.422 852.288 588.498 858.221 594.666 C 861.516 592.958 864.763 591.19 868.241 589.879 z"/>
<path transform="translate(0,0)" fill="rgb(254,254,254)" d="M 871.061 596.575 C 880.228 596.644 887.58 604.177 887.426 613.344 C 887.272 622.51 879.67 629.792 870.505 629.551 C 861.461 629.314 854.296 621.834 854.449 612.788 C 854.601 603.742 862.013 596.508 871.061 596.575 z"/>
<path transform="translate(0,0)" fill="url(#Gradient1)" d="M 854.319 629.253 C 855.996 630.427 857.278 631.194 858.558 632.792 C 850.129 638.372 845.157 647.932 835.951 652.919 C 833.739 652.843 833.292 652.86 831.449 651.681 L 831.339 650.036 C 835.428 641.743 847.001 634.837 854.319 629.253 z"/>
<path transform="translate(0,0)" fill="rgb(30,52,81)" d="M 1498.6 1171.99 C 1491.95 1172.18 1484.97 1172.71 1478.35 1172.15 C 1475.03 1171.86 1470.25 1171.46 1467.95 1168.82 L 1468.78 1167.47 C 1477.85 1163.43 1489.63 1164.88 1499.4 1165.05 C 1499.02 1167.37 1498.51 1169.63 1498.6 1171.99 z"/>
</svg>