<svg preserveAspectRatio="xMidYMid meet" version="1.1" xmlns="http://www.w3.org/2000/svg" style="display: block;" viewBox="0 0 2048 2048" width="1024" height="1024">
<path transform="translate(0,0)" fill="rgb(254,254,254)" d="M 0 0 L 2048 0 L 2048 2048 L 0 2048 L 0 0 z"/>
<path transform="translate(0,0)" fill="rgb(46,50,91)" d="M 1636.95 189.789 C 1650.98 157.903 1668.56 109.885 1703.54 96.173 C 1719.46 89.9341 1736.98 92.3867 1752.17 99.4446 C 1768.14 106.746 1780.49 120.174 1786.44 136.694 C 1800.71 177.558 1779.16 217.609 1763.73 254.457 C 1775.23 273.136 1786.36 292.554 1780.87 315.431 C 1779.98 319.153 1778.96 322.861 1777.95 326.552 C 1782.71 335.147 1789.59 342.283 1795.8 349.833 C 1805.14 361.186 1812.41 372.616 1818.27 386.092 C 1813.71 402.567 1807.59 418.69 1802.02 434.856 C 1785.22 484.936 1765.57 534.018 1743.17 581.862 C 1769.67 611.95 1792.41 646.7 1812.71 681.178 C 1896.14 821.533 1934.94 983.933 1923.97 1146.85 C 1918.03 1244.64 1893.01 1340.33 1850.32 1428.52 C 1842.35 1445.01 1834.03 1460.62 1824.27 1476.1 C 1821.37 1480.71 1811.9 1492.83 1811.08 1497.47 C 1807.57 1520.77 1799.29 1540.04 1782.15 1556.54 C 1781.72 1584.24 1776.74 1608.38 1756.24 1628.4 C 1732.25 1651.81 1699.63 1656.11 1669.15 1666.49 C 1660.68 1680.94 1634.11 1701.35 1621.11 1712.58 C 1517.37 1802.13 1394.85 1861.9 1262.7 1896.38 C 1148.82 1925.94 1030.42 1933.97 913.599 1920.04 C 903.583 1918.84 874.262 1917.17 866.573 1913.2 C 854.598 1915.69 842.523 1920.09 830.819 1923.67 L 768.056 1942.9 C 753.687 1947.29 739.131 1952.46 724.077 1953.74 C 704.344 1955.42 683.479 1952.07 665.063 1944.88 C 623.837 1928.79 609.459 1896.86 594.242 1858.4 C 585.4 1836.06 577.431 1813.16 567.716 1791.19 C 536.236 1776.49 509.863 1758.73 482.152 1738.03 C 412.145 1686.75 352.33 1622.84 305.782 1549.6 C 296.997 1535.93 287.928 1522.29 280.218 1507.98 C 190.648 1341.66 152.801 1164.55 187.65 977.081 C 192.441 951.306 197.308 924.111 205.096 899.059 C 206.374 894.949 207.623 894.424 211.244 892.505 C 189.597 838.811 168.605 784.855 148.272 730.65 C 138.592 705.508 123.03 671.335 116.865 646.284 C 114.313 635.913 114.279 624.565 115.633 614.014 C 119.329 585.211 136.662 563.322 158.904 545.964 C 162.384 534.735 167.064 526.362 173.289 516.515 C 171.137 496.537 169.67 476.394 172.369 456.386 C 176.377 426.68 191.824 395.389 216.116 377.154 C 236.429 361.906 262.809 356.437 287.73 360.283 C 326.006 366.19 354.697 390.705 377.084 421.009 C 377.405 409.692 378.359 398.153 380.272 386.997 C 385.239 358.043 399.979 327.151 424.762 310.054 C 444.304 296.572 471.499 291.998 494.638 296.418 C 529.934 303.161 559.555 330.05 579.063 358.988 C 579.232 350.558 579.874 341.967 580.744 333.578 C 583.955 302.587 597.44 271.328 622.282 251.658 C 641.786 236.215 667.93 229.738 692.516 232.823 C 734.092 238.038 758.774 264.394 783.008 295.53 C 782.976 287.03 782.973 278.559 783.757 270.086 C 786.555 239.851 798.525 208.195 822.623 188.593 C 843.235 171.827 869.099 165.092 895.415 167.844 C 933.383 171.814 961.211 196.891 984.276 225.384 C 984.637 214.604 985.551 204.05 988.105 193.538 C 995.253 164.112 1010.06 136.855 1036.56 120.81 C 1058.67 107.422 1086.66 104.339 1111.53 110.814 C 1152.26 121.414 1180.2 154.634 1200.47 189.474 C 1208.36 190.029 1216.27 190.682 1224.08 192.051 C 1262.12 198.721 1285.01 222.929 1306.21 253.335 C 1306.52 253.433 1306.82 253.535 1307.13 253.629 C 1324.99 259.038 1344.78 258.902 1363.07 262.896 C 1400.43 271.05 1439.49 282.292 1474.17 298.62 C 1491.26 306.668 1507.57 316.306 1523.87 325.835 C 1537.79 294.123 1560.81 232.278 1582.48 208.031 C 1588.1 201.752 1594.64 197.306 1602.46 194.245 C 1613.51 189.923 1625.19 188.745 1636.95 189.789 z"/>
<path transform="translate(0,0)" fill="rgb(213,224,227)" d="M 1536.59 816.24 C 1546.73 789.149 1561.44 762.763 1573.76 736.531 C 1593.88 693.705 1613.26 650.649 1634.23 608.223 C 1651.62 573.024 1670.78 538.32 1687.18 502.678 C 1695.15 510.595 1701.72 518.331 1707.5 527.974 C 1689 583.897 1661.29 634.372 1633.76 686.241 C 1624.78 703.155 1608.42 723.682 1604.41 742.126 C 1602.58 750.58 1606.86 765.03 1610.74 772.712 C 1612.26 775.719 1614.41 778.985 1617.77 780.121 C 1621.48 781.377 1625.4 779.789 1628.51 777.796 C 1649.92 764.071 1706.58 655.242 1720.78 627.388 C 1728.45 612.356 1735.22 596.71 1743.17 581.862 C 1769.67 611.95 1792.41 646.7 1812.71 681.178 C 1896.14 821.533 1934.94 983.933 1923.97 1146.85 C 1918.03 1244.64 1893.01 1340.33 1850.32 1428.52 C 1842.35 1445.01 1834.03 1460.62 1824.27 1476.1 C 1821.37 1480.71 1811.9 1492.83 1811.08 1497.47 C 1811.14 1486.05 1809.78 1475.03 1806.21 1464.14 C 1800.57 1446.98 1792.83 1430.04 1786.05 1413.28 C 1766.9 1365.99 1746.08 1319.41 1726.75 1272.21 L 1536.59 816.24 z"/>
<path transform="translate(0,0)" fill="rgb(213,224,227)" d="M 567.716 1791.19 C 536.236 1776.49 509.863 1758.73 482.152 1738.03 C 412.145 1686.75 352.33 1622.84 305.782 1549.6 C 296.997 1535.93 287.928 1522.29 280.218 1507.98 C 190.648 1341.66 152.801 1164.55 187.65 977.081 C 192.441 951.306 197.308 924.111 205.096 899.059 C 206.374 894.949 207.623 894.424 211.244 892.505 L 567.716 1791.19 z"/>
<path transform="translate(0,0)" fill="rgb(213,224,227)" d="M 866.573 1913.2 C 944.617 1887.42 1024.44 1866.29 1103.02 1842.15 L 1669.15 1666.49 C 1660.68 1680.94 1634.11 1701.35 1621.11 1712.58 C 1517.37 1802.13 1394.85 1861.9 1262.7 1896.38 C 1148.82 1925.94 1030.42 1933.97 913.599 1920.04 C 903.583 1918.84 874.262 1917.17 866.573 1913.2 z"/>
<path transform="translate(0,0)" fill="rgb(213,224,227)" d="M 1306.21 253.335 C 1306.52 253.433 1306.82 253.535 1307.13 253.629 C 1324.99 259.038 1344.78 258.902 1363.07 262.896 C 1400.43 271.05 1439.49 282.292 1474.17 298.62 C 1491.26 306.668 1507.57 316.306 1523.87 325.835 C 1517.12 339.873 1511.72 354.906 1505.39 369.188 L 1429.74 544.002 C 1407.86 487.906 1382.98 433.11 1359.54 377.68 L 1327.14 301.273 C 1320.32 285.226 1314.01 268.939 1306.21 253.335 z"/>
<path transform="translate(0,0)" fill="rgb(254,254,254)" d="M 1744.38 387.45 C 1737.72 432.032 1725.04 486.329 1707.5 527.974 C 1701.72 518.331 1695.15 510.595 1687.18 502.678 C 1705.15 463.819 1725.84 426.076 1744.38 387.45 z"/>
<path transform="translate(0,0)" fill="rgb(254,254,254)" d="M 1212.76 209.973 C 1217.83 210.369 1222.7 211.272 1227.58 212.687 C 1248.07 218.633 1265.42 231.334 1278.31 248.208 C 1295.48 270.682 1304.98 299.286 1316.18 325.072 L 1381.23 476.447 C 1389.69 496.642 1397.78 516.987 1406.44 537.099 C 1410.37 546.242 1414.04 555.914 1418.94 564.567 C 1419.12 564.886 1419.31 565.2 1419.49 565.517 C 1412.6 585.307 1403.8 604.241 1395.8 623.582 C 1384.91 649.923 1374.42 676.742 1364.03 703.284 C 1359.16 715.722 1354.24 728.274 1350.14 740.995 C 1347.22 750.074 1345.11 759.433 1341.83 768.393 C 1337.94 779.041 1332.81 789.324 1327.92 799.55 C 1300.21 809.38 1271.64 817.125 1243.55 825.785 L 1084.15 875.175 L 675.8 1003.81 C 616.778 1022.15 557.333 1039.4 498.521 1058.36 L 458.097 1071.46 C 452.286 1073.35 445.614 1074.87 440.15 1077.48 C 437.33 1078.82 435.834 1080.88 434.822 1083.79 L 435.732 1085.44 C 438.389 1086.03 441.252 1084.96 443.827 1084.24 C 467.393 1077.71 490.69 1069.26 513.97 1061.73 C 542.495 1052.5 571.289 1043.98 599.939 1035.14 L 1056.59 892.095 C 1122.57 871.123 1188.72 850.7 1255.04 830.827 C 1278.2 823.849 1301.08 815.815 1324.4 809.409 C 1304.5 857.81 1282.84 906.228 1259.91 953.278 L 701.178 1128.96 L 551.989 1176.1 C 531.432 1182.66 509.319 1188.08 489.315 1195.95 C 486.677 1196.99 484.551 1197.64 482.927 1200.09 C 483.048 1202.38 482.995 1202.29 484.644 1203.87 C 486.713 1204.39 487.714 1204.47 489.82 1203.9 C 513.18 1197.59 536.345 1189.28 559.387 1181.88 L 669.948 1146.64 L 1004.13 1040.56 L 1174.27 987.697 C 1201.46 979.446 1228.55 970.086 1256.07 963.041 C 1243.51 994.811 1229.51 1026.04 1215.88 1057.36 C 1208.91 1073.35 1202.81 1089.73 1195.16 1105.42 L 743.571 1247.92 L 606.065 1291.72 C 585.357 1298.28 564.117 1303.81 543.667 1311.09 C 539.846 1312.45 534.275 1314.09 532.02 1317.58 C 532.393 1319.77 532.474 1319.87 534.073 1321.42 C 535.221 1321.62 536.259 1321.8 537.426 1321.61 C 546.726 1320.08 568.275 1311.88 578.454 1308.74 C 621.108 1295.57 663.415 1281.38 705.942 1267.81 L 1022.1 1167.99 L 1106.27 1141.57 C 1134.56 1132.49 1162.76 1122.99 1191.5 1115.4 C 1186.99 1129.79 1179.51 1143.65 1173.94 1157.72 L 1123.16 1282.95 L 645.873 1429.66 C 633.967 1433.38 596.11 1441.42 588.521 1447.42 C 586.735 1448.83 586.709 1449.17 586.545 1451.3 L 588.493 1453.22 C 598.306 1454.16 684.134 1425.56 699.676 1420.88 L 1119.94 1291.83 C 1095.53 1342.36 1081.77 1397.33 1058.52 1448.39 C 959.362 1478.07 860.592 1509.03 762.232 1541.25 L 681.308 1566.39 C 669.333 1570.05 655.187 1572.71 643.927 1577.97 C 640.33 1579.66 637.389 1581.36 636.052 1585.27 L 636.989 1586.81 C 638.968 1587.31 640.198 1587.11 642.112 1586.58 C 697.767 1571.31 754.884 1551.26 809.993 1533.74 L 1055.66 1457.27 C 1033.89 1510.08 1031.26 1553.05 1033.77 1609.45 C 1010.85 1618.94 977.807 1626.94 953.156 1634.5 L 782.589 1686.25 C 756.935 1693.99 730.357 1700.53 705.088 1709.35 C 700.71 1710.88 693.986 1713.56 691.842 1717.94 L 693.193 1719.19 C 707.27 1720.32 769.785 1698.22 786.732 1693.11 L 958.09 1641.6 C 983.608 1633.92 1008.94 1625.31 1034.62 1618.23 C 1036.11 1626.52 1036.62 1634.87 1038.39 1643.14 C 1034.35 1647.59 1029.82 1652.4 1027.66 1658.1 C 1025.84 1662.91 1025.44 1668.26 1027.89 1672.92 C 1029.81 1676.51 1033.13 1679.13 1037.07 1680.16 C 1041.61 1681.37 1046.23 1680.6 1050.26 1678.21 C 1057.59 1673.86 1061.6 1665.7 1063.66 1657.74 C 1084.02 1646.72 1103.87 1630.78 1120.64 1614.81 C 1130.23 1605.69 1140.05 1592.42 1151.58 1586.02 C 1167 1577.45 1213.12 1565.41 1231.81 1559.62 L 1423.06 1500.87 C 1449.86 1492.83 1656.38 1432.19 1666.34 1424.18 L 1666.5 1421.87 L 1664.75 1420.52 C 1660.56 1419.93 1656.76 1420.63 1652.71 1421.74 C 1634.33 1426.77 1616.18 1433.34 1598.01 1439.12 C 1564.21 1449.86 1530.35 1460.39 1496.43 1470.7 C 1383.89 1503.83 1271.8 1538.42 1160.16 1574.46 C 1169.04 1561.96 1178.95 1550.59 1187.08 1537.46 C 1200.63 1515.6 1211.58 1492.52 1223.02 1469.53 C 1236.56 1442.53 1250.26 1415.61 1264.12 1388.78 C 1289.05 1384.08 1313.73 1374.11 1338.11 1366.96 C 1402.31 1348.31 1466.29 1328.88 1530.03 1308.69 L 1587.49 1291.25 C 1598.99 1287.82 1614.02 1285.32 1624.27 1279.02 C 1626.93 1277.39 1629.1 1275.64 1629.83 1272.5 L 1627.89 1271.39 C 1618.29 1271.51 1571.55 1288.12 1558.39 1292.06 C 1461.99 1321.91 1365.38 1351.08 1268.56 1379.57 C 1290.58 1327.42 1317.94 1277.05 1342 1225.78 C 1393.63 1210.21 1445.14 1194.22 1496.51 1177.8 C 1516.92 1171.48 1537.39 1165.41 1557.67 1158.66 C 1563.27 1156.79 1569.38 1155.74 1574.8 1153.41 C 1576.95 1152.49 1578.47 1150.95 1579.98 1149.22 L 1579.1 1146.08 C 1574.83 1145.34 1569.33 1146.81 1565.17 1147.98 C 1543.05 1154.2 1521.2 1162.15 1499.25 1169.02 C 1448.67 1184.89 1397.93 1200.23 1347.03 1215.02 C 1351.18 1205.46 1356.25 1196.31 1360.61 1186.84 C 1382.27 1139.8 1405.16 1093.19 1426.02 1045.8 C 1441.91 1038.23 1524.66 1016.33 1529.46 1011.66 C 1530.05 1011.09 1530.34 1010.29 1530.79 1009.6 C 1530.31 1006.99 1530.46 1007.02 1528.33 1005.45 C 1521.95 1005.9 1516.69 1008.84 1510.63 1010.53 C 1484.31 1017.89 1458.41 1026.3 1432.2 1034.06 C 1440.47 1012.35 1452.25 990.884 1462.15 969.757 C 1482.61 926.12 1502.97 882.512 1525.29 839.786 C 1558.99 912.704 1588.05 988.035 1617.87 1062.6 C 1637.43 1111.53 1658.13 1160.14 1678.45 1208.77 L 1758.17 1401.92 C 1767.44 1424.56 1781.93 1451.85 1788.89 1473.99 C 1794.32 1491.27 1790.57 1508.36 1782.15 1523.96 C 1772.51 1541.85 1753.66 1554.59 1735.51 1562.59 C 1723.19 1568.02 1709.75 1571.26 1696.84 1575.05 L 1646.12 1590.28 L 1495.59 1636.41 L 943.898 1806.27 L 841.14 1837.01 C 817.095 1844.38 771.771 1860.79 747.937 1862.16 C 732.609 1863.04 717.598 1859.33 704.114 1852.07 C 689.32 1844.11 677.318 1833.05 669.788 1817.91 C 659.105 1796.43 651.218 1772.46 642.513 1750.08 C 629.152 1716.04 615.559 1682.1 601.735 1648.25 L 433.744 1228.7 L 254.499 779.11 L 203.054 647.961 C 194.617 626.521 184.225 605.289 177.687 583.194 C 173.23 568.129 175.605 550.7 183.474 537.004 C 188.046 529.048 195.21 521.76 203.113 517.083 C 220.51 506.788 244.2 502.104 263.488 496.018 C 293.348 486.597 322.978 476.588 353.158 468.197 C 365.493 493.588 373.774 515.871 374.315 544.454 C 360.747 545.877 348.147 550.797 338.125 560.317 C 328.643 569.155 323.22 581.509 323.131 594.472 C 322.931 608.364 327.964 621.818 337.868 631.666 C 348.564 642.283 363.166 648.018 378.229 647.519 C 394.281 647.1 409.916 640.641 420.884 628.744 C 430.729 618.067 436.694 602.671 435.667 588.07 C 434.719 574.591 427.659 566.109 418.042 557.526 C 417.821 513.648 412.084 496.554 397.159 456.447 C 426.398 446.107 456.746 437.917 486.513 429.161 C 510.132 422.214 533.598 414.665 557.105 407.349 C 566.27 433.321 568.961 459.029 568.074 486.438 C 557.241 487.822 547.8 491.53 539.367 498.602 C 528.185 507.978 520.902 521.268 520.01 535.955 C 519.282 547.946 522.621 559.55 530.712 568.571 C 539.961 578.883 553.706 585.142 567.492 585.828 C 583.171 586.609 599.897 580.497 611.194 569.557 C 621.505 559.759 627.317 546.14 627.256 531.916 C 627.132 517.989 621.632 506.201 611.899 496.406 C 616.856 460.366 607.693 426.608 596.927 392.669 C 651.153 376.035 705.166 356.56 760.135 342.65 C 772.699 369.895 775.057 399.804 772.752 429.33 C 762.541 431.972 753.108 434.199 744.326 440.396 C 732.825 448.528 725.128 460.988 723.002 474.912 C 721.107 486.721 724.382 500.373 731.428 510.027 C 738.452 519.652 749.838 525.672 761.476 527.509 C 777.398 530.022 793.489 525.323 806.299 515.787 C 817.658 507.332 825.153 495.16 827.043 481.054 C 828.992 466.504 824.032 456.19 815.692 444.837 C 821.744 401.622 815.686 368.958 801.18 328.256 C 856.081 312.313 910.038 293.438 965.158 278.032 C 978.311 303.756 983.577 335.388 980.124 363.958 C 966.024 365.294 954.25 369.332 944.207 379.911 C 934.197 390.455 929.05 406.025 929.99 420.485 C 930.773 432.514 936.054 443.244 945.434 450.868 C 956.129 459.56 970.46 464.088 984.195 462.597 C 1000.2 460.859 1015.96 453.212 1025.9 440.341 C 1034.47 429.423 1038.22 415.478 1036.27 401.734 C 1034.79 392.044 1030.32 384.492 1022.36 378.845 C 1027.83 331.623 1021.15 306.619 1005.8 262.776 C 1041.19 254.885 1075.69 242.912 1110.18 231.859 C 1127.92 226.175 1146.57 221.625 1163.78 214.561 C 1177.56 243.78 1182.2 271.407 1181.77 303.488 C 1173.03 304.277 1164.63 306.161 1156.84 310.324 C 1144.46 317.078 1135.35 328.565 1131.58 342.159 C 1127.88 355.262 1129.73 369.309 1136.68 381.014 C 1143.48 392.254 1155.37 400.338 1168.06 403.417 C 1182.59 406.94 1197.1 403.857 1209.7 396.15 C 1221.96 388.652 1231.45 376.384 1234.52 362.231 C 1237.88 346.732 1232.98 333.437 1224.97 320.474 C 1226.96 295.688 1227.84 266.876 1220.78 242.78 C 1217.8 232.615 1212.12 222.12 1210.74 211.686 L 1212.76 209.973 z"/>
<path transform="translate(0,0)" fill="rgb(46,50,91)" d="M 1332.42 531.062 C 1333.24 531.009 1334.73 530.868 1335.51 531.031 C 1337.73 531.493 1338.22 532.668 1339.22 534.433 L 1338.37 536.539 C 1329.85 543.09 1315.36 544.351 1305.11 547.659 C 1241.42 568.206 1177.1 586.78 1113.25 606.817 L 671.666 747.404 C 565.213 780.375 459.055 814.289 353.203 849.143 L 349.928 849.936 C 347.657 848.929 347.652 848.922 346.542 846.7 L 347.41 844.151 C 350.043 841.745 352.745 840.42 356.097 839.201 C 384.672 828.815 414.812 820.954 443.856 811.817 L 612.584 758.302 C 851.962 680.775 1091.91 605.026 1332.42 531.062 z"/>
<path transform="translate(0,0)" fill="rgb(46,50,91)" d="M 1358.57 659.044 C 1359.98 658.93 1360.98 659.124 1362.35 659.383 L 1363.75 661.762 L 1362.98 664.036 C 1360.46 666.144 1357.81 667.286 1354.72 668.347 C 1345.98 671.347 1336.68 673.187 1327.79 675.823 C 1306.29 682.278 1284.82 688.847 1263.39 695.531 L 956.411 791.149 L 399.216 968.123 C 397.78 968.44 396.997 968.637 395.541 968.197 C 394.093 967.76 394.095 966.932 393.427 965.677 L 394.223 963.704 C 397.145 961.153 400.38 959.763 403.987 958.44 C 428.19 949.562 453.627 943.062 478.208 935.212 C 540.348 914.926 602.658 895.164 665.131 875.93 C 807.877 829.778 950.964 784.69 1094.38 740.67 C 1182.24 713.057 1269.92 684.003 1358.57 659.044 z"/>
<path transform="translate(0,0)" fill="rgb(46,50,91)" d="M 878.501 1414.2 C 900.584 1412.63 927.233 1418.52 948.547 1424.07 C 958.517 1426.67 985.056 1432 992.725 1436.7 C 994.529 1437.8 995.148 1438.94 996.19 1440.71 C 996.146 1443.56 996.205 1443.54 994.309 1445.66 C 981.306 1450.64 924.593 1433.28 906.746 1430.47 C 897.178 1428.96 878.226 1425.27 869.867 1431.37 C 868.931 1439.13 908.786 1444.24 913.875 1455.66 C 914.851 1457.85 914.461 1459.55 913.409 1461.61 C 910.553 1467.2 901.884 1469.35 896.409 1471.03 C 893.02 1471.88 889.603 1472.6 886.164 1473.2 C 868.322 1476.36 772.095 1484.68 759.896 1476.2 L 760.328 1474.93 C 780.373 1463.36 864.465 1466.07 894.312 1459.21 C 888.435 1455.76 881.392 1453.9 875.06 1451.38 C 867.766 1448.48 856.579 1443.81 853.989 1435.71 C 852.832 1432.09 854.076 1428.58 856.063 1425.54 C 861.062 1417.9 870.124 1415.81 878.501 1414.2 z"/>
<path transform="translate(0,0)" fill="rgb(173,184,197)" d="M 154.447 575.771 C 155.579 577.329 155.3 576.607 155.696 578.482 C 161.284 604.957 181.567 648.473 192.131 675.442 L 290.272 921.11 C 373.249 1132.58 457.51 1343.55 543.05 1554 C 571.527 1624.88 598.199 1696.58 627.665 1767.05 C 636.101 1787.22 642.74 1809.04 652.931 1828.34 C 665.453 1852.04 689.154 1869.42 714.539 1877.04 C 730.766 1881.98 747.995 1882.62 764.545 1878.91 C 793.179 1872.63 821.244 1863.38 849.234 1854.75 L 941.522 1826.98 L 1336.83 1705.69 L 1630.98 1615.03 C 1648.87 1609.24 1666.88 1603.81 1684.99 1598.76 C 1700.19 1594.44 1715.8 1590.52 1730.49 1584.68 C 1741.56 1580.29 1751.91 1574.63 1762.34 1568.93 C 1756.96 1588.85 1749.33 1603.61 1734.49 1617.94 C 1723.35 1626.31 1711.81 1631.84 1698.72 1636.54 C 1671.61 1646.27 1643.33 1653.58 1615.83 1662.21 C 1554.97 1681.88 1493.9 1700.86 1432.61 1719.14 C 1288.16 1764.55 1143.38 1808.94 998.302 1852.32 C 935.234 1872.08 871.965 1891.19 808.508 1909.66 C 780.723 1917.96 744.044 1934.45 715.633 1935.04 C 689.899 1935.58 662.903 1926.93 644.319 1908.67 C 635.51 1900.01 628.716 1889.6 623.701 1878.35 C 613.754 1856.03 605.663 1832.42 596.639 1809.64 L 526.427 1630.55 L 326.776 1127.87 L 195.299 797.712 C 181.904 764.24 168.947 730.594 156.431 696.784 C 150.232 680.527 143.14 664.287 138.08 647.63 C 136.092 641.083 134.296 633.676 134.358 626.806 C 134.509 609.83 142.485 587.933 154.447 575.771 z"/>
<path transform="translate(0,0)" fill="rgb(254,254,254)" d="M 1367.01 762.993 C 1381.49 763.165 1396.29 764.054 1410.01 769.048 C 1429.44 776.51 1448.74 785.326 1465.45 797.915 C 1479.63 808.598 1492.59 820.093 1503.16 834.461 L 1342.96 1175.78 C 1323.5 1216.79 1305.31 1258.3 1284.88 1298.85 C 1279.26 1310.01 1274.42 1322.01 1268.01 1332.69 C 1261.37 1318.9 1255.02 1305.36 1244.47 1294.04 C 1229.11 1279.52 1212.66 1271.57 1192.32 1266.33 C 1177.83 1264.72 1166.25 1265.31 1152.06 1268.62 C 1156.29 1252.52 1163.97 1236.33 1170.11 1220.79 C 1186.31 1179.76 1203.88 1139.55 1221.25 1099.01 C 1268.49 986.426 1317.08 874.412 1367.01 762.993 z"/>
<path transform="translate(0,0)" fill="rgb(213,224,227)" d="M 1465.45 797.915 C 1479.63 808.598 1492.59 820.093 1503.16 834.461 L 1342.96 1175.78 C 1323.5 1216.79 1305.31 1258.3 1284.88 1298.85 C 1279.26 1310.01 1274.42 1322.01 1268.01 1332.69 C 1261.37 1318.9 1255.02 1305.36 1244.47 1294.04 C 1258.78 1257.75 1275.39 1222.57 1291.43 1187.04 L 1383.95 986.292 C 1397.34 957.476 1409.43 928.173 1422.04 899.019 C 1436.62 865.317 1451.33 831.827 1465.45 797.915 z"/>
<path transform="translate(0,0)" fill="rgb(213,224,227)" d="M 1367.01 762.993 C 1381.49 763.165 1396.29 764.054 1410.01 769.048 L 1408.62 773.669 C 1405.4 784.248 1399.7 794.833 1394.98 804.829 C 1386.34 823.147 1377.44 841.229 1369.49 859.868 L 1254.46 1122.64 C 1246.8 1139.87 1238.16 1156.65 1230.55 1173.89 C 1222.09 1193.03 1214.65 1212.67 1206.73 1232.04 C 1202.12 1243.32 1196.02 1254.81 1192.32 1266.33 C 1177.83 1264.72 1166.25 1265.31 1152.06 1268.62 C 1156.29 1252.52 1163.97 1236.33 1170.11 1220.79 C 1186.31 1179.76 1203.88 1139.55 1221.25 1099.01 C 1268.49 986.426 1317.08 874.412 1367.01 762.993 z"/>
<path transform="translate(0,0)" fill="rgb(46,50,91)" d="M 1357.85 816.601 C 1360.53 816.65 1362.55 816.948 1365.14 817.666 C 1367.59 820.219 1368.13 821.918 1368.17 825.478 C 1368.21 829.273 1365.88 834.124 1364.44 837.601 C 1353.1 865.034 1339.62 891.686 1327.77 918.927 C 1316.58 944.651 1307.01 971.214 1294.99 996.555 C 1293.36 999.976 1291.88 1002.34 1288.98 1004.82 C 1286.75 1004.95 1284.07 1004.88 1282.01 1003.87 C 1280.65 1003.21 1279.64 1002.08 1279.23 1000.64 C 1277.98 996.196 1281.12 989.475 1282.76 985.302 C 1295.49 952.911 1311.65 921.229 1325.61 889.298 C 1335.41 866.9 1345.42 837.013 1357.85 816.601 z"/>
<path transform="translate(0,0)" fill="rgb(46,50,91)" d="M 1269.76 1025.01 C 1271.28 1025.19 1273.04 1025.28 1274.5 1025.73 C 1277.12 1026.53 1277.5 1026.98 1278.88 1029.17 C 1278.22 1038.58 1262.43 1068.52 1255.64 1075.32 C 1252.6 1074.92 1250.72 1074.6 1248.89 1071.97 C 1246.75 1068.89 1247.79 1064.05 1248.77 1060.76 C 1251.94 1050.03 1259.9 1030.59 1269.76 1025.01 z"/>
<path transform="translate(0,0)" fill="rgb(254,254,254)" d="M 1576.51 255.337 C 1596.53 249.041 1615.94 250.867 1636.27 254.241 C 1655.53 259.508 1673.62 265.586 1689.86 277.629 C 1715.36 295.662 1731 317.85 1742.28 346.721 C 1727.57 383.602 1707.35 419.613 1689.21 454.92 C 1656.66 518.723 1625.03 582.998 1594.35 647.723 C 1582.9 672.199 1569.45 696.674 1559.78 721.822 C 1549.25 698.741 1537.31 688.231 1516.96 673.79 C 1499.23 663.65 1481.58 655.114 1461.64 650.275 C 1444.1 646.473 1427.31 644.87 1409.43 644.928 C 1428.69 594.882 1450.46 545.491 1471.71 496.249 L 1521.92 378.93 C 1539.87 337.975 1554.88 294.507 1576.51 255.337 z"/>
<path transform="translate(0,0)" fill="rgb(213,224,227)" d="M 1689.86 277.629 C 1715.36 295.662 1731 317.85 1742.28 346.721 C 1727.57 383.602 1707.35 419.613 1689.21 454.92 C 1656.66 518.723 1625.03 582.998 1594.35 647.723 C 1582.9 672.199 1569.45 696.674 1559.78 721.822 C 1549.25 698.741 1537.31 688.231 1516.96 673.79 C 1521.82 668.389 1557.43 583.198 1562.57 571.658 L 1629.49 422.451 C 1643.22 392.038 1657.45 361.753 1670.44 331.022 C 1677.57 314.154 1686.91 295.679 1689.86 277.629 z"/>
<path transform="translate(0,0)" fill="rgb(213,224,227)" d="M 1576.51 255.337 C 1596.53 249.041 1615.94 250.867 1636.27 254.241 C 1629.68 270.317 1620.65 285.803 1613.41 301.689 C 1590.82 350.395 1568.93 399.418 1547.73 448.744 C 1530.94 488.048 1514.1 527.47 1497.91 567.02 C 1486.61 594.633 1476.74 624.53 1461.64 650.275 C 1444.1 646.473 1427.31 644.87 1409.43 644.928 C 1428.69 594.882 1450.46 545.491 1471.71 496.249 L 1521.92 378.93 C 1539.87 337.975 1554.88 294.507 1576.51 255.337 z"/>
<path transform="translate(0,0)" fill="rgb(254,254,254)" d="M 1050.79 1634.81 C 1050.91 1594.09 1049.88 1552.94 1058.57 1512.89 C 1061.93 1497.41 1073.11 1455.88 1080.82 1444.3 C 1084.06 1439.44 1088.91 1435.4 1093.81 1432.31 C 1105.83 1424.74 1121 1420.74 1135.01 1424.3 C 1153.5 1429.01 1169.5 1442.78 1178.85 1459.04 C 1183.13 1468.56 1186.19 1478.04 1188.62 1488.18 C 1161.09 1552.91 1114.3 1597.58 1061.89 1642.61 C 1072.91 1622.81 1081.43 1602.12 1090.39 1581.35 C 1094.18 1572.58 1097.84 1560.77 1103.25 1553.04 C 1108.07 1539.49 1141.09 1466.9 1140.76 1459.25 C 1140.65 1456.75 1139.9 1454.86 1137.86 1453.28 C 1135.72 1451.61 1133.55 1451.81 1131.06 1452.22 C 1128.47 1453.91 1127.19 1455.74 1125.83 1458.46 C 1116.05 1478.08 1108.88 1499.47 1100.23 1519.64 C 1083.77 1558 1066.24 1596.04 1050.79 1634.81 z"/>
<path transform="translate(0,0)" fill="rgb(213,224,227)" d="M 1178.85 1459.04 C 1183.13 1468.56 1186.19 1478.04 1188.62 1488.18 C 1161.09 1552.91 1114.3 1597.58 1061.89 1642.61 C 1072.91 1622.81 1081.43 1602.12 1090.39 1581.35 C 1094.18 1572.58 1097.84 1560.77 1103.25 1553.04 L 1105.57 1553.31 C 1119.81 1545.58 1150.97 1501.99 1160.81 1486.71 C 1166.53 1477.84 1171.45 1466.5 1178.85 1459.04 z"/>
<path transform="translate(0,0)" fill="rgb(254,254,254)" d="M 1076.65 118.35 C 1090.89 116.966 1104.49 118.538 1117.84 123.747 C 1155.43 138.405 1182.51 174.05 1198.13 210.001 C 1217.37 254.289 1221.67 303.436 1203.4 348.566 C 1200.88 354.797 1196.76 364.236 1190.08 366.674 C 1186.55 367.962 1182.33 367.521 1179 365.852 C 1175.41 364.05 1172.59 361.106 1171.4 357.227 C 1168.37 347.27 1180.75 340.219 1184.89 332.355 C 1199.81 303.985 1194.07 264.725 1184.46 235.756 C 1174.95 207.168 1158.34 176.692 1133.4 158.801 C 1117.22 147.2 1096.5 139.6 1076.44 142.958 C 1059.3 145.875 1044.07 155.622 1034.23 169.969 C 1020.65 189.673 1016.75 214.979 1020.86 238.228 C 1012.25 240.902 1003.87 244.259 995.457 247.475 C 993.734 214.343 997.156 180.03 1017.53 152.581 C 1032.78 132.045 1051.53 121.927 1076.65 118.35 z"/>
<path transform="translate(0,0)" fill="rgb(254,254,254)" d="M 263.675 369.246 C 272.653 368.21 282.462 369.108 291.285 370.957 C 325.09 378.042 353.046 402.948 371.231 431.434 C 399.99 476.486 414.445 530.751 402.528 583.585 C 400.304 593.447 396.921 601.063 387.826 606.519 C 383.126 609.338 376.279 611.71 370.815 609.899 C 367.57 608.824 365.376 606.096 364.336 602.933 C 359.531 588.329 374.362 591.312 378.908 580.546 C 392.138 549.213 382.592 506.487 369.871 476.605 C 360.184 455.551 348.807 436.182 332.192 419.734 C 316.082 403.784 295.628 392.295 272.458 392.577 C 255.555 392.783 239.303 398.833 227.562 411.222 C 206.606 433.336 204.163 465.13 204.888 493.93 C 196.322 497.294 190.233 501.979 183.308 507.841 C 178.789 474.057 181.573 437.162 201.307 408.333 C 216.673 385.883 237.34 374.278 263.675 369.246 z"/>
<path transform="translate(0,0)" fill="rgb(254,254,254)" d="M 675.164 242.387 C 686.628 241.368 697.807 243.038 708.65 246.857 C 744.955 259.645 768.912 289.669 785.191 323.267 C 808.059 370.461 814.442 419.734 796.732 469.82 C 793.994 477.564 789.412 485.491 781.474 488.902 C 777.823 490.47 773.351 490.599 769.655 489.114 C 766.878 487.998 764.319 485.705 763.468 482.752 C 761.105 474.548 772.019 468.224 775.684 461.598 C 791.426 433.14 785.573 384.367 776.631 354.703 C 769.334 333.328 757.426 311.467 741.406 295.368 C 725.423 279.306 702.944 266.108 679.697 266.346 C 663.215 266.514 646.682 272.544 635.257 284.717 C 615.965 305.271 613.431 338.708 614.242 365.393 C 606.784 368.035 599.111 370.167 591.533 372.444 C 591.391 371.507 591.256 370.57 591.13 369.631 C 586.714 336.574 593.814 300.14 614.679 273.497 C 629.961 253.985 651.092 245.209 675.164 242.387 z"/>
<path transform="translate(0,0)" fill="rgb(254,254,254)" d="M 469.504 305.347 C 481.189 303.513 494.146 305.973 505.184 309.845 C 536.535 320.843 563.49 348.397 577.539 378.075 C 595.601 416.231 605.363 455.275 600.591 497.717 C 599.404 508.272 597.408 520.29 593.459 530.189 C 590.687 537.137 583.384 543.162 576.615 545.994 C 572.885 547.555 567.269 549.132 563.42 547.069 C 561.581 546.083 560.395 544.25 559.786 542.312 C 556.116 530.622 567.571 528.242 571.811 519.757 C 585.682 492.001 578.398 438.893 569.135 410.274 C 560.012 386.004 547.745 363.933 526.863 347.846 C 509.827 334.723 489.076 327.317 467.485 330.33 C 451.154 332.609 436.653 340.859 426.829 354.215 C 411.317 375.304 409.208 405.32 413.207 430.329 C 405.749 432.67 398.183 434.705 390.66 436.83 C 389.68 433.793 388.853 430.783 388.459 427.607 C 384.741 397.635 393.756 360.236 412.307 336.182 C 426.68 317.547 446.578 308.394 469.504 305.347 z"/>
<path transform="translate(0,0)" fill="rgb(254,254,254)" d="M 874.523 177.359 C 887.199 176.115 899.928 178.007 911.973 182.014 C 947.646 193.88 974.4 224.689 990.582 257.631 C 1011.1 299.406 1021.44 351.595 1005.82 396.794 C 1002.77 405.621 996.59 420.597 987.521 424.498 C 983.894 426.058 979.122 426.202 975.586 424.298 C 973.16 422.992 971.355 420.661 970.565 418.042 C 967.554 408.06 978.075 405.727 981.534 398.238 C 981.726 397.824 981.891 397.399 982.075 396.982 C 996.641 363.991 993.319 324.712 982.538 291.163 C 974.03 268.676 963.283 247.848 946.513 230.373 C 930.256 213.434 908.354 200.656 884.388 200.293 C 868.131 200.047 852.567 205.677 840.806 217.092 C 817.258 239.948 816.601 271.374 816.139 301.981 L 793.877 309.304 C 791.848 275.587 794.984 237.498 816.333 209.732 C 830.909 190.774 851.107 180.497 874.523 177.359 z"/>
<path transform="translate(0,0)" fill="rgb(254,254,254)" d="M 1769.34 335.424 C 1777.28 341.41 1793.62 370.427 1796.12 380.499 C 1799.21 392.968 1788.85 411.296 1784.99 423.355 C 1747.62 540.022 1695.13 643.386 1631.27 747.493 C 1627.69 752.981 1623.92 758.108 1619.8 763.198 C 1618.24 757.723 1616.82 752.198 1615.34 746.7 C 1619.45 736.677 1625.26 727.062 1630.33 717.474 C 1641.59 696.173 1653.24 675.152 1664.88 654.057 C 1688.86 610.61 1711.14 564.24 1727.82 517.505 C 1739.79 484.529 1748.87 450.578 1754.97 416.032 C 1759.55 389.461 1759.1 360.436 1769.34 335.424 z"/>
<path transform="translate(0,0)" fill="rgb(254,254,254)" d="M 1658.06 192.915 C 1662.63 174.555 1674.39 152.081 1685.26 136.673 C 1693.3 125.27 1703.91 113.983 1718.38 111.749 C 1731.59 109.709 1743.18 115.624 1753.49 123.162 C 1765.17 133.721 1771.04 146.569 1771.8 162.226 C 1773.07 188.34 1759.14 217.095 1747.82 240.145 C 1740.02 232.669 1731.82 225.609 1723.27 218.995 C 1704.82 204.271 1680.72 197.803 1658.06 192.915 z"/>
<path transform="translate(0,0)" fill="rgb(254,254,254)" d="M 878.834 210.323 C 884.25 209.853 889.706 210.21 895.014 211.383 C 921.621 217.208 941.918 238.036 956.196 260.126 C 932.528 266.753 908.937 273.648 885.426 280.811 C 865.791 287.603 845.765 293.489 825.926 299.668 C 826.154 277.033 828.146 250.432 841.996 231.473 C 851.043 219.089 864.031 212.748 878.834 210.323 z"/>
<path transform="translate(0,0)" fill="rgb(254,254,254)" d="M 471.659 339.228 C 478.606 338.94 484.904 339.319 491.664 341.046 C 517.447 347.63 535.427 366.869 548.442 389.083 C 526.156 395.703 503.919 402.489 481.734 409.44 L 422.014 427.159 C 421.636 404.601 421.611 380.103 435 360.722 C 443.838 347.929 456.825 341.93 471.659 339.228 z"/>
<path transform="translate(0,0)" fill="rgb(254,254,254)" d="M 270.505 402.346 C 275.691 401.893 281.157 402.552 286.211 403.78 C 310.739 409.741 330.572 428.579 343.281 449.665 C 320.465 457.696 297.454 465.165 274.27 472.065 L 215.119 489.85 C 213.932 466.677 217.115 441.78 231.828 422.92 C 241.721 410.239 254.906 404.196 270.505 402.346 z"/>
<path transform="translate(0,0)" fill="rgb(254,254,254)" d="M 673.198 277.279 C 679.468 276.8 685.297 276.762 691.511 278.008 C 718.271 283.372 736.824 303.143 751.357 324.932 C 729.299 329.645 707.426 337.482 685.852 344.122 C 665.13 350.823 644.281 357.125 623.317 363.024 C 622.072 342.523 625.944 314.014 638.21 296.829 C 646.911 284.638 659.042 279.886 673.198 277.279 z"/>
<path transform="translate(0,0)" fill="rgb(254,254,254)" d="M 1082.4 152.341 C 1087.95 152.133 1093.52 152.594 1098.97 153.714 C 1122.9 158.789 1140.23 176.572 1153.1 196.322 C 1131.79 205.406 1108.93 211.482 1086.76 218.156 C 1067.66 223.792 1048.63 229.719 1029.7 235.936 C 1029.75 214.124 1031.1 191.517 1044.86 173.49 C 1054.34 161.083 1067.15 154.459 1082.4 152.341 z"/>
<path transform="translate(0,0)" fill="rgb(254,254,254)" d="M 1585.55 236.904 C 1589.29 229.295 1593.56 222.588 1600.38 217.316 C 1614.75 206.213 1633 207.797 1649.88 209.768 C 1673.81 214.936 1696.42 223.045 1716.76 236.971 C 1739.07 253.345 1757.62 275.63 1763.62 303.185 C 1760.9 312.01 1757.69 320.593 1753.1 328.637 C 1739.09 302.473 1729.97 287.856 1707.87 267.708 C 1687.97 253.137 1667.38 242.431 1643.13 237.343 C 1623.35 233.489 1605.38 233.877 1585.55 236.904 z"/>
<path transform="translate(0,0)" fill="rgb(254,254,254)" d="M 1380.55 718.854 C 1396.93 718.031 1412.47 719.802 1428.57 722.493 C 1449.73 728.506 1473.62 736.789 1490.42 751.52 C 1504.14 762.078 1516.61 776.787 1526.89 790.756 C 1522.25 799.023 1518.35 807.592 1514.41 816.206 C 1502.29 803.368 1489.83 791.728 1476 780.699 C 1457.73 769.27 1439.11 760.426 1419.09 752.534 C 1403.75 747.515 1388.03 745.544 1372.05 743.882 C 1374.51 735.368 1377.44 727.141 1380.55 718.854 z"/>
<path transform="translate(0,0)" fill="rgb(254,254,254)" d="M 1401.72 664.424 C 1419.68 663.62 1436.02 664.674 1453.7 667.652 C 1474.32 673.453 1495.09 681.672 1512.5 694.356 C 1509.52 703.684 1503.7 727.652 1499.85 734.726 C 1480.91 722.146 1460.21 711.291 1438.18 705.354 C 1421.21 700.607 1405.15 700.319 1387.69 701.035 C 1391.72 688.705 1397.26 676.651 1401.72 664.424 z"/>
<path transform="translate(0,0)" fill="rgb(254,254,254)" d="M 1159.8 1319.43 C 1171.38 1320.11 1182.14 1321.77 1192.62 1326.98 C 1218.1 1339.65 1232.17 1362.98 1240.99 1389.1 C 1237.33 1396.17 1233.13 1402.98 1229.07 1409.83 C 1224.72 1401.59 1220.35 1393.6 1215.15 1385.85 C 1206.78 1375.66 1197.52 1367.07 1185.75 1360.92 C 1162.94 1349 1139.97 1348.51 1115.86 1356.06 C 1118.54 1346.69 1122.49 1337.72 1126.17 1328.71 C 1137.18 1322.99 1147.54 1320.63 1159.8 1319.43 z"/>
<path transform="translate(0,0)" fill="rgb(254,254,254)" d="M 1136.94 1362.37 C 1152.37 1360.46 1170.7 1365.26 1184.03 1373.06 C 1203.74 1384.6 1216.28 1404.67 1221.96 1426.4 C 1218.34 1435.69 1212 1444.73 1206.7 1453.21 L 1200.61 1436.73 C 1192.35 1418.61 1180.1 1403.82 1161.62 1395.51 C 1141.46 1386.44 1122.27 1387.71 1102 1395.34 C 1104.08 1388.14 1105.77 1378.87 1110.15 1372.72 C 1116.04 1364.45 1127.73 1363.8 1136.94 1362.37 z"/>
<path transform="translate(0,0)" fill="rgb(254,254,254)" d="M 1167.27 1282.9 C 1189.84 1280.9 1210.59 1285.97 1228.24 1300.74 C 1244.84 1314.63 1251.4 1333.2 1256.39 1353.59 C 1253.04 1359.66 1249.94 1365.71 1247.14 1372.05 C 1234.38 1345.71 1219.1 1323.7 1190.18 1313.58 C 1181.5 1310.62 1172.4 1309.05 1163.23 1308.92 C 1152.55 1309.66 1142.94 1311.33 1132.71 1314.52 C 1135.55 1306.03 1138.68 1297.78 1142.14 1289.53 C 1150.4 1286.48 1158.58 1284.29 1167.27 1282.9 z"/>
<path transform="translate(0,0)" fill="rgb(173,184,197)" d="M 366.231 558.943 C 367.377 558.993 368.539 559.328 369.663 559.56 C 369.823 559.845 370.019 560.111 370.142 560.413 C 372.019 565.025 368.686 572.59 367.275 577.141 C 360.657 580.807 355.076 585.006 352.643 592.5 C 350.795 598.192 351.75 604.401 354.683 609.559 C 357.682 614.872 362.682 618.764 368.569 620.366 C 377.212 622.642 387.576 620.21 394.99 615.474 C 410.789 605.38 412.483 588.308 416.111 571.707 C 421.529 581.3 423.671 587.44 422.731 598.532 C 422.351 599.755 421.962 600.955 421.522 602.157 C 416.771 615.123 409.745 626.343 396.611 632.121 C 385.387 637.06 371.46 637.353 360.084 632.745 C 350.119 628.709 341.344 620.863 337.257 610.798 C 333.686 602.001 334.031 591.559 337.858 582.9 C 343.288 570.614 354.076 563.433 366.231 558.943 z"/>
<path transform="translate(0,0)" fill="rgb(173,184,197)" d="M 563.903 499.933 C 564.346 505.083 561.856 510.805 560.304 515.66 C 555.563 519.773 551.234 523.436 549.019 529.486 C 546.883 535.32 546.661 541.645 549.558 547.269 C 552.024 552.057 556.45 555.403 561.571 556.917 C 569.747 559.334 578.954 557.63 586.329 553.587 C 601.08 545.499 606.88 530.214 611.404 515.033 C 614.261 526.871 615.644 534.803 611.559 546.617 C 606.908 556.627 600.057 565.389 590.112 570.572 C 580.821 575.475 569.922 576.344 559.971 572.975 C 549.397 569.329 539.478 561.21 534.653 551.016 C 530.899 543.084 530.679 534.223 533.857 526.054 C 539.167 512.401 551.09 505.292 563.903 499.933 z"/>
<path transform="translate(0,0)" fill="rgb(213,224,227)" d="M 1512.5 694.356 C 1527.95 706.366 1541.55 718.885 1553.61 734.425 C 1548.2 746.864 1542.7 759.212 1536.65 771.353 C 1525 758.155 1513.67 745.721 1499.85 734.726 C 1503.7 727.652 1509.52 703.684 1512.5 694.356 z"/>
<path transform="translate(0,0)" fill="rgb(173,184,197)" d="M 766.21 442.85 C 767.762 443.561 766.993 442.985 768.15 444.982 C 768.404 453.319 761.882 458.749 757.278 465.117 C 753.366 470.527 750.084 478.144 751.517 484.946 C 752.765 490.872 757.827 495.079 762.857 497.904 C 768.923 501.31 775.865 502.004 782.492 499.892 C 800.41 494.182 803.533 479.507 811.092 465.052 L 812.165 465.385 C 815.407 473.841 814.209 481.411 811.523 489.81 C 807.302 498.596 800.943 506.037 792.397 510.885 C 782.439 516.544 770.605 517.897 759.627 514.631 C 750.473 511.864 742.264 505.553 737.895 496.969 C 733.584 488.501 733.627 478.388 736.879 469.574 C 741.909 455.942 753.527 448.4 766.21 442.85 z"/>
<path transform="translate(0,0)" fill="rgb(173,184,197)" d="M 973.021 376.811 L 975.115 377.353 C 975.493 384.765 968.257 392.527 964.403 398.571 C 961.062 403.811 956.27 411.98 957.938 418.356 C 959.623 424.794 963.778 431.602 969.862 434.703 C 975.909 437.783 984.989 437.852 991.292 435.515 C 1004.52 430.613 1010.14 417.896 1015.46 405.974 C 1016.48 403.698 1017.52 399.648 1019.8 398.784 C 1021.83 406.362 1021.35 413.02 1020.15 420.618 C 1016.78 430.988 1009.65 439.724 1000.18 445.113 C 990.093 450.798 978.107 452.055 967.064 448.586 C 958.488 445.843 951.091 440.167 946.961 432.079 C 942.493 423.33 942.338 412.52 945.59 403.35 C 950.349 389.93 960.896 382.793 973.021 376.811 z"/>
<path transform="translate(0,0)" fill="rgb(173,184,197)" d="M 1171.63 316.881 C 1173.78 317.199 1173.49 317.264 1174.94 318.623 C 1176.85 326.959 1163.55 337.976 1159.9 345.648 C 1157.04 351.653 1156.8 356.074 1159.3 362.279 C 1161.98 368.94 1167.28 373.663 1173.99 376.062 C 1182.26 378.972 1191.37 378.365 1199.19 374.383 C 1212.3 367.664 1215.03 353.941 1219.34 341.149 C 1220.22 349.284 1220.54 356.696 1219.73 364.857 C 1216.62 374.033 1210.5 381.202 1202 385.86 C 1191.63 391.543 1179.05 393.08 1167.71 389.566 C 1158.57 386.735 1150.12 380.592 1145.8 371.899 C 1141.35 362.928 1142.01 352.873 1145.5 343.702 C 1150.29 331.125 1159.69 322.499 1171.63 316.881 z"/>
<path transform="translate(0,0)" fill="rgb(254,254,254)" d="M 1122.46 1400.27 C 1139.24 1399.5 1156.48 1404.48 1169.8 1414.8 C 1183.66 1425.55 1198.33 1448.06 1199.58 1465.84 C 1199.76 1468.51 1199.68 1469.83 1197.9 1471.82 C 1194.72 1469.08 1189.45 1454.17 1186.66 1449.06 C 1176.55 1434.2 1162.97 1422.98 1146.17 1416.34 C 1126.64 1408.64 1109.86 1410.82 1090.94 1419.12 L 1096.98 1408.96 C 1105.44 1404.7 1113.07 1401.66 1122.46 1400.27 z"/>
<path transform="translate(0,0)" fill="rgb(254,254,254)" d="M 1044.92 1652.53 C 1048.26 1654.05 1049.68 1655.12 1051.22 1658.41 C 1051.07 1664.11 1047.37 1667.42 1043.82 1671.44 L 1039.61 1670.58 C 1037.88 1668.98 1036.76 1668.2 1036.75 1665.58 C 1036.73 1660.47 1041.46 1655.69 1044.92 1652.53 z"/>
</svg>